
    <svg
      width="70"
      height="73"
      viewBox="0 0 70 73"
      fill="none"
      xmlns="http://www.w3.org/2000/svg"
    >
      <path
        fill-rule="evenodd"
        clip-rule="evenodd"
        d="M49.6021 50.8931C49.4872 50.8931 49.3939 50.7996 49.3939 50.6848V50.166C49.0615 50.2572 48.8164 50.5622 48.8164 50.9231C48.8164 51.3271 49.1239 51.6565 49.5162 51.6996V51.5912C49.5162 51.5442 49.5547 51.5063 49.6018 51.5063C49.6479 51.5063 49.6871 51.5442 49.6871 51.5912V51.6996C50.0791 51.6565 50.3878 51.3271 50.3878 50.9231C50.3878 50.5625 50.1425 50.2577 49.8104 50.1661V50.6848C49.8104 50.7996 49.7171 50.8931 49.6021 50.8931ZM21.4882 39.2885C21.4877 39.2725 21.4832 39.2426 21.4681 39.2001C21.4529 39.1575 21.4184 39.1124 21.3672 39.0609C21.3178 39.0109 21.2416 38.9649 21.1454 38.9249C21.045 38.8832 20.9136 38.8588 20.7472 38.8529C20.6869 38.8508 20.6721 38.7985 20.7169 38.699C20.7679 38.5856 20.8026 38.5187 20.8178 38.491C20.8327 38.4633 20.8635 38.4425 20.9034 38.4288C21.0498 38.3788 21.2058 38.3362 21.3823 38.3027C21.5586 38.2693 21.7403 38.2355 21.9319 38.2011C22.1232 38.1668 22.3103 38.1271 22.4965 38.0866C22.678 38.047 22.8543 37.9909 23.0207 37.931C23.0406 37.9239 23.062 37.9217 23.0813 37.913C23.1024 37.9036 23.1215 37.8944 23.1417 37.8918C23.1719 37.8881 23.1901 37.9362 23.1871 38.031C23.1802 38.2487 23.1669 38.5157 23.1568 38.8334C23.1468 39.1508 23.1417 39.4735 23.1417 39.8042C23.1417 40.3413 23.1417 40.8801 23.1417 41.4155C23.1417 41.815 23.1112 42.1409 23.0509 42.3898C22.9903 42.6401 22.9099 42.8418 22.8192 42.9957C22.7284 43.1495 22.6264 43.2696 22.5166 43.3576C22.4099 43.4429 22.309 43.5183 22.2141 43.5835C22.0923 43.6672 21.9523 43.7448 21.8007 43.8062C21.645 43.8692 21.493 43.9187 21.3421 43.9552C21.1958 43.9906 21.0694 44.0155 20.964 44.0338C20.8628 44.0513 20.8078 44.0621 20.7976 44.0633C20.7222 44.0733 20.6816 44.0549 20.6716 44.0141C20.6515 43.9913 20.6413 43.9437 20.6413 43.875C20.6413 43.8193 20.6413 43.7619 20.6413 43.7046C20.6413 43.6604 20.6784 43.643 20.7472 43.6243C20.9866 43.5594 21.159 43.4462 21.2664 43.3117C21.3757 43.1744 21.4344 43.0149 21.4579 42.8303C21.4646 42.7775 21.4758 42.6712 21.4882 42.5126C21.5008 42.3536 21.5135 42.1703 21.5235 41.9607C21.5335 41.7512 21.5386 41.5283 21.5436 41.2926C21.5486 41.0569 21.5482 40.8358 21.5386 40.628C21.5181 40.1827 21.5026 39.7355 21.4882 39.2885ZM19.8549 36.9028C19.8549 36.816 19.8806 36.7425 19.9306 36.68C19.9813 36.6166 20.0366 36.5825 20.0869 36.5769C21.5386 36.4125 22.9897 36.2477 24.4424 36.1103C24.4926 36.1056 24.5382 36.1413 24.5785 36.1936C24.6188 36.246 24.6389 36.3117 24.6389 36.3885C24.6389 36.5786 24.5732 36.6799 24.4424 36.6932C22.9904 36.8419 21.5385 36.9988 20.0869 37.1647C20.0364 37.1705 19.9806 37.152 19.9306 37.1058C19.8799 37.0587 19.8549 36.9912 19.8549 36.9028ZM22.4006 33.4904C22.4862 33.4807 22.5469 33.5329 22.5872 33.6409C22.5872 33.6589 22.6167 33.699 22.6729 33.7637C22.7274 33.8266 22.7939 33.8899 22.8644 33.9521C22.935 34.0143 22.9994 34.0746 23.056 34.1289C23.1152 34.1859 23.1468 34.2125 23.1568 34.2109C23.2425 34.2289 23.2996 34.2534 23.3383 34.2895C23.3752 34.3236 23.3888 34.404 23.3888 34.5252C23.3888 34.5858 23.3475 34.6217 23.2678 34.6415C23.2364 34.6493 23.1821 34.6907 23.1116 34.7544C23.041 34.8183 22.967 34.8921 22.8897 34.9722C22.8108 35.0541 22.7372 35.1382 22.6628 35.2293C22.5911 35.3166 22.5458 35.3944 22.5267 35.4586C22.5056 35.5302 22.4206 35.5732 22.2797 35.5879C22.1537 35.6009 22.0533 35.5662 21.9773 35.4831C21.9021 35.4008 21.7816 35.2917 21.6142 35.1622C21.5953 35.1475 21.552 35.0944 21.4882 35C21.4261 34.908 21.3472 34.8435 21.2412 34.8134C21.1004 34.7733 21.0294 34.7118 21.0294 34.6267C21.0294 34.5809 21.049 34.5278 21.095 34.4695C21.1445 34.4066 21.1952 34.3629 21.2613 34.3517C21.3012 34.345 21.3662 34.3091 21.4529 34.2387C21.5374 34.1701 21.6294 34.0945 21.715 34.011C21.8006 33.9276 21.8807 33.8497 21.952 33.7786C22.0268 33.704 22.0692 33.658 22.078 33.6409C22.1196 33.5599 22.1587 33.5142 22.199 33.5099C22.2644 33.5028 22.3302 33.4985 22.4006 33.4904ZM27.6182 38.229C27.2805 38.2579 27.0485 38.3501 26.9275 38.4994C26.6908 38.6745 26.5275 38.8636 26.4386 39.0674C26.3512 39.2679 26.3075 39.5079 26.3075 39.783C26.3075 39.9205 26.3177 40.0712 26.3378 40.2316C26.3579 40.3922 26.5578 40.827 26.9327 41.5284C27.3089 42.2319 27.6588 42.588 27.9762 42.6059C28.2939 42.6239 28.6197 42.4324 28.9542 42.0345C29.29 41.6351 29.4547 41.417 29.4582 41.3746C29.4749 41.1761 29.4936 40.9521 29.4986 40.7048C29.5036 40.4561 29.5036 40.2087 29.5036 39.9599C29.5036 39.711 29.5036 39.4799 29.4986 39.2688C29.4936 39.0544 29.4768 38.894 29.4582 38.7841C29.4467 38.7156 29.4277 38.6583 29.4028 38.6089C29.3774 38.5585 29.3133 38.5047 29.2112 38.4551C28.7892 38.2495 28.2635 38.1759 27.6385 38.229C27.6285 38.2298 27.6231 38.2287 27.6182 38.229ZM42.0561 38.5042C42.2083 38.2562 42.3652 38.0621 42.5148 37.918C42.6628 37.7757 42.8127 37.6612 42.9634 37.5773C43.1099 37.496 43.2658 37.4226 43.4324 37.3661C43.5983 37.3098 43.7745 37.241 43.9718 37.1615C44.0464 37.1316 44.1079 37.0876 44.1583 37.0222C44.2086 36.9568 44.2464 36.8899 44.2793 36.8242C44.3118 36.7589 44.3394 36.7028 44.3598 36.6522C44.3797 36.603 44.4002 36.5787 44.4204 36.5802C44.4404 36.5818 44.456 36.6079 44.4658 36.6538C44.476 36.7012 44.4937 36.763 44.5262 36.834C44.5591 36.9055 44.6119 36.9798 44.6825 37.0633C44.7529 37.1467 44.8683 37.2253 45.0203 37.2973C45.1757 37.3709 45.3368 37.4471 45.4992 37.525C45.6643 37.6042 45.8267 37.6878 45.9782 37.782C46.134 37.8791 46.3213 38.0569 46.5377 38.3174C46.7548 38.5789 46.9107 38.8515 47.0064 39.1362C47.1022 39.4211 47.1302 39.6793 47.0822 39.9123C47.0345 40.1443 46.9914 40.3088 46.9461 40.4035C46.9008 40.4985 46.8296 40.5665 46.7344 40.6099C46.6433 40.6514 46.5175 40.6721 46.3563 40.6688C46.2 40.6657 45.9933 40.652 45.7462 40.6296C45.3081 40.5899 44.8989 40.5277 44.5262 40.4395C44.158 40.3526 43.7902 40.2137 43.4324 40.0221C43.4021 40.0286 43.3764 40.0447 43.3567 40.0679C43.3363 40.0921 43.3287 40.1482 43.3264 40.2334C43.3037 41.0602 43.4733 41.6114 43.8356 41.8903C44.194 42.1663 44.8337 42.1753 45.7462 41.9066C45.6555 41.9165 45.6822 41.982 45.8269 42.1081C45.9694 42.2324 45.8518 42.3729 45.4791 42.5257C45.1009 42.6807 44.7331 42.7384 44.375 42.7058C44.0879 42.6797 43.8204 42.6288 43.5785 42.5486C43.3365 42.4686 43.1299 42.3798 42.9535 42.2801C42.7771 42.1801 42.6317 42.0838 42.5148 41.9951C42.3949 41.9039 42.3083 41.8344 42.2577 41.779C42.1169 41.6249 41.9637 41.4113 41.809 41.1355C41.6562 40.8629 41.5772 40.5854 41.5772 40.3086C41.5772 40.0318 41.5848 39.8274 41.5974 39.6963C41.6099 39.5639 41.6284 39.4393 41.6629 39.3246C41.6988 39.2052 41.747 39.0828 41.809 38.9562C41.8728 38.8259 41.9514 38.6751 42.0561 38.5042ZM40.685 35.768C40.685 35.6828 40.7199 35.6133 40.7908 35.5633C40.8658 35.5103 40.9472 35.4859 41.0378 35.4913C43.271 35.625 45.5051 35.7834 47.7425 35.9825C47.8244 35.9897 47.8992 36.0379 47.9643 36.1004C48.0302 36.1639 48.0652 36.233 48.0652 36.3099C48.0652 36.3967 48.0295 36.4635 47.9643 36.5081C47.8985 36.5534 47.8232 36.5724 47.7425 36.5654C45.5044 36.3695 43.271 36.2028 41.0378 36.066C40.9472 36.0606 40.8647 36.034 40.7908 35.9792C40.7185 35.9258 40.685 35.8531 40.685 35.768ZM44.6372 32.932C44.7177 32.9379 44.7784 32.9975 44.8236 33.112C44.8236 33.1301 44.8501 33.1735 44.9093 33.248C44.966 33.3192 45.0305 33.3954 45.101 33.4739C45.1716 33.5523 45.2362 33.6222 45.2926 33.682C45.3471 33.7398 45.3833 33.7721 45.3934 33.7721C45.474 33.8048 45.5347 33.8407 45.5699 33.8817C45.605 33.9226 45.6252 34.0028 45.6252 34.1241C45.6252 34.1405 45.5848 34.1683 45.5093 34.2059C45.4337 34.2434 45.344 34.2929 45.2471 34.3534C45.1475 34.4156 45.0547 34.4884 44.9597 34.5776C44.8683 34.6634 44.8012 34.7701 44.7583 34.8969C44.7358 34.9633 44.6574 34.9912 44.5112 34.9804C44.3902 34.9716 44.2916 34.9162 44.2137 34.8216C44.1355 34.7265 44.0126 34.6013 43.8508 34.4449C43.8314 34.4264 43.7847 34.3649 43.7248 34.2633C43.6639 34.1603 43.5846 34.0838 43.4777 34.0357C43.3377 33.9725 43.261 33.9014 43.261 33.8177C43.261 33.7473 43.3066 33.6906 43.4021 33.6394C43.493 33.5908 43.6033 33.5336 43.7248 33.4739C43.8502 33.4125 43.9678 33.3496 44.0826 33.2792C44.1945 33.2106 44.2616 33.1212 44.3146 33.0253C44.3576 32.9473 44.4052 32.9147 44.4355 32.9173C44.501 32.9227 44.5668 32.9269 44.6372 32.932ZM45.2875 39.1607C45.2875 39.0314 45.2573 38.8971 45.2068 38.7596C45.1564 38.6221 45.084 38.4992 44.99 38.383C44.8974 38.2684 44.7946 38.1716 44.6775 38.098C44.5577 38.0226 44.4305 37.9812 44.2994 37.9704C44.1736 37.9601 44.0567 37.9889 43.9415 38.0589C43.8301 38.1264 43.7271 38.2276 43.6339 38.3585C43.5407 38.4895 43.4651 38.6426 43.4071 38.8218C43.3493 39.001 43.3264 39.2034 43.3264 39.426C43.3264 39.5113 43.3826 39.5839 43.503 39.6505C43.6192 39.7148 43.7547 39.7706 43.9012 39.8157C44.0522 39.8623 44.1986 39.8964 44.3347 39.9205C44.4757 39.9453 44.5668 39.9596 44.6069 39.9631C44.6775 39.9693 44.7481 39.9766 44.8236 39.9827C44.8841 39.9877 44.9393 39.9829 44.99 39.9713C45.045 39.9585 45.0892 39.9253 45.1363 39.8746C45.1849 39.8224 45.2222 39.7405 45.2471 39.6274C45.2725 39.5129 45.2875 39.3622 45.2875 39.1738C45.2875 39.1689 45.2875 39.1657 45.2875 39.1607ZM52.7585 42.1442C52.7585 42.6157 52.4958 42.9552 51.977 43.161C51.7449 43.253 51.4629 43.3117 51.1351 43.3362C50.8075 43.3607 50.495 43.3572 50.1976 43.3215C49.8146 43.2755 49.4766 43.2221 49.1742 43.161C48.8768 43.101 48.6342 43.0028 48.4483 42.8647C48.2664 42.7295 48.1382 42.5411 48.0702 42.2997C48.0022 42.0581 48.021 41.7413 48.0803 41.3402C48.0915 41.2642 48.0882 41.214 48.1105 41.2011C48.1389 41.1844 48.1911 41.1715 48.2567 41.1518C48.3223 41.1322 48.408 41.1208 48.5138 41.1143C48.6247 41.3172 48.7423 41.5029 48.8617 41.6776C48.9793 41.8499 49.1249 42.0368 49.3003 42.2391C49.4979 42.4674 49.6931 42.6362 49.895 42.7386C50.0963 42.8406 50.2683 42.8981 50.4093 42.9154C50.495 42.9259 50.5858 42.9202 50.6815 42.8974C50.7772 42.8747 50.8721 42.8351 50.9588 42.7861C51.0484 42.7354 51.1199 42.6678 51.1756 42.583C51.2307 42.4993 51.2614 42.4012 51.2614 42.2883C51.2614 42.1392 51.2109 42.0048 51.1051 41.8838C50.9992 41.7626 50.8779 41.6481 50.732 41.5383C50.5908 41.432 50.4335 41.3336 50.2732 41.2453C50.116 41.1587 49.9762 41.0803 49.8648 41.016C49.7697 40.961 49.6375 40.8839 49.4616 40.7818C49.2848 40.6793 49.114 40.5586 48.9474 40.4199C48.7814 40.282 48.6338 40.1225 48.5037 39.9385C48.3768 39.7592 48.3121 39.5586 48.3121 39.3426C48.3121 39.1182 48.368 38.9203 48.4735 38.7497C48.5797 38.5782 48.7554 38.4262 48.9928 38.2947C49.219 38.1692 49.4619 38.0743 49.7237 38.0015C49.9859 37.9286 50.238 37.9065 50.4748 37.931C50.7419 37.9588 50.9692 38.0025 51.1604 38.0637C51.3521 38.1252 51.5083 38.1631 51.6293 38.1766C51.8157 38.1974 51.9469 38.2487 52.0175 38.3306C52.088 38.4123 52.1436 38.5222 52.1737 38.6565C52.2039 38.7905 52.2292 38.9448 52.2493 39.1231C52.2693 39.2999 52.3249 39.4899 52.4208 39.6912C52.4208 39.7371 52.3989 39.7724 52.3551 39.8025C52.3132 39.8314 52.2694 39.8446 52.219 39.8386C52.0125 39.8136 51.8421 39.7285 51.7251 39.5718C51.6709 39.4993 51.6105 39.3957 51.5334 39.2753C51.4544 39.1517 51.3579 39.0305 51.2462 38.9103C51.1312 38.7867 51.0037 38.6783 50.858 38.5844C50.7165 38.4934 50.55 38.4353 50.3639 38.4158C50.2225 38.401 50.0769 38.4427 49.9254 38.5435C49.7745 38.6439 49.7035 38.8071 49.7035 39.033C49.7035 39.1443 49.7388 39.2541 49.8094 39.3573C49.8799 39.4603 49.9753 39.5577 50.0866 39.6471C50.202 39.7394 50.3243 39.8229 50.4597 39.9042C50.5915 39.9832 50.7271 40.0578 50.858 40.1235C50.994 40.192 51.1699 40.2884 51.3822 40.4086C51.5982 40.5307 51.8104 40.6729 52.0073 40.8342C52.2084 40.9986 52.3872 41.1884 52.5367 41.409C52.6845 41.6271 52.7585 41.8691 52.7585 42.1311C52.7585 42.1359 52.7585 42.1409 52.7585 42.1442ZM47.1376 36.2248C47.1376 36.1398 47.1665 36.0691 47.2283 36.0201C47.2923 35.9694 47.3644 35.9486 47.4452 35.9562C49.4413 36.145 51.4386 36.3442 53.439 36.5752C53.5207 36.5846 53.5904 36.6326 53.6457 36.6964C53.7011 36.7601 53.7314 36.8307 53.7314 36.9093C53.7314 36.9977 53.7011 37.0648 53.6457 37.1106C53.5903 37.1565 53.5197 37.1738 53.439 37.1647C51.4379 36.9382 49.4414 36.728 47.4452 36.5375C47.3646 36.53 47.2927 36.4995 47.2283 36.441C47.1668 36.385 47.1376 36.3117 47.1376 36.2248ZM10.6954 45.7827C12.1188 45.6532 13.5424 45.5307 14.966 45.4168C14.7463 45.3734 14.5227 45.3242 14.2944 45.2699C13.8816 45.1718 13.4575 45.0774 13.0141 44.9884C12.5705 44.8991 12.1117 44.8771 11.6379 44.9195C11.6076 44.9049 11.5926 44.8523 11.5875 44.7591C11.5826 44.6691 11.5875 44.5987 11.6076 44.5512C11.6076 44.5069 11.6242 44.4653 11.668 44.4481C11.8517 44.3751 12.0055 44.326 12.1167 44.2827C12.2322 44.2377 12.3175 44.1958 12.3789 44.1599C12.4435 44.1224 12.4848 44.0844 12.5099 44.0403C12.535 43.9961 12.5466 43.9435 12.5503 43.8815C12.5564 43.7813 12.5805 43.5456 12.6108 43.1742C12.6408 42.8041 12.6562 42.3029 12.6562 41.6759C12.6562 40.6933 12.6562 39.711 12.6562 38.7269C12.6562 38.3929 12.6512 38.1226 12.641 37.9212C12.6309 37.7198 12.6208 37.5578 12.6108 37.4398C12.6007 37.322 12.5907 37.2415 12.5805 37.1926C12.5708 37.1467 12.5603 37.114 12.5503 37.0993C12.5401 37.047 12.5247 37.0011 12.5099 36.965C12.4946 36.9274 12.4495 36.9053 12.3638 36.9011C12.2832 36.8972 12.1769 36.8608 12.0411 36.793C11.9047 36.7248 11.7234 36.69 11.4867 36.68C11.4561 36.6788 11.4494 36.6561 11.4563 36.6178C11.4743 36.5186 11.4917 36.4187 11.5017 36.3165C11.5068 36.2644 11.5269 36.2344 11.5773 36.2266C11.7435 36.2002 11.9155 36.1755 12.0865 36.1495C12.3235 36.1134 12.6208 36.0712 12.9839 36.0317C13.3416 35.9927 13.8047 35.9585 14.3551 35.8531C15.5498 35.6245 16.7287 35.321 17.9241 35.1113C18.4941 35.0114 18.9275 34.9843 19.1995 34.9361C19.4718 34.8879 19.6324 34.9153 19.6835 35.0246C19.7331 35.1311 19.7004 35.3464 19.5776 35.6649C19.4536 35.9864 19.27 36.4868 19.0331 37.1712C18.8013 37.2089 18.6552 37.2197 18.6048 37.2041C18.5546 37.1887 18.5103 37.1631 18.4938 37.1205C18.3995 36.878 18.3152 36.6727 18.2317 36.5014C18.149 36.3324 18.0566 36.1953 17.9493 36.0955C17.84 35.9941 17.7068 35.9322 17.551 35.9023C17.3996 35.8734 17.2066 35.861 16.9814 35.9023C16.5561 35.9804 16.2096 36.0612 15.9328 36.1151C15.6553 36.1692 15.4288 36.2173 15.2623 36.2527C15.0911 36.2892 14.96 36.3165 14.8743 36.3378C14.7886 36.3592 14.7223 36.3696 14.6828 36.3787C14.5457 36.4103 14.4659 36.4805 14.4408 36.5769C14.4156 36.6735 14.4054 36.7685 14.4054 36.8667C14.4054 37.3694 14.4054 37.8738 14.4054 38.3765C14.4054 38.9053 14.4134 39.395 14.4205 39.842C14.4232 40.0105 14.4756 40.0818 14.5869 40.0728C14.8587 40.0509 15.1326 40.0486 15.4086 40.0188C15.677 39.9898 15.9328 39.954 16.185 39.9369C16.4369 39.9197 16.679 39.8795 16.9058 39.8124C17.1325 39.7453 17.3441 39.6366 17.5461 39.4882C17.7473 39.3405 17.9297 39.1151 18.0955 38.8136C18.1161 38.7762 18.1964 38.741 18.3325 38.7106C18.4735 38.6789 18.5844 38.6679 18.6652 38.6745C18.519 39.2459 18.3797 39.6842 18.2417 39.991C18.1027 40.2997 17.9592 40.5182 17.8183 40.6492C17.672 40.785 17.5209 40.8474 17.3595 40.8424C17.2034 40.8377 17.0272 40.8116 16.8453 40.7622C16.6592 40.7118 16.4575 40.6638 16.2404 40.6148C16.0241 40.5658 15.7814 40.56 15.5144 40.5984C15.2372 40.6384 15.0405 40.6694 14.9297 40.6902C14.8138 40.7118 14.733 40.7294 14.6828 40.7458C14.5869 40.7767 14.5347 40.8256 14.5113 40.8899C14.4943 40.937 14.4661 41.0718 14.4408 41.2976C14.4158 41.5219 14.4054 41.8985 14.4054 42.4274C14.4054 42.6468 14.4028 42.8632 14.3903 43.0709C14.3778 43.2823 14.3802 43.4706 14.3954 43.6409C14.4104 43.8094 14.4458 43.9519 14.4962 44.0682C14.5466 44.1844 14.6376 44.2538 14.7583 44.2794C15.1214 44.3567 15.4541 44.408 15.7614 44.4332C16.069 44.4587 16.3665 44.4383 16.6438 44.3711C16.921 44.3041 17.194 44.1821 17.4705 44.0026C17.7432 43.8254 18.02 43.5704 18.3124 43.2413C18.3425 43.2281 18.4036 43.2342 18.5039 43.261C18.6 43.2867 18.6702 43.3051 18.7106 43.3182C18.7307 43.3329 18.7407 43.3444 18.7357 43.3542C18.7307 43.3641 18.7183 43.3933 18.6954 43.4378C18.3706 44.0712 18.0297 44.5429 17.6822 44.8558C17.5054 45.0151 17.326 45.1465 17.1432 45.2494C18.171 45.1738 19.1989 45.103 20.2268 45.0377C20.2259 45.0454 20.2254 45.0533 20.2254 45.0613V49.9904C19.7984 50.0856 19.4781 50.4675 19.4781 50.9231C19.4781 51.4209 19.8622 51.8262 20.3479 51.8699V52.0819H20.0987V53.0499C19.9493 53.1559 19.8509 53.3291 19.8509 53.5261C19.8509 53.726 19.9518 53.9022 20.1046 54.0077C19.8818 54.1259 19.7281 54.3575 19.7281 54.6283C19.7281 54.8712 19.8501 55.0849 20.0372 55.2124C19.7743 55.6385 19.3869 55.9831 18.8158 56.1268C18.8158 56.1268 16.8508 56.5616 17.0317 57.9379H16.935C16.7089 57.9379 16.5248 58.1216 16.5248 58.3477C16.5248 58.5736 16.7089 58.7573 16.935 58.7573H17.0413V66.4231H16.935C16.7089 66.4231 16.5248 66.6068 16.5248 66.8331C16.5248 67.0596 16.7089 67.2428 16.935 67.2428H17.5515C17.742 67.3024 17.8803 67.4778 17.8803 67.6865C17.8803 67.9447 17.6711 68.1538 17.4126 68.1538H17.0343C16.8129 69.5603 18.8158 70.0022 18.8158 70.0022C19.3358 70.1326 19.7026 70.4313 19.9621 70.805C19.8189 70.9336 19.7281 71.119 19.7281 71.3273C19.7281 71.7171 20.0434 72.0329 20.4334 72.0329C20.8232 72.0329 21.1395 71.7171 21.1395 71.3273C21.1395 71.119 21.0477 70.934 20.9054 70.805C21.1656 70.4313 21.5318 70.1326 22.0508 70.0022C22.0508 70.0022 24.0543 69.5603 23.8332 68.1538H23.455C23.1963 68.1538 22.9873 67.9447 22.9873 67.6865C22.9873 67.4778 23.1254 67.3024 23.315 67.2428H23.9324C24.1586 67.2428 24.3426 67.0596 24.3426 66.8331C24.3426 66.6068 24.1586 66.4231 23.9324 66.4231H23.8257V58.7573H23.9324C24.1586 58.7573 24.3426 58.5736 24.3426 58.3477C24.3426 58.1216 24.1586 57.9379 23.9324 57.9379H23.8357C24.0166 56.5616 22.0508 56.1268 22.0508 56.1268C21.4797 55.9831 21.0931 55.6382 20.8303 55.2121C21.0173 55.0849 21.1395 54.8712 21.1395 54.6283C21.1395 54.3575 20.9856 54.1259 20.762 54.0077C20.9156 53.9022 21.0156 53.726 21.0156 53.5261C21.0156 53.3291 20.9183 53.1559 20.7687 53.0499V52.0819H20.5187V51.8699C21.0052 51.8262 21.3884 51.4209 21.3884 50.9231C21.3884 50.4679 21.069 50.086 20.642 49.9905V45.0613C20.642 45.0443 20.6399 45.0278 20.6361 45.012C24.9204 44.7457 29.2049 44.5753 33.4888 44.5418C33.4919 44.5291 33.4961 44.5169 33.5012 44.5053C33.5668 44.4857 33.6346 44.473 33.7029 44.4447C34.0176 44.3145 34.2537 44.1644 34.4238 43.9994C34.5914 43.8369 34.7142 43.6741 34.7917 43.5147C34.8703 43.3533 34.9129 43.2086 34.9179 43.0774C34.9229 42.9466 34.927 42.8495 34.9229 42.7909C34.907 42.5696 34.8671 42.244 34.817 41.815C34.7665 41.3829 34.7085 40.9058 34.6407 40.3824C34.5725 39.8563 34.5018 39.3109 34.4238 38.7464C34.3455 38.1797 34.275 37.6463 34.2122 37.1484C34.1491 36.6494 34.096 36.215 34.0507 35.8466C34.0054 35.4784 33.9753 35.2275 33.9651 35.0918C33.9554 34.964 33.9396 34.8626 33.9197 34.7871C33.8994 34.7104 33.8545 34.6507 33.7886 34.6071C33.7235 34.5641 33.6222 34.5295 33.4962 34.5055C33.3653 34.4805 33.1837 34.4581 32.9467 34.4351C32.9368 34.4007 32.9369 34.3517 32.9467 34.2877C32.9569 34.2224 32.9743 34.1606 32.9922 34.0994C33.0043 34.0574 33.0627 34.0328 33.1636 34.029C33.1937 34.028 33.2794 34.0257 33.4105 34.0242C33.5465 34.0225 33.6979 34.0182 33.8743 34.011C34.0607 34.0036 34.2524 34.0027 34.454 34.0011C34.6555 33.9996 34.8337 34.0125 34.9885 33.9915C36.2461 33.8193 37.4957 33.6019 38.7542 33.4904C39.0304 33.466 39.2689 33.5175 39.4649 33.5542C39.6619 33.5911 39.8282 33.6337 39.9641 33.677C40.1053 33.7219 40.2262 33.7675 40.327 33.8129C40.4327 33.8606 40.5387 33.9046 40.6547 33.9439C40.6446 34.1535 40.6194 34.3663 40.5841 34.5776C40.5488 34.7888 40.5084 34.982 40.4681 35.1589C40.4278 35.3356 40.3903 35.4859 40.3573 35.614C40.3248 35.7396 40.3119 35.8286 40.3119 35.8793C40.3119 35.912 40.3026 35.9391 40.2816 35.9562C40.2622 35.972 40.2108 35.9735 40.1305 35.9613C39.9641 35.936 39.8633 35.9164 39.8329 35.9023C39.8031 35.8887 39.7793 35.8704 39.7725 35.8433C39.6886 35.5085 39.5776 35.2442 39.4347 35.0575C39.2906 34.8694 39.1048 34.7454 38.8903 34.666C38.7067 34.598 38.4919 34.5442 38.245 34.5203C37.9982 34.4967 37.6449 34.486 37.1964 34.481C37.0704 34.4797 36.9443 34.4769 36.8233 34.4762C36.7228 34.4755 36.6318 34.4799 36.5513 34.4891C36.4757 34.4978 36.405 34.5066 36.3394 34.5105C36.269 34.5146 36.1933 34.5269 36.1126 34.5449C36.0319 34.5629 35.9714 34.6006 35.9362 34.6611C35.9011 34.7217 35.8711 34.8496 35.8504 35.0443C35.8209 35.3242 35.8153 35.6698 35.8354 36.0807C35.8555 36.4917 35.8833 36.8932 35.926 37.2826C35.9689 37.6724 36.0043 38.0117 36.042 38.2995C36.0797 38.5881 36.1074 38.7419 36.1126 38.7677C36.1276 38.8438 36.1482 38.8936 36.1883 38.9134C36.2337 38.936 36.2891 38.9431 36.3697 38.9381C36.4453 38.9334 36.5459 38.9172 36.667 38.8956C36.7929 38.8732 36.9342 38.8515 37.1007 38.83C37.2868 38.806 37.4637 38.782 37.625 38.7596C37.7912 38.7364 37.9328 38.6943 38.0534 38.6318C38.1696 38.5717 38.263 38.4831 38.3357 38.3667C38.4091 38.249 38.4516 38.0947 38.4618 37.9C38.4718 37.8852 38.5171 37.8632 38.598 37.8409C38.6834 37.8175 38.7743 37.7989 38.8752 37.7853C38.9808 37.7711 39.0767 37.7615 39.1624 37.7558C39.248 37.7502 39.3037 37.7558 39.3238 37.7755C39.344 37.877 39.354 38.0031 39.3489 38.1505C39.344 38.2993 39.324 38.4502 39.2936 38.6024C39.2636 38.7531 39.2175 38.8987 39.1624 39.0364C39.1067 39.1754 39.049 39.3033 38.9557 39.3801C38.8206 39.4914 38.6837 39.5276 38.5677 39.5276C38.4566 39.5276 38.3308 39.5071 38.1996 39.4702C38.0639 39.432 37.9019 39.396 37.7208 39.3606C37.5341 39.3241 37.2967 39.3151 37.0099 39.349C36.7726 39.3772 36.5914 39.4077 36.4705 39.426C36.3446 39.4452 36.266 39.4865 36.2236 39.5504C36.1802 39.6157 36.1681 39.7158 36.1831 39.8552C36.1982 39.9958 36.2281 40.2056 36.2688 40.4838C36.3086 40.7556 36.3395 40.9913 36.3545 41.1896C36.3697 41.3891 36.3825 41.5519 36.405 41.6791C36.4227 41.7793 36.4249 41.9215 36.405 42.1032C36.3848 42.2864 36.3414 42.4904 36.2688 42.7107C36.1954 42.934 36.0942 43.1638 35.9613 43.4018C35.8271 43.6419 35.6585 43.8648 35.4573 44.0715C35.2919 44.2413 35.0999 44.3977 34.8808 44.5359L35.0134 44.5358C39.6936 44.5354 44.3764 44.7049 49.0597 44.9905C49.0698 44.9589 49.0916 44.925 49.1237 44.8885C49.1687 44.8375 49.2247 44.8081 49.2851 44.8099C49.3256 44.8111 49.391 44.7934 49.4766 44.7427C49.5622 44.692 49.6523 44.6349 49.7388 44.574C49.8286 44.5107 49.9093 44.45 49.9808 44.3956C50.0556 44.3389 50.0981 44.303 50.1069 44.2875C50.1484 44.2146 50.1926 44.1789 50.2329 44.1844C50.2984 44.1935 50.3641 44.2006 50.4346 44.2089C50.5151 44.2184 50.5807 44.2842 50.621 44.4022C50.621 44.4202 50.6513 44.4663 50.7067 44.543C50.7621 44.6199 50.8329 44.697 50.9034 44.7756C50.9738 44.8542 51.041 44.9266 51.0999 44.9967C51.1567 45.0642 51.1907 45.0981 51.2008 45.0998C51.2239 45.1105 51.2453 45.1218 51.2649 45.1332C53.9572 45.3175 56.6494 45.5374 59.3413 45.7827V45.7002V45.6176V45.6175V45.5351V45.4525V45.4522V45.3699V45.2873V45.2868V45.2047V45.1222V45.1215V45.0395V44.9569V44.9563V44.8743V44.7917V44.791V44.7091V44.6265V44.6256V44.5439V44.4613V44.4603V44.3787V44.2961V44.2951V44.2134V44.1308V44.1297V44.0482V43.9656V43.9644V43.883V43.8003V43.7991V43.7177V43.635V43.6338V43.5524V43.4698V43.4685V43.3871V43.3045V43.3032V43.2218V43.1392V43.1379V43.0566V42.9739V42.9725V42.8913V42.8087V42.8072V42.726V42.6433V42.642V42.5607V42.4781V42.4766V42.3954V42.3128V42.3113V42.2301V42.1475V42.146V42.0648V41.9822V41.9807V41.8995V41.8169V41.8154V41.7343V41.6516V41.6501V41.569V41.4864V41.4848V41.4037V41.3211V41.3195V41.2384V41.1557V41.1542V41.0731V40.9905V40.9889V40.9079V40.8252V40.8235V40.7426V40.6599V40.6582V40.5773V40.4947V40.4929V40.4121V40.3296V40.3276V40.247V40.1643V40.1623V40.0818V39.9992V39.997V39.9166V39.834V39.8317V39.7514V39.6688V39.6664V39.5861V39.5035V39.5011V39.4209V39.3382V39.3358V39.2556V39.173V39.1705V39.0904V39.0077V39.0052V38.9251V38.8424V38.8399V38.7597V38.6771V38.6745V38.5944V38.5117V38.5092V38.4291V38.3464V38.3439V38.2637V38.181V38.1786V38.0984V38.0157V38.0133V37.933V37.8503V37.848V37.7676V37.6849V37.6827V37.6022V37.5195V37.5174V37.4369V37.3542V37.3521V37.2715V37.1888V37.1868V37.1061V37.0234V37.0215V36.9407V36.858V36.8562V36.7753V36.6925V36.6908V36.6099V36.5271V36.5255V36.4445V36.3618V36.3602V36.2791V36.1964V36.1949V36.1136V36.031V36.0296V35.9483V35.8656V35.8643V35.7829V35.7002V35.699V35.6175V35.5348V35.5337V35.4521V35.3694V35.3684V35.2867V35.204V35.2031C58.1345 35.0039 56.9458 34.8179 55.7726 34.6452C55.789 34.6634 55.8069 34.6817 55.8285 34.7021C55.8558 34.7277 55.8688 34.7429 55.879 34.7429C55.8839 34.7429 55.8889 34.744 55.8941 34.7446C55.9543 34.752 55.9848 34.8117 55.9848 34.9263C55.9848 34.9886 55.9846 35.0688 55.9798 35.1687C55.9748 35.27 55.9645 35.3718 55.9544 35.4766C55.9445 35.5812 55.9344 35.6764 55.9294 35.7647C55.9245 35.8514 55.9254 35.9138 55.9243 35.9498C55.9154 36.2559 55.9041 36.5622 55.8941 36.87C56.5141 36.9504 57.1355 37.0209 57.7592 37.1123C57.8169 37.1208 57.8615 37.1671 57.9105 37.2335C57.9571 37.2964 57.9761 37.3678 57.9761 37.4463C57.9761 37.5347 57.9575 37.6052 57.9105 37.6511C57.8618 37.6986 57.8152 37.7159 57.7592 37.7083C57.1295 37.6228 56.504 37.543 55.879 37.4627C55.879 37.5201 55.879 37.5773 55.879 37.6331C55.879 37.9589 55.8738 38.3256 55.8688 38.7351C55.8638 39.1425 55.8638 39.5767 55.8638 40.0351C55.8638 40.4838 55.8638 40.9097 55.8688 41.309C55.8738 41.7103 55.879 42.0607 55.879 42.3603C55.879 42.5617 55.879 42.7647 55.879 42.9678C55.879 43.0988 55.9136 43.2335 55.9848 43.3722C56.0546 43.5085 56.1476 43.6313 56.257 43.7407C56.364 43.8474 56.4843 43.9346 56.62 43.9977C56.7514 44.0588 56.887 44.0815 57.0182 44.0682C57.0936 44.0605 57.1389 44.0527 57.1593 44.042C57.1792 44.0315 57.2 44.0518 57.2199 44.0977C57.2402 44.145 57.2551 44.1928 57.2653 44.245C57.275 44.2941 57.2803 44.3399 57.2803 44.3841C57.2803 44.4627 57.2479 44.4986 57.1896 44.5168C56.9797 44.5822 56.8367 44.6478 56.7409 44.6838C56.6503 44.7181 56.5747 44.7409 56.5092 44.7494C56.4488 44.7571 56.3727 44.7562 56.2772 44.7427C56.1307 44.722 55.9895 44.7001 55.8486 44.6805C55.662 44.6544 55.4457 44.5828 55.1983 44.4693C54.9468 44.3537 54.7366 44.2014 54.5782 43.9994C54.4645 43.8544 54.3989 43.7073 54.3666 43.5638C54.3335 43.4176 54.3206 43.251 54.3312 43.0596C54.3407 42.8925 54.3516 42.6157 54.3566 42.2277C54.3616 41.8364 54.3666 41.3975 54.3666 40.9062C54.3666 40.3021 54.3666 39.6963 54.3666 39.092C54.3666 38.4878 54.3666 37.8803 54.3666 37.2745C53.9431 37.2253 53.5197 37.1738 53.0962 37.1238C53.0359 37.1166 52.9799 37.0848 52.93 37.0272C52.8792 36.9686 52.8493 36.8946 52.8493 36.8062C52.8493 36.7194 52.8795 36.6505 52.93 36.5998C52.9802 36.5491 53.0359 36.5274 53.0962 36.5344C53.5247 36.5846 53.9532 36.6358 54.3817 36.685C54.3817 36.5098 54.3817 36.3345 54.3817 36.1578C54.3817 36.1331 54.3766 36.0742 54.3716 35.9858C54.3666 35.8975 54.3566 35.8073 54.3414 35.7123C54.3263 35.6174 54.3059 35.5306 54.2858 35.4504C54.2656 35.3685 54.2397 35.3303 54.2104 35.3225C54.1284 35.3007 54.0333 35.2548 53.9229 35.1982C53.8167 35.1437 53.7264 35.1065 53.6558 35.0884C53.6357 35.0688 53.6106 35.0311 53.5903 34.9755C53.5704 34.9215 53.5689 34.8833 53.5903 34.8707C53.7049 34.8032 53.8375 34.7622 53.9885 34.7397C54.1349 34.7181 54.3012 34.6993 54.4776 34.6906C54.659 34.6814 54.8455 34.6707 55.037 34.6627C55.2022 34.6558 55.3606 34.6374 55.5148 34.6074C54.0708 34.3966 52.6504 34.2061 51.2492 34.0359V25.4687C51.2492 24.1552 50.2949 24.0707 50.2949 24.0707C52.8547 21.1207 49.7895 18.4792 46.7254 16.7677C43.6605 18.4792 40.5962 21.1207 43.1555 24.0707C43.1555 24.0707 42.2008 24.1552 42.2008 25.4687V33.2063C41.6662 33.1744 41.1332 33.1458 40.6016 33.1206V20.8515C40.6016 19.2307 39.424 19.1256 39.424 19.1256C42.5835 15.4849 38.8004 12.2256 35.0186 10.1128C31.2358 12.2256 27.4535 15.4849 30.6131 19.1256C30.6131 19.1256 29.4337 19.2307 29.4337 20.8515V31.9728C29.9222 32.0298 30.3727 32.1814 30.784 32.4259C30.8598 32.3883 30.9352 32.4426 31.011 32.593C31.0862 32.7421 31.1218 32.9355 31.1168 33.1743C31.1118 33.415 31.1065 33.6197 31.1017 33.7899C31.0967 33.9601 31.0914 34.2174 31.0866 34.5579C31.0816 34.9 31.0765 35.2457 31.0664 35.5946C31.5755 35.5667 32.0844 35.5252 32.5939 35.5076C32.6948 35.5041 32.7847 35.5449 32.8611 35.5994C32.9408 35.6563 32.977 35.7205 32.977 35.7991C32.977 35.8908 32.9403 35.9644 32.8611 36.0201C32.7842 36.0741 32.6945 36.1036 32.5939 36.1086C32.0847 36.1345 31.5755 36.166 31.0664 36.197C31.0513 36.7603 31.0461 37.2941 31.0411 37.7968C31.0361 38.301 31.0311 38.7072 31.0311 39.0134C31.0311 39.4916 31.0311 39.9697 31.0311 40.4461C31.0311 40.5559 31.0361 40.7197 31.0411 40.9307C31.0461 41.1453 31.0513 41.3649 31.0563 41.5891C31.0613 41.815 31.0664 42.069 31.0714 42.3505C31.0762 42.6304 31.175 42.8559 31.3639 43.0218C31.5529 43.1881 31.8074 43.2413 32.115 43.1855C32.1654 43.3281 32.1905 43.4475 32.1905 43.5491C32.1905 43.5933 32.1698 43.6197 32.12 43.6375C32.0741 43.6539 32.0142 43.6741 31.9436 43.6964C31.8126 43.738 31.6161 43.775 31.3639 43.8012C31.112 43.8272 30.8951 43.8324 30.7084 43.8225C30.5221 43.8128 30.3501 43.7879 30.1892 43.7456C30.0327 43.7045 29.9272 43.6845 29.8767 43.6883C29.8214 43.6925 29.781 43.6422 29.7456 43.5328C29.7106 43.4247 29.6748 43.3019 29.6499 43.1692C29.6245 43.0335 29.6043 42.9022 29.5894 42.7763C29.5743 42.6486 29.5545 42.5708 29.5491 42.5355C29.5345 42.4428 29.5288 42.3421 29.5188 42.2358C29.5088 42.1294 29.5036 42.0164 29.5036 41.8969C28.8585 42.7402 28.3539 43.2425 28.0014 43.3951C27.6434 43.5502 27.4115 43.6342 27.2957 43.6457C26.4134 43.0055 25.8441 42.5972 25.5968 42.4259C25.3502 42.2551 25.1556 42.0256 25.017 41.7331C24.8786 41.4412 24.8103 41.1405 24.8103 40.8293C24.8103 40.8244 24.8103 40.8195 24.8103 40.8161C24.8103 40.4871 24.8926 40.1422 25.0523 39.7732C25.21 39.4087 25.4878 39.0595 25.874 38.7253C26.0722 38.5537 26.4192 38.2659 26.9125 37.8688C27.4071 37.4704 27.6686 37.2513 27.6989 37.2056C27.729 37.1599 27.8948 37.1982 28.198 37.3137C28.5046 37.4304 28.7425 37.4872 28.9087 37.4857C29.08 37.484 29.2176 37.4863 29.3171 37.5103C29.4346 37.5386 29.483 37.5101 29.4885 37.4071C29.4931 37.3215 29.5088 37.2024 29.5138 37.047C29.5188 36.8931 29.5188 36.7488 29.5188 36.6113C29.5188 36.5081 29.5188 36.4066 29.5188 36.3018C27.7948 36.4378 26.0706 36.5877 24.3466 36.7538C24.2358 36.7644 24.1302 36.7497 24.039 36.7062C23.9487 36.6631 23.8978 36.595 23.8978 36.5014C23.8978 36.4133 23.9487 36.335 24.039 36.2658C24.1302 36.1959 24.2357 36.1534 24.3466 36.143C26.0704 35.98 27.7948 35.832 29.5188 35.6993C29.5188 34.8953 29.4331 34.1305 29.2567 33.4068C29.2358 33.3213 29.215 33.2408 29.1943 33.1651C28.8174 33.1837 28.4406 33.2039 28.0637 33.2258L27.85 33.245L27.8352 32.7352V25.4687C27.8352 24.1552 26.8808 24.0707 26.8808 24.0707C29.4406 21.1207 26.3755 18.4792 23.3113 16.7677C20.2465 18.4792 17.1821 21.1207 19.7415 24.0707C19.7415 24.0707 18.7868 24.1552 18.7868 25.4687V33.9812C16.1559 34.3076 13.4691 34.7144 10.6954 35.2031V35.204V35.2867V35.3684V35.3694V35.4521V35.5337V35.5348V35.6175V35.699V35.7002V35.7829V35.8643V35.8656V35.9483V36.0296V36.031V36.1136V36.1949V36.1964V36.2791V36.3602V36.3618V36.4445V36.5255V36.5271V36.6099V36.6908V36.6925V36.7753V36.8562V36.858V36.9407V37.0215V37.0234V37.1061V37.1868V37.1888V37.2715V37.3521V37.3542V37.4369V37.5174V37.5195V37.6022V37.6827V37.6849V37.7676V37.848V37.8503V37.933V38.0133V38.0157V38.0984V38.1786V38.181V38.2637V38.3439V38.3464V38.4291V38.5092V38.5117V38.5944V38.6745V38.6771V38.7597V38.8399V38.8424V38.9251V39.0052V39.0077V39.0904V39.1705V39.173V39.2556V39.3358V39.3382V39.4209V39.5011V39.5035V39.5861V39.6664V39.6688V39.7514V39.8317V39.834V39.9166V39.997V39.9992V40.0818V40.1623V40.1643V40.247V40.3276V40.3296V40.4121V40.4929V40.4947V40.5773V40.6582V40.6599V40.7426V40.8235V40.8252V40.9079V40.9889V40.9905V41.0731V41.1542V41.1557V41.2384V41.3195V41.3211V41.4037V41.4848V41.4864V41.569V41.6501V41.6516V41.7343V41.8154V41.8169V41.8995V41.9807V41.9822V42.0648V42.146V42.1475V42.2301V42.3113V42.3128V42.3954V42.4766V42.4781V42.5607V42.642V42.6433V42.726V42.8072V42.8087V42.8913V42.9725V42.9739V43.0566V43.1379V43.1392V43.2218V43.3032V43.3045V43.3871V43.4685V43.4698V43.5524V43.6338V43.635V43.7177V43.7991V43.8003V43.883V43.9644V43.9656V44.0482V44.1297V44.1308V44.2134V44.2951V44.2961V44.3787V44.4603V44.4613V44.5439V44.6256V44.6265V44.7091V44.791V44.7917V44.8743V44.9563V44.9569V45.0395V45.1215V45.1222V45.2047V45.2868V45.2873V45.3699V45.4522V45.4525V45.5351V45.6175V45.6176V45.7002V45.7827ZM49.3939 45.3504V49.9904C48.9669 50.0856 48.6465 50.4675 48.6465 50.9231C48.6465 51.4209 49.0306 51.8262 49.5162 51.8699V52.0819H49.2671V53.0499C49.1177 53.1559 49.0193 53.3291 49.0193 53.5261C49.0193 53.726 49.1202 53.9022 49.273 54.0077C49.0502 54.1259 48.8966 54.3575 48.8966 54.6283C48.8966 54.8712 49.0184 55.0849 49.2056 55.2124C48.9427 55.6385 48.5553 55.9831 47.9843 56.1268C47.9843 56.1268 46.0193 56.5616 46.2001 57.9379H46.1034C45.8772 57.9379 45.6932 58.1216 45.6932 58.3477C45.6932 58.5736 45.8772 58.7573 46.1034 58.7573H46.2097V66.4231H46.1034C45.8772 66.4231 45.6932 66.6068 45.6932 66.8331C45.6932 67.0596 45.8772 67.2428 46.1034 67.2428H46.72C46.9104 67.3024 47.0487 67.4778 47.0487 67.6865C47.0487 67.9447 46.8395 68.1538 46.5809 68.1538H46.2026C45.9815 69.5603 47.9843 70.0022 47.9843 70.0022C48.5041 70.1326 48.8711 70.4313 49.1305 70.805C48.9873 70.9336 48.8966 71.119 48.8966 71.3273C48.8966 71.7171 49.2118 72.0329 49.6018 72.0329C49.9916 72.0329 50.3079 71.7171 50.3079 71.3273C50.3079 71.119 50.2162 70.934 50.0737 70.805C50.334 70.4313 50.7002 70.1326 51.2192 70.0022C51.2192 70.0022 53.2229 69.5603 53.0016 68.1538H52.6234C52.3647 68.1538 52.1557 67.9447 52.1557 67.6865C52.1557 67.4778 52.2938 67.3024 52.4834 67.2428H53.1008C53.327 67.2428 53.511 67.0596 53.511 66.8331C53.511 66.6068 53.327 66.4231 53.1008 66.4231H52.9942V58.7573H53.1008C53.327 58.7573 53.511 58.5736 53.511 58.3477C53.511 58.1216 53.327 57.9379 53.1008 57.9379H53.0041C53.1849 56.5616 51.2192 56.1268 51.2192 56.1268C50.648 55.9831 50.2614 55.6382 49.9986 55.2121C50.1857 55.0849 50.3079 54.8712 50.3079 54.6283C50.3079 54.3575 50.154 54.1259 49.9305 54.0077C50.084 53.9022 50.184 53.726 50.184 53.5261C50.184 53.3291 50.0867 53.1559 49.9371 53.0499V52.0819H49.6871V51.8699C50.1737 51.8262 50.5568 51.4209 50.5568 50.9231C50.5568 50.4679 50.2375 50.086 49.8104 49.9905V45.8787C49.7595 45.8237 49.7021 45.7638 49.638 45.699C49.6182 45.6791 49.5774 45.6172 49.517 45.509C49.483 45.4484 49.4418 45.3949 49.3939 45.3504ZM49.6018 59.9235C49.129 59.9235 48.7449 60.3072 48.7449 60.7803V66.4231H50.4595V60.7803C50.4595 60.3072 50.0746 59.9235 49.6018 59.9235ZM51.9874 59.9235C51.6291 59.9235 51.3379 60.2144 51.3379 60.5726V66.4231H52.6355V60.5726C52.6355 60.2144 52.3459 59.9235 51.9874 59.9235ZM47.2162 59.9235C46.8582 59.9235 46.568 60.2144 46.568 60.5726V66.4231H47.8655V60.5726C47.8655 60.2144 47.5744 59.9235 47.2162 59.9235ZM36.1258 14.5528L36.9371 15.66L35.5717 15.5117L35.0186 16.7677L34.4645 15.5117L33.1002 15.66L33.9104 14.5528L33.1002 13.4451L34.4645 13.5934L35.0186 12.3379L35.5717 13.5934L36.9371 13.4451L36.1258 14.5528ZM33.069 30.6123H31.0017V26.0315C31.0017 25.4629 31.4668 24.9979 32.0354 24.9979C32.604 24.9979 33.069 25.4629 33.069 26.0315V30.6123ZM36.0516 30.6123H33.9843V26.0315C33.9843 25.4629 34.4493 24.9979 35.0179 24.9979C35.5865 24.9979 36.0516 25.4629 36.0516 26.0315V30.6123ZM39.034 30.6123H36.9668V26.0315C36.9668 25.4629 37.4318 24.9979 38.0004 24.9979C38.5691 24.9979 39.034 25.4629 39.034 26.0315V30.6123ZM26.5651 29.21H24.8906V25.4988C24.8906 25.0383 25.2673 24.6617 25.7278 24.6617H25.7279C26.1884 24.6617 26.5651 25.0383 26.5651 25.4988V29.21ZM24.1486 29.21H22.4742V25.4988C22.4742 25.0383 22.8508 24.6617 23.3113 24.6617H23.3114C23.772 24.6617 24.1486 25.0383 24.1486 25.4988V29.21ZM21.7322 29.21H20.0577V25.4988C20.0577 25.0383 20.4344 24.6617 20.8949 24.6617H20.895C21.3555 24.6617 21.7322 25.0383 21.7322 25.4988V29.21ZM49.9791 29.21H48.3046V25.4988C48.3046 25.0383 48.6813 24.6617 49.1417 24.6617H49.142C49.6024 24.6617 49.9791 25.0383 49.9791 25.4988V29.21ZM47.5627 29.21H45.8882V25.4988C45.8882 25.0383 46.2649 24.6617 46.7254 24.6617H46.7255C47.186 24.6617 47.5627 25.0383 47.5627 25.4988V29.21ZM45.1462 29.21H43.4717V25.4988C43.4717 25.0383 43.8484 24.6617 44.3089 24.6617H44.309C44.7695 24.6617 45.1462 25.0383 45.1462 25.4988V29.21ZM18.0852 50.4478H0L3.43983 45.4703L0 40.4929H10.003V45.7827V46.549L10.7654 46.4716C13.2033 46.2244 15.6435 46.0138 18.0852 45.8397V50.4478ZM60.0336 40.4929H70L66.6576 45.4703L70 50.4478H51.909V46.4549C51.9327 46.4207 51.9643 46.3843 52.002 46.3455C52.0676 46.2778 52.14 46.2156 52.214 46.1559C52.2857 46.0979 52.3537 46.0435 52.421 45.9998C52.4902 45.955 52.5382 45.9283 52.5671 45.9281C52.6288 45.9273 52.6653 45.914 52.6787 45.882C54.8771 46.0469 57.0742 46.2431 59.2696 46.4716L60.0336 46.551V45.7827V40.4929ZM10.8526 12.0275L11.3311 13.114L12.5108 12.9856L11.8102 13.9434L12.5108 14.9011L11.3311 14.7723L10.8526 15.8587L10.3734 14.7723L9.1937 14.9011L9.89485 13.9434L9.1937 12.9856L10.3734 13.114L10.8526 12.0275ZM18.1993 8.19726L18.6788 9.28286L19.8584 9.15502L19.1568 10.1128L19.8584 11.07L18.6788 10.9422L18.1993 12.0275L17.7211 10.9422L16.541 11.07L17.2417 10.1128L16.541 9.15502L17.7211 9.28286L18.1993 8.19726ZM25.547 4.36681L26.0255 5.45259L27.2052 5.32386L26.5045 6.28162L27.2052 7.23919L26.0255 7.11118L25.547 8.19726L25.0674 7.11118L23.8877 7.23919L24.5892 6.28162L23.8877 5.32386L25.0674 5.45259L25.547 4.36681ZM59.1847 12.0275L58.7056 13.114L57.5255 12.9856L58.227 13.9434L57.5255 14.9011L58.7056 14.7723L59.1847 15.8587L59.6633 14.7723L60.8433 14.9011L60.1423 13.9434L60.8433 12.9856L59.6633 13.114L59.1847 12.0275ZM51.8369 8.19726L51.3587 9.28286L50.179 9.15502L50.8793 10.1128L50.179 11.07L51.3587 10.9422L51.8369 12.0275L52.3164 10.9422L53.4961 11.07L52.7946 10.1128L53.4961 9.15502L52.3164 9.28286L51.8369 8.19726ZM44.4897 4.36681L44.011 5.45259L42.8314 5.32386L43.5325 6.28162L42.8314 7.23919L44.011 7.11118L44.4897 8.19726L44.9687 7.11118L46.149 7.23919L45.4478 6.28162L46.149 5.32386L44.9687 5.45259L44.4897 4.36681ZM36.0804 6.81481C33.7502 6.31016 32.2705 4.01126 32.7754 1.68114C32.912 1.05089 33.1807 0.483747 33.5447 0C32.4059 0.562362 31.5236 1.6191 31.2333 2.95756C30.728 5.28763 32.2079 7.58635 34.5384 8.09104C36.2383 8.45942 37.9198 7.77118 38.9021 6.46752C38.0578 6.884 37.0726 7.0297 36.0804 6.81481ZM20.4337 50.8931C20.3187 50.8931 20.2254 50.7996 20.2254 50.6848V50.166C19.8931 50.2572 19.648 50.5622 19.648 50.9231C19.648 51.3271 19.9555 51.6565 20.3479 51.6996V51.5912C20.3479 51.5442 20.3863 51.5063 20.4334 51.5063C20.4796 51.5063 20.5187 51.5442 20.5187 51.5912V51.6996C20.9107 51.6565 21.2194 51.3271 21.2194 50.9231C21.2194 50.5625 20.9741 50.2577 20.642 50.1661V50.6848C20.642 50.7996 20.5485 50.8931 20.4337 50.8931ZM20.4334 59.9235C19.9606 59.9235 19.5765 60.3072 19.5765 60.7803V66.4231H21.2911V60.7803C21.2911 60.3072 20.906 59.9235 20.4334 59.9235ZM22.8189 59.9235C22.4607 59.9235 22.1695 60.2144 22.1695 60.5726V66.4231H23.4672V60.5726C23.4672 60.2144 23.1776 59.9235 22.8189 59.9235ZM18.0478 59.9235C17.6898 59.9235 17.3996 60.2144 17.3996 60.5726V66.4231H18.697V60.5726C18.697 60.2144 18.4061 59.9235 18.0478 59.9235ZM27.8397 51.7728C27.8615 51.7728 27.9085 51.7854 27.9809 51.8107C28.0533 51.836 28.1074 51.8559 28.1437 51.8704C28.158 51.8848 28.1725 51.9046 28.1871 51.93C28.2015 51.9554 28.2015 51.9824 28.1871 52.0114C28.1437 52.1416 28.102 52.3044 28.0623 52.4997C28.0224 52.6951 27.961 52.8977 27.8778 53.1075C27.7946 53.3172 27.6807 53.527 27.5359 53.7368C27.3912 53.9466 27.1996 54.131 26.9608 54.2902C26.8523 54.2902 26.7312 54.2541 26.5973 54.1818C26.4635 54.1094 26.2898 54.0316 26.0764 53.9485C25.863 53.8651 25.5989 53.7874 25.2843 53.715C24.9695 53.6427 24.5754 53.6066 24.1014 53.6066C23.7777 53.6066 23.4901 53.6157 23.2369 53.6338C22.9856 53.6518 22.8046 53.6681 22.6962 53.6825C22.602 53.6825 22.5479 53.679 22.5334 53.6717C22.5189 53.6356 22.5008 53.5776 22.4791 53.4981C22.4574 53.4185 22.4537 53.3606 22.4683 53.3244C22.7142 53.2883 22.9114 53.234 23.0597 53.1617C23.208 53.0893 23.3002 52.9773 23.3365 52.8253C23.3437 52.7747 23.351 52.7132 23.358 52.6408C23.3653 52.5684 23.3726 52.4726 23.3798 52.3531C23.3871 52.2339 23.3925 52.0856 23.3961 51.9083C23.3997 51.7311 23.4015 51.5123 23.4015 51.2519V49.0815C23.4015 48.8499 23.3997 48.6529 23.3961 48.4902C23.3925 48.3274 23.3871 48.1844 23.3798 48.0614C23.3726 47.9384 23.3636 47.8335 23.3527 47.7468C23.3418 47.6599 23.3292 47.5768 23.3147 47.4972C23.3074 47.4466 23.293 47.385 23.2713 47.3126C23.2496 47.2403 23.2098 47.1716 23.1519 47.1065C23.0941 47.0414 23.009 46.9871 22.8969 46.9437C22.7847 46.9004 22.6346 46.8822 22.4465 46.8894C22.3959 46.8894 22.3814 46.8353 22.4032 46.7266L22.49 46.5097C22.4973 46.4807 22.5116 46.4662 22.5334 46.4662C22.7648 46.4735 23.0109 46.506 23.2695 46.5639C23.53 46.6217 23.7903 46.6887 24.0526 46.7646C24.3131 46.8406 24.5698 46.913 24.8176 46.9817C25.0672 47.0505 25.3005 47.0993 25.5176 47.1283C25.5465 47.1426 25.57 47.1987 25.5881 47.2964C25.6061 47.3941 25.6115 47.461 25.6045 47.4972C25.4886 47.5189 25.3766 47.5297 25.2679 47.5297C25.1595 47.5297 25.0618 47.537 24.9749 47.5514C24.8882 47.5658 24.8159 47.593 24.7579 47.6328C24.7 47.6726 24.6639 47.7431 24.6494 47.8445C24.6349 47.9169 24.6241 47.9836 24.6169 48.0452C24.6096 48.1066 24.6024 48.1862 24.5951 48.2839C24.588 48.3815 24.5843 48.5099 24.5843 48.6691V49.2984L24.5951 50.6549C24.5951 51.0529 24.597 51.3803 24.6007 51.6369C24.6042 51.8939 24.6079 52.1 24.6114 52.2555C24.615 52.4112 24.6187 52.5286 24.6223 52.6082C24.626 52.6878 24.6314 52.7529 24.6386 52.8036C24.6458 52.9049 24.6639 52.9754 24.6928 53.0152C24.7218 53.055 24.7761 53.0893 24.8557 53.1182C24.9424 53.1473 25.0492 53.167 25.1757 53.178C25.3023 53.1888 25.485 53.1942 25.7238 53.1942C25.9118 53.1942 26.0928 53.1869 26.2663 53.1726C26.4399 53.1581 26.6027 53.1291 26.7546 53.0857C26.9066 53.0424 27.0441 52.9773 27.167 52.8904C27.2901 52.8036 27.3949 52.6914 27.4816 52.5541C27.5324 52.4745 27.5776 52.3803 27.6175 52.2719C27.6571 52.1634 27.6952 52.0222 27.7313 51.8486C27.7458 51.7981 27.7784 51.7728 27.829 51.7728H27.8397ZM29.2288 50.0364C29.3157 49.8917 29.4079 49.7797 29.5056 49.7001C29.6032 49.6204 29.7045 49.5499 29.8094 49.4884C29.9143 49.427 30.0246 49.3708 30.1403 49.3202C30.2561 49.2696 30.3827 49.2045 30.5202 49.1248C30.5707 49.0961 30.6142 49.0525 30.6504 48.9946C30.6865 48.9368 30.7155 48.879 30.7371 48.8211C30.7589 48.7632 30.7769 48.7124 30.7914 48.6691C30.8059 48.6258 30.8204 48.604 30.8347 48.604C30.8493 48.604 30.8602 48.6239 30.8673 48.6637C30.8745 48.7035 30.889 48.7523 30.9108 48.8102C30.9324 48.868 30.9687 48.9296 31.0192 48.9946C31.0699 49.0598 31.1495 49.1176 31.2579 49.1682C31.4244 49.2479 31.5836 49.3148 31.7355 49.3691C31.8874 49.4233 32.0139 49.5047 32.1153 49.6132C32.2166 49.7289 32.2816 49.8356 32.3107 49.9334C32.3395 50.031 32.354 50.1268 32.354 50.2209C32.4191 50.3945 32.4372 50.9589 32.4083 51.9138C32.3793 52.8686 32.4083 53.5469 32.4952 53.9485C32.5819 54.3499 32.647 54.5507 32.6905 54.5507C32.7699 54.5507 32.8604 54.5345 32.9617 54.5019C33.0629 54.4694 33.1318 54.4422 33.1679 54.4204C33.1896 54.406 33.2168 54.4186 33.2494 54.4584C33.2819 54.4982 33.2945 54.5362 33.2873 54.5724L33.2548 54.7678C33.2548 54.8111 33.2257 54.8474 33.1679 54.8762C33.1245 54.898 33.0521 54.9268 32.951 54.9631C32.8496 54.9992 32.7357 55.0336 32.609 55.0661C32.4825 55.0987 32.3505 55.1275 32.213 55.153C32.0755 55.1783 31.9489 55.1909 31.8331 55.1909C31.7825 55.1909 31.7247 55.1078 31.6596 54.9413C31.5945 54.775 31.5329 54.5797 31.475 54.3553C31.4172 54.131 31.3647 53.905 31.3176 53.6771C31.2708 53.4492 31.2399 53.2738 31.2254 53.1508C31.1097 53.216 30.9795 53.2829 30.8347 53.3515C30.6902 53.4204 30.5509 53.4837 30.4171 53.5415C30.2832 53.5994 30.1657 53.6464 30.0644 53.6825C29.963 53.7188 29.8943 53.7368 29.8581 53.7368C29.634 53.7368 29.4133 53.6356 29.1962 53.433C29.1384 53.3752 29.0714 53.2719 28.9955 53.1236C28.9196 52.9754 28.8815 52.7927 28.8815 52.5757C28.8815 52.5033 28.9105 52.4255 28.9683 52.3424C29.0262 52.2592 29.0967 52.176 29.18 52.0928C29.2632 52.0096 29.3518 51.9337 29.4458 51.8648C29.5398 51.7962 29.6267 51.7402 29.7063 51.6967C29.9595 51.5665 30.2091 51.4344 30.4551 51.3006C30.701 51.1669 30.9687 51.0781 31.2579 51.0348C31.2579 50.9769 31.2598 50.9353 31.2635 50.91C31.2671 50.8847 31.2689 50.8611 31.2689 50.8395V50.6442C31.2689 50.4633 31.2525 50.3095 31.22 50.183C31.1875 50.0563 31.146 49.975 31.0952 49.9387C31.0518 49.8881 30.9741 49.843 30.8619 49.8031C30.7499 49.7633 30.6214 49.7434 30.4766 49.7434C30.426 49.7724 30.3736 49.805 30.3194 49.8411C30.2651 49.8774 30.2091 49.9135 30.1511 49.9495C30.144 50.0003 30.1385 50.0582 30.1349 50.1232C30.1312 50.1884 30.1295 50.2715 30.1295 50.3728C30.1295 50.4451 30.1042 50.4886 30.0534 50.503L29.3698 50.7092C29.312 50.7309 29.2614 50.7453 29.218 50.7526C29.1745 50.7599 29.1456 50.7634 29.1312 50.7634C29.0227 50.7634 28.9593 50.7364 28.9412 50.6821C28.9232 50.6278 28.9304 50.561 28.9629 50.4813C28.9955 50.4018 29.0407 50.3205 29.0986 50.2371C29.1564 50.154 29.1998 50.087 29.2288 50.0364ZM28.2847 48.0398C28.2847 47.9674 28.3082 47.9077 28.3552 47.8607C28.4023 47.8136 28.4583 47.7901 28.5234 47.7901H33.0702C33.1281 47.7974 33.1788 47.8246 33.2222 47.8714C33.2655 47.9185 33.2873 47.9747 33.2873 48.0398C33.2873 48.1121 33.2655 48.17 33.2222 48.2134C33.1788 48.2567 33.1281 48.2785 33.0702 48.2785H28.5234C28.4583 48.2785 28.4023 48.2567 28.3552 48.2134C28.3082 48.17 28.2847 48.1121 28.2847 48.0398ZM30.8565 45.4353C30.9144 45.4353 30.9579 45.4823 30.9867 45.5765C30.9867 45.5909 31.0066 45.627 31.0464 45.6849C31.0862 45.7428 31.1315 45.8006 31.1821 45.8586C31.2327 45.9165 31.2779 45.9707 31.3176 46.0215C31.3575 46.072 31.3811 46.0973 31.3883 46.0973C31.4462 46.1191 31.4877 46.1461 31.513 46.1786C31.5383 46.2112 31.5511 46.2781 31.5511 46.3795C31.5511 46.4301 31.5221 46.459 31.4642 46.4662C31.4425 46.4735 31.4064 46.5006 31.3558 46.5477C31.305 46.5947 31.2525 46.6489 31.1984 46.7104C31.1441 46.7719 31.0916 46.8369 31.041 46.9058C30.9904 46.9744 30.9579 47.0341 30.9434 47.0848C30.9288 47.1426 30.871 47.1716 30.7696 47.1716C30.6829 47.1716 30.6125 47.1337 30.5581 47.0576C30.5038 46.9817 30.4188 46.8822 30.3031 46.7592C30.2886 46.7447 30.2598 46.6959 30.2162 46.6128C30.1729 46.5296 30.115 46.47 30.0426 46.4337C29.9414 46.3903 29.8906 46.3325 29.8906 46.2601C29.8906 46.2238 29.907 46.1823 29.9396 46.1353C29.9722 46.0882 30.0101 46.0611 30.0534 46.054C30.0825 46.054 30.1276 46.0285 30.1892 45.9779C30.2506 45.9273 30.3122 45.8713 30.3736 45.8098C30.4352 45.7481 30.4912 45.6903 30.5418 45.6362C30.5925 45.5819 30.6214 45.5475 30.6286 45.5331C30.6576 45.468 30.6865 45.4353 30.7155 45.4353H30.8565ZM30.531 53.0639C30.5743 53.0639 30.6394 53.0513 30.7263 53.026C30.8132 53.0007 30.9216 52.9591 31.0518 52.9012C31.1532 52.8433 31.2146 52.7674 31.2364 52.6733C31.2364 52.6372 31.2382 52.5847 31.2418 52.5159C31.2453 52.4473 31.249 52.3731 31.2525 52.2936C31.2563 52.214 31.2579 52.1379 31.2579 52.0657V51.892C31.2579 51.7691 31.2399 51.7076 31.2038 51.7076C31.0736 51.7292 30.9741 51.7528 30.9054 51.7781C30.8366 51.8035 30.7841 51.8306 30.748 51.8595C30.7118 51.8885 30.6811 51.9173 30.6558 51.9463C30.6305 51.9752 30.5888 52.0077 30.531 52.044C30.4876 52.0801 30.4532 52.1236 30.4279 52.1742C30.4026 52.2248 30.3899 52.3007 30.3899 52.4021C30.3899 52.4889 30.3809 52.574 30.3628 52.6571C30.3448 52.7403 30.3338 52.8108 30.3303 52.8686C30.3265 52.9265 30.3375 52.9735 30.3628 53.0098C30.3881 53.0459 30.4406 53.0639 30.5202 53.0639H30.531ZM30.7696 54.2685C30.69 54.3263 30.6104 54.3951 30.531 54.4747C30.473 54.5326 30.4476 54.5905 30.4549 54.6483C30.4622 54.7062 30.4586 54.7641 30.4441 54.8219C30.4369 54.8727 30.4387 54.9612 30.4495 55.0879C30.4603 55.2144 30.5001 55.3446 30.5689 55.4786C30.6376 55.6123 30.7443 55.739 30.889 55.8583C31.0336 55.9777 31.2327 56.0554 31.4858 56.0915L31.7571 56.1458C31.8728 56.1676 32.0356 56.1947 32.2454 56.2273C32.4552 56.2598 32.7374 56.2725 33.0918 56.2653C33.4463 56.258 33.8822 56.2163 34.3996 56.1404C34.9167 56.0645 35.5371 55.9288 36.2605 55.7334C36.4341 55.6901 36.5788 55.634 36.6945 55.5653C36.8102 55.4966 36.9025 55.4261 36.9713 55.3538C37.04 55.2813 37.0906 55.2109 37.1231 55.1421C37.1556 55.0734 37.172 55.0137 37.172 54.9631C37.172 54.8907 37.1576 54.8165 37.1287 54.7406C37.0997 54.6647 37.0382 54.5905 36.9441 54.5181C36.8428 54.453 36.709 54.4024 36.5427 54.3661C36.3762 54.33 36.1954 54.312 36.0001 54.312H35.7071C35.6203 54.312 35.5207 54.3083 35.4088 54.301C35.2965 54.2938 35.1609 54.283 35.0017 54.2685C34.8426 54.2541 34.6401 54.2359 34.394 54.2143C34.0974 54.0769 33.9003 53.9539 33.8026 53.8453C33.7049 53.7368 33.6562 53.6031 33.6562 53.4438C33.6562 53.3281 33.6869 53.2412 33.7485 53.1834C33.8099 53.1256 33.8894 53.0749 33.9872 53.0314C34.0848 52.9881 34.197 52.9428 34.3235 52.8958C34.4501 52.8487 34.5822 52.7819 34.7195 52.6951C34.5966 52.6588 34.461 52.6047 34.3127 52.5322C34.1644 52.4599 34.0251 52.3695 33.8948 52.261C33.7429 52.1236 33.6236 51.9499 33.5367 51.7402C33.4499 51.5304 33.4065 51.3206 33.4065 51.1107C33.4065 50.8503 33.4571 50.617 33.5585 50.4109C33.6597 50.2046 33.7881 50.0202 33.9438 49.8574C34.0993 49.6947 34.2764 49.5462 34.4754 49.4125C34.6743 49.2785 34.8714 49.1575 35.0668 49.049C35.1174 49.02 35.1609 48.9766 35.197 48.9188C35.2333 48.8609 35.2622 48.8029 35.2839 48.745C35.3055 48.6872 35.3237 48.6366 35.338 48.5933C35.3526 48.5497 35.367 48.5281 35.3816 48.5281C35.3961 48.5281 35.4068 48.548 35.4141 48.5878C35.4214 48.6275 35.4357 48.6763 35.4574 48.7342C35.4792 48.7921 35.5153 48.8536 35.5659 48.9188C35.6167 48.9839 35.6961 49.0418 35.8048 49.0923C35.8699 49.1213 35.944 49.1575 36.0272 49.2008C36.1104 49.2443 36.1973 49.2858 36.2877 49.3256C36.3781 49.3654 36.5589 49.4902 36.8301 49.7001C37.1016 49.9099 37.2245 50.0726 37.1992 50.1884C37.1739 50.3041 37.1613 50.5247 37.1613 50.8503C37.1613 51.2337 37.0292 51.5774 36.765 51.8812C36.501 52.185 36.1556 52.4166 35.7287 52.5757C35.5914 52.6263 35.4556 52.6805 35.3219 52.7384C35.1881 52.7962 35.0668 52.8506 34.9583 52.9012C34.8932 52.9591 34.8607 53.0171 34.8607 53.0749C34.8607 53.1256 34.8841 53.1707 34.9312 53.2105C34.9782 53.2504 35.0397 53.2829 35.1157 53.3082C35.1916 53.3335 35.2694 53.3461 35.349 53.3461H35.5877C35.689 53.3461 35.7903 53.348 35.8917 53.3515C35.9928 53.3552 36.0869 53.3569 36.1736 53.3569H36.38C36.6114 53.3569 36.8357 53.3822 37.0526 53.433C37.2697 53.4837 37.4651 53.5813 37.6386 53.726C37.7182 53.7911 37.7888 53.885 37.8503 54.008C37.9117 54.131 37.9426 54.2757 37.9426 54.4422C37.9426 54.623 37.9136 54.7839 37.8557 54.9251C37.7978 55.0661 37.7002 55.2163 37.5627 55.3753C37.4107 55.5418 37.2534 55.6973 37.0906 55.842C36.9278 55.9868 36.747 56.1151 36.5481 56.2273C36.3491 56.3393 36.1231 56.4388 35.8699 56.5257C35.6167 56.6125 35.3237 56.6812 34.9909 56.7318C34.6218 56.8187 34.2457 56.8837 33.8623 56.9272C33.4789 56.9706 33.1063 56.9922 32.7447 56.9922C32.3756 56.9922 32.0229 56.9706 31.6866 56.9272C31.3502 56.8837 31.0409 56.815 30.7589 56.721C30.397 56.6053 30.1132 56.4606 29.9069 56.2869C29.7008 56.1133 29.5488 55.9416 29.4511 55.7715C29.3534 55.6015 29.2974 55.446 29.2829 55.3048C29.2684 55.1638 29.2757 55.0607 29.3046 54.9957C29.3843 54.8291 29.4909 54.6791 29.6248 54.5452C29.7586 54.4114 29.8942 54.3156 30.0317 54.2577C30.0895 54.2359 30.142 54.2125 30.1891 54.1871C30.2361 54.1619 30.2886 54.1383 30.3465 54.1166C30.3609 54.1094 30.3879 54.1148 30.4277 54.1329C30.4676 54.1509 30.5092 54.1708 30.5526 54.1926C30.5961 54.2143 30.6394 54.2342 30.6828 54.2523C30.7263 54.2703 30.7551 54.2757 30.7696 54.2685ZM36.2388 51.306C36.2388 51.1325 36.2172 50.9516 36.1736 50.7634C36.1303 50.5753 36.0725 50.4198 36.0001 50.2968C35.935 50.1666 35.8282 50.031 35.68 49.89C35.5317 49.7488 35.3453 49.6675 35.1211 49.6458C35.0197 49.7036 34.9078 49.7868 34.7846 49.8954C34.6616 50.0039 34.5387 50.1195 34.4157 50.2425C34.4085 50.2715 34.4049 50.3005 34.4049 50.3294V50.427C34.4049 50.6442 34.4429 50.8775 34.5188 51.1271C34.5949 51.3765 34.7015 51.5774 34.8389 51.7292C34.9982 51.91 35.1446 52.0276 35.2785 52.0819C35.4123 52.1362 35.5371 52.1634 35.6528 52.1634C35.7975 52.1634 35.9313 52.1018 36.0544 51.9789C36.1774 51.8559 36.2388 51.6353 36.2388 51.317V51.306ZM32.7555 48.0398C32.7555 47.9674 32.7808 47.9077 32.8313 47.8607C32.8821 47.8136 32.9435 47.7901 33.0159 47.7901H37.9859C38.0437 47.7974 38.0981 47.8246 38.1487 47.8714C38.1993 47.9185 38.2246 47.9747 38.2246 48.0398C38.2246 48.1121 38.1993 48.17 38.1487 48.2134C38.0981 48.2567 38.0437 48.2785 37.9859 48.2785H33.0159C32.9435 48.2785 32.8821 48.2567 32.8313 48.2134C32.7808 48.17 32.7555 48.1121 32.7555 48.0398ZM38.6696 50.1884C38.8794 49.9352 39.0983 49.72 39.3262 49.5427C39.5541 49.3654 39.7982 49.2008 40.0586 49.049C40.1092 49.02 40.1527 48.9766 40.1888 48.9188C40.2251 48.8609 40.2539 48.8029 40.2757 48.745C40.2973 48.6872 40.3155 48.6366 40.3298 48.5933C40.3443 48.5497 40.3589 48.5281 40.3733 48.5281C40.3879 48.5281 40.3986 48.548 40.4059 48.5878C40.4132 48.6275 40.4275 48.6763 40.4493 48.7342C40.471 48.7921 40.5071 48.8536 40.5577 48.9188C40.6085 48.9839 40.6881 49.0418 40.7965 49.0923C41.0425 49.208 41.2849 49.3239 41.5235 49.4396C41.7624 49.5554 41.9776 49.6982 42.1692 49.8682C42.361 50.0382 42.5147 50.2497 42.6304 50.503C42.7463 50.7563 42.8041 51.0746 42.8041 51.458C42.8041 51.733 42.7643 51.9752 42.6847 52.185C42.6051 52.3949 42.5147 52.574 42.4135 52.7222C42.3121 52.8705 42.209 52.9881 42.1042 53.0749C41.9992 53.1617 41.9214 53.2195 41.8709 53.2485C41.6537 53.3787 41.4097 53.489 41.1383 53.5794C40.8671 53.6698 40.6192 53.715 40.3949 53.715C40.2792 53.715 40.1417 53.7007 39.9827 53.6717C39.8235 53.6427 39.6644 53.5939 39.5052 53.5251C39.3461 53.4565 39.1923 53.3715 39.044 53.2702C38.8958 53.1689 38.7672 53.0496 38.6587 52.9121C38.514 52.7241 38.4037 52.5016 38.3278 52.2447C38.2519 51.988 38.2138 51.7473 38.2138 51.5231C38.2138 51.2988 38.2536 51.0636 38.3332 50.8177C38.4128 50.5718 38.525 50.3619 38.6696 50.1884ZM40.2576 49.6675C40.1345 49.653 40.0369 49.6783 39.9628 49.7434C39.8904 49.8086 39.8036 49.8809 39.7024 49.9605C39.6281 50.0762 39.5684 50.239 39.5215 50.4488C39.4745 50.6586 39.4509 50.9119 39.4509 51.2084C39.4509 51.5557 39.4998 51.8739 39.5974 52.1634C39.6969 52.4527 39.8073 52.6697 39.9302 52.8145C40.0839 52.9881 40.2305 53.1075 40.3733 53.1726C40.5144 53.2377 40.6499 53.2702 40.7821 53.2702C40.8689 53.2702 40.9539 53.2557 41.0371 53.2267C41.1221 53.1979 41.1926 53.1508 41.2505 53.0857C41.3518 52.9845 41.4385 52.838 41.5073 52.6461C41.576 52.4545 41.6104 52.1922 41.6104 51.8595C41.6104 51.7148 41.6013 51.5575 41.5833 51.3875C41.5652 51.2175 41.5345 51.0493 41.491 50.8828C41.4476 50.7165 41.3898 50.5573 41.321 50.4053C41.2523 50.2535 41.1673 50.1268 41.066 50.0256C40.9629 49.9242 40.8418 49.8393 40.6989 49.7706C40.5577 49.7018 40.4148 49.6675 40.2685 49.6675H40.2576ZM37.5844 48.0398C37.5844 47.9674 37.6116 47.9077 37.6658 47.8607C37.7201 47.8136 37.7871 47.7901 37.8667 47.7901H43.2164C43.2815 47.7974 43.3412 47.8246 43.3955 47.8714C43.4498 47.9185 43.4768 47.9747 43.4768 48.0398C43.4768 48.1121 43.4498 48.17 43.3955 48.2134C43.3412 48.2567 43.2815 48.2785 43.2164 48.2785H37.8667C37.7871 48.2785 37.7201 48.2567 37.6658 48.2134C37.6116 48.17 37.5844 48.1121 37.5844 48.0398ZM40.5144 45.4353C40.5722 45.4353 40.6157 45.4823 40.6446 45.5765C40.6446 45.5909 40.6645 45.627 40.7043 45.6849C40.7441 45.7428 40.7893 45.8006 40.8399 45.8586C40.8905 45.9165 40.9357 45.9707 40.9755 46.0215C41.0154 46.072 41.0389 46.0973 41.0462 46.0973C41.1041 46.1191 41.1455 46.1461 41.1708 46.1786C41.1962 46.2112 41.2089 46.2781 41.2089 46.3795C41.2089 46.4301 41.18 46.459 41.1221 46.4662C41.1004 46.4735 41.0643 46.5006 41.0137 46.5477C40.9629 46.5947 40.9104 46.6489 40.8563 46.7104C40.802 46.7719 40.7495 46.8369 40.6989 46.9058C40.6483 46.9744 40.6157 47.0341 40.6012 47.0848C40.5867 47.1426 40.5288 47.1716 40.4275 47.1716C40.3408 47.1716 40.2703 47.1337 40.216 47.0576C40.1617 46.9817 40.0766 46.8822 39.9609 46.7592C39.9465 46.7447 39.9176 46.6959 39.8741 46.6128C39.8307 46.5296 39.7729 46.47 39.7005 46.4337C39.5993 46.3903 39.5485 46.3325 39.5485 46.2601C39.5485 46.2238 39.5649 46.1823 39.5974 46.1353C39.63 46.0882 39.6679 46.0611 39.7113 46.054C39.7403 46.054 39.7855 46.0285 39.847 45.9779C39.9084 45.9273 39.97 45.8713 40.0315 45.8098C40.093 45.7481 40.149 45.6903 40.1996 45.6362C40.2504 45.5819 40.2792 45.5475 40.2865 45.5331C40.3155 45.468 40.3443 45.4353 40.3733 45.4353H40.5144ZM46.8626 52.4672C46.8626 52.8578 46.6799 53.1653 46.3146 53.3895C46.15 53.4909 45.9528 53.5686 45.7214 53.6229C45.4916 53.6771 45.271 53.7042 45.0611 53.7042C44.7935 53.7042 44.5548 53.6935 44.3449 53.6717C44.1351 53.6499 43.9651 53.5902 43.8349 53.4926C43.7047 53.3949 43.6162 53.2485 43.5691 53.0532C43.522 52.8578 43.5239 52.5901 43.5745 52.2501C43.5745 52.185 43.5817 52.1452 43.5962 52.1309C43.618 52.1163 43.6522 52.0983 43.6993 52.0765C43.7464 52.0548 43.8061 52.0368 43.8784 52.0222C43.9579 52.1815 44.0393 52.3279 44.1225 52.4618C44.2057 52.5956 44.3089 52.7384 44.4318 52.8904C44.5693 53.0639 44.7085 53.1834 44.8496 53.2485C44.9907 53.3136 45.1118 53.3461 45.2132 53.3461C45.271 53.3461 45.3343 53.3316 45.4031 53.3029C45.4717 53.2738 45.5368 53.234 45.5984 53.1834C45.6598 53.1328 45.7104 53.0694 45.7502 52.9934C45.79 52.9176 45.8099 52.8325 45.8099 52.7384C45.8099 52.6154 45.7739 52.5088 45.7015 52.4183C45.6273 52.3279 45.5406 52.2447 45.4392 52.1688C45.338 52.0928 45.2294 52.0259 45.1173 51.9681C45.0052 51.91 44.9075 51.8595 44.8279 51.8161C44.7628 51.7798 44.6687 51.7273 44.544 51.6587C44.4209 51.5901 44.3016 51.5051 44.1841 51.4037C44.0684 51.3025 43.9651 51.1812 43.873 51.0402C43.7825 50.8992 43.7372 50.7381 43.7372 50.5573C43.7372 50.3692 43.7753 50.1992 43.8513 50.0472C43.9272 49.8954 44.0484 49.7542 44.2148 49.624C44.374 49.501 44.5457 49.398 44.7302 49.3148C44.9148 49.2316 45.0902 49.19 45.2565 49.19C45.4446 49.19 45.6057 49.2063 45.7394 49.2389C45.8732 49.2714 45.9837 49.2877 46.0704 49.2877C46.2006 49.2877 46.291 49.3183 46.3418 49.3799C46.3923 49.4413 46.4285 49.5263 46.4502 49.635C46.472 49.7434 46.4901 49.8701 46.5045 50.0146C46.5189 50.1593 46.5587 50.3114 46.6238 50.4704C46.6238 50.5067 46.6093 50.5392 46.5805 50.5681C46.5514 50.5971 46.5189 50.6116 46.4828 50.6116C46.3381 50.6116 46.2224 50.5538 46.1355 50.4379C46.0994 50.38 46.0542 50.3041 45.9998 50.2099C45.9455 50.116 45.8787 50.0238 45.7991 49.9334C45.7195 49.843 45.6291 49.7651 45.5277 49.7001C45.4265 49.635 45.3108 49.6024 45.1806 49.6024C45.0792 49.6024 44.9762 49.6511 44.8713 49.7488C44.7663 49.8465 44.7139 49.9894 44.7139 50.1774C44.7139 50.2715 44.7394 50.3584 44.7899 50.4379C44.8405 50.5174 44.9057 50.5898 44.9853 50.6549C45.0649 50.7201 45.1516 50.7797 45.2457 50.834C45.3397 50.8882 45.4338 50.9371 45.5277 50.9805C45.6219 51.024 45.7449 51.0854 45.8968 51.165C46.0488 51.2446 46.1952 51.3423 46.3362 51.458C46.4774 51.5737 46.6003 51.7147 46.7053 51.8812C46.8102 52.0475 46.8626 52.2393 46.8626 52.4564V52.4672ZM42.9126 48.0398C42.9126 47.9674 42.9344 47.9077 42.9777 47.8607C43.0211 47.8136 43.0718 47.7901 43.1296 47.7901H47.34C47.3978 47.7974 47.4467 47.8246 47.4865 47.8714C47.5264 47.9185 47.5463 47.9747 47.5463 48.0398C47.5463 48.1121 47.5264 48.17 47.4865 48.2134C47.4467 48.2567 47.3978 48.2785 47.34 48.2785H43.1296C43.0718 48.2785 43.0211 48.2567 42.9777 48.2134C42.9344 48.17 42.9126 48.1121 42.9126 48.0398ZM45.2294 54.4204C45.2872 54.4204 45.3325 54.4675 45.3614 54.5614C45.3614 54.576 45.3813 54.6122 45.4212 54.6701C45.461 54.728 45.508 54.7858 45.5586 54.8437C45.6092 54.9015 45.6544 54.9558 45.6961 55.0064C45.7358 55.057 45.7593 55.0824 45.7666 55.0824C45.8244 55.1041 45.8661 55.1312 45.8914 55.1638C45.9167 55.1963 45.9293 55.2633 45.9293 55.3645C45.9293 55.4151 45.9004 55.4442 45.8425 55.4514C45.8207 55.4586 45.7846 55.4858 45.7322 55.5327C45.6815 55.5797 45.6291 55.634 45.5748 55.6955C45.5188 55.757 45.4663 55.8222 45.4157 55.8908C45.365 55.9596 45.3308 56.0193 45.3162 56.07C45.3017 56.1278 45.2439 56.1566 45.1408 56.1566C45.0539 56.1566 44.9834 56.1187 44.9274 56.0427C44.8731 55.9669 44.7881 55.8673 44.6705 55.7444C44.656 55.7299 44.6272 55.6811 44.5836 55.5978C44.5403 55.5146 44.4825 55.4549 44.4101 55.4188C44.3089 55.3753 44.2581 55.3174 44.2581 55.2451C44.2581 55.209 44.2745 55.1673 44.307 55.1205C44.3396 55.0734 44.3775 55.0462 44.4209 55.039C44.4499 55.039 44.4951 55.0137 44.5566 54.9631C44.618 54.9125 44.6796 54.8563 44.7411 54.7949C44.8045 54.7334 44.8605 54.6755 44.911 54.6212C44.9635 54.567 44.9925 54.5326 44.9998 54.5181C45.0286 54.453 45.0576 54.4204 45.0865 54.4204H45.2294Z"
        fill="white"
      />
    </svg>

