<svg width="428" height="441" viewBox="0 0 428 441" fill="none" xmlns="http://www.w3.org/2000/svg">
<path fill-rule="evenodd" clip-rule="evenodd" d="M303.281 311.175C302.579 311.175 302.009 310.604 302.009 309.901V306.729C299.976 307.287 298.478 309.152 298.478 311.358C298.478 313.828 300.358 315.843 302.756 316.106V315.444C302.756 315.156 302.992 314.924 303.279 314.924C303.562 314.924 303.801 315.156 303.801 315.444V316.106C306.198 315.843 308.085 313.828 308.085 311.358C308.085 309.154 306.586 307.29 304.555 306.73V309.901C304.555 310.604 303.985 311.175 303.281 311.175ZM131.385 240.221C131.382 240.123 131.355 239.94 131.262 239.68C131.169 239.42 130.958 239.145 130.645 238.829C130.343 238.524 129.877 238.243 129.289 237.998C128.675 237.743 127.872 237.594 126.854 237.558C126.486 237.545 126.395 237.225 126.669 236.617C126.981 235.924 127.193 235.514 127.286 235.345C127.377 235.175 127.565 235.049 127.81 234.965C128.705 234.659 129.658 234.398 130.738 234.194C131.815 233.99 132.926 233.783 134.098 233.573C135.268 233.363 136.411 233.12 137.55 232.872C138.66 232.63 139.738 232.287 140.755 231.921C140.877 231.878 141.008 231.864 141.126 231.811C141.254 231.753 141.372 231.697 141.495 231.681C141.679 231.658 141.791 231.953 141.773 232.532C141.73 233.864 141.649 235.496 141.587 237.438C141.526 239.379 141.495 241.352 141.495 243.375C141.495 246.658 141.495 249.952 141.495 253.226C141.495 255.669 141.309 257.661 140.94 259.183C140.569 260.714 140.078 261.947 139.523 262.888C138.968 263.828 138.344 264.563 137.673 265.101C137.02 265.622 136.404 266.083 135.823 266.482C135.078 266.993 134.223 267.468 133.296 267.844C132.343 268.229 131.415 268.531 130.491 268.755C129.597 268.971 128.824 269.123 128.18 269.235C127.561 269.343 127.225 269.408 127.162 269.415C126.701 269.477 126.453 269.364 126.392 269.115C126.269 268.975 126.207 268.684 126.207 268.264C126.207 267.923 126.207 267.573 126.207 267.222C126.207 266.952 126.434 266.845 126.854 266.732C128.318 266.335 129.372 265.642 130.029 264.82C130.697 263.981 131.056 263.005 131.2 261.877C131.241 261.554 131.309 260.904 131.385 259.934C131.462 258.962 131.54 257.841 131.601 256.56C131.662 255.279 131.693 253.916 131.724 252.475C131.754 251.034 131.752 249.682 131.693 248.411C131.568 245.688 131.473 242.954 131.385 240.221ZM121.398 225.634C121.398 225.104 121.556 224.654 121.861 224.272C122.171 223.884 122.509 223.676 122.817 223.642C131.693 222.636 140.565 221.629 149.448 220.788C149.755 220.76 150.034 220.978 150.28 221.298C150.526 221.618 150.649 222.02 150.649 222.49C150.649 223.652 150.248 224.271 149.448 224.353C140.57 225.262 131.692 226.221 122.817 227.236C122.509 227.271 122.167 227.158 121.861 226.875C121.551 226.588 121.398 226.175 121.398 225.634ZM136.964 204.77C137.487 204.711 137.858 205.03 138.104 205.69C138.104 205.8 138.285 206.045 138.628 206.441C138.962 206.826 139.368 207.212 139.8 207.593C140.231 207.973 140.625 208.342 140.971 208.674C141.333 209.022 141.526 209.185 141.587 209.175C142.111 209.285 142.46 209.435 142.697 209.656C142.923 209.865 143.006 210.356 143.006 211.097C143.006 211.467 142.753 211.687 142.266 211.808C142.074 211.856 141.742 212.109 141.311 212.498C140.879 212.889 140.427 213.34 139.954 213.83C139.472 214.331 139.022 214.845 138.567 215.402C138.129 215.936 137.852 216.411 137.735 216.804C137.605 217.242 137.086 217.505 136.224 217.594C135.454 217.674 134.84 217.462 134.375 216.954C133.916 216.451 133.179 215.783 132.155 214.992C132.04 214.902 131.775 214.577 131.385 214C131.005 213.437 130.523 213.043 129.875 212.859C129.014 212.614 128.58 212.238 128.58 211.717C128.58 211.437 128.7 211.113 128.981 210.756C129.284 210.372 129.593 210.104 129.998 210.036C130.242 209.995 130.639 209.776 131.169 209.345C131.686 208.926 132.248 208.463 132.772 207.953C133.295 207.443 133.785 206.967 134.221 206.532C134.678 206.076 134.937 205.794 134.991 205.69C135.246 205.195 135.484 204.915 135.731 204.889C136.131 204.846 136.533 204.819 136.964 204.77ZM168.866 233.743C166.801 233.92 165.383 234.484 164.643 235.396C163.195 236.467 162.197 237.623 161.653 238.869C161.119 240.095 160.852 241.562 160.852 243.245C160.852 244.085 160.914 245.007 161.037 245.988C161.16 246.969 162.382 249.628 164.674 253.917C166.974 258.218 169.114 260.395 171.054 260.505C172.997 260.615 174.989 259.444 177.034 257.011C179.088 254.569 180.095 253.235 180.116 252.976C180.218 251.762 180.333 250.393 180.363 248.881C180.393 247.36 180.393 245.847 180.393 244.326C180.393 242.804 180.393 241.391 180.363 240.101C180.333 238.79 180.23 237.809 180.116 237.137C180.045 236.719 179.929 236.368 179.777 236.066C179.622 235.758 179.23 235.429 178.606 235.126C176.025 233.868 172.811 233.419 168.99 233.743C168.929 233.748 168.895 233.741 168.866 233.743ZM257.143 235.426C258.074 233.91 259.033 232.722 259.948 231.842C260.852 230.971 261.769 230.272 262.691 229.758C263.586 229.261 264.54 228.812 265.558 228.467C266.573 228.123 267.65 227.702 268.856 227.216C269.312 227.033 269.688 226.764 269.997 226.364C270.304 225.965 270.535 225.555 270.736 225.153C270.935 224.754 271.104 224.411 271.229 224.102C271.35 223.801 271.476 223.653 271.599 223.662C271.721 223.672 271.817 223.831 271.877 224.112C271.939 224.402 272.047 224.779 272.246 225.214C272.447 225.651 272.77 226.105 273.202 226.615C273.632 227.126 274.338 227.606 275.267 228.047C276.217 228.496 277.202 228.962 278.195 229.438C279.205 229.923 280.197 230.434 281.124 231.01C282.076 231.604 283.222 232.69 284.545 234.284C285.872 235.883 286.826 237.549 287.411 239.29C287.996 241.032 288.167 242.611 287.874 244.035C287.582 245.454 287.319 246.459 287.042 247.039C286.765 247.619 286.329 248.035 285.747 248.301C285.19 248.554 284.421 248.681 283.436 248.661C282.48 248.641 281.216 248.558 279.705 248.421C277.026 248.178 274.525 247.798 272.246 247.259C269.995 246.727 267.746 245.878 265.558 244.706C265.373 244.747 265.216 244.845 265.095 244.986C264.97 245.134 264.924 245.478 264.91 245.998C264.771 251.054 265.808 254.424 268.023 256.129C270.215 257.817 274.126 257.872 279.705 256.229C279.151 256.29 279.314 256.69 280.199 257.461C281.07 258.221 280.351 259.08 278.072 260.014C275.76 260.962 273.511 261.315 271.321 261.116C269.566 260.956 267.93 260.645 266.452 260.155C264.972 259.665 263.708 259.122 262.63 258.512C261.551 257.901 260.662 257.313 259.948 256.77C259.215 256.213 258.685 255.788 258.376 255.449C257.515 254.506 256.578 253.201 255.632 251.514C254.698 249.847 254.215 248.151 254.215 246.458C254.215 244.766 254.261 243.516 254.339 242.715C254.415 241.905 254.528 241.143 254.739 240.442C254.958 239.712 255.253 238.964 255.632 238.189C256.022 237.393 256.503 236.471 257.143 235.426ZM248.759 218.696C248.759 218.175 248.973 217.75 249.406 217.444C249.866 217.12 250.363 216.971 250.917 217.004C264.571 217.821 278.231 218.79 291.911 220.007C292.412 220.051 292.87 220.346 293.268 220.728C293.67 221.116 293.884 221.539 293.884 222.009C293.884 222.54 293.666 222.948 293.268 223.221C292.865 223.498 292.405 223.614 291.911 223.571C278.227 222.374 264.571 221.354 250.917 220.518C250.363 220.485 249.858 220.322 249.406 219.987C248.965 219.661 248.759 219.216 248.759 218.696ZM272.925 201.356C273.417 201.392 273.788 201.756 274.064 202.456C274.064 202.567 274.227 202.832 274.588 203.288C274.935 203.723 275.329 204.189 275.761 204.669C276.192 205.149 276.587 205.576 276.932 205.941C277.265 206.295 277.486 206.492 277.548 206.492C278.041 206.692 278.412 206.912 278.627 207.162C278.842 207.412 278.966 207.903 278.966 208.644C278.966 208.745 278.719 208.915 278.257 209.144C277.794 209.374 277.246 209.677 276.654 210.046C276.045 210.427 275.477 210.872 274.897 211.417C274.338 211.942 273.927 212.594 273.665 213.37C273.527 213.775 273.048 213.946 272.154 213.88C271.415 213.826 270.811 213.488 270.335 212.909C269.857 212.327 269.106 211.562 268.116 210.606C267.998 210.493 267.712 210.117 267.346 209.495C266.974 208.866 266.489 208.398 265.835 208.104C264.979 207.718 264.51 207.283 264.51 206.771C264.51 206.341 264.789 205.994 265.373 205.681C265.928 205.384 266.603 205.034 267.346 204.669C268.112 204.293 268.832 203.909 269.534 203.479C270.218 203.059 270.628 202.513 270.952 201.926C271.215 201.449 271.506 201.25 271.692 201.266C272.092 201.299 272.494 201.324 272.925 201.356ZM276.901 239.44C276.901 238.649 276.716 237.828 276.408 236.987C276.099 236.146 275.656 235.395 275.082 234.685C274.516 233.984 273.887 233.392 273.171 232.942C272.439 232.481 271.661 232.228 270.859 232.162C270.09 232.099 269.375 232.275 268.671 232.703C267.99 233.116 267.36 233.735 266.79 234.535C266.22 235.336 265.758 236.272 265.403 237.368C265.05 238.463 264.91 239.701 264.91 241.062C264.91 241.583 265.254 242.027 265.99 242.434C266.701 242.827 267.529 243.169 268.425 243.445C269.348 243.729 270.243 243.938 271.075 244.085C271.937 244.237 272.494 244.324 272.74 244.346C273.171 244.384 273.603 244.428 274.064 244.466C274.434 244.496 274.772 244.467 275.082 244.396C275.418 244.318 275.689 244.115 275.976 243.805C276.274 243.486 276.501 242.984 276.654 242.293C276.809 241.593 276.901 240.672 276.901 239.52C276.901 239.49 276.901 239.47 276.901 239.44ZM322.581 257.682C322.581 260.565 320.974 262.64 317.802 263.899C316.383 264.461 314.659 264.82 312.655 264.97C310.652 265.12 308.741 265.098 306.922 264.88C304.581 264.599 302.514 264.272 300.665 263.899C298.847 263.532 297.363 262.931 296.227 262.087C295.115 261.26 294.331 260.109 293.915 258.632C293.499 257.155 293.614 255.218 293.977 252.766C294.045 252.301 294.025 251.994 294.161 251.915C294.335 251.813 294.654 251.734 295.055 251.614C295.456 251.494 295.98 251.424 296.628 251.385C297.305 252.625 298.024 253.76 298.754 254.828C299.473 255.882 300.364 257.025 301.436 258.262C302.644 259.658 303.838 260.69 305.073 261.316C306.303 261.94 307.355 262.291 308.217 262.397C308.741 262.461 309.296 262.427 309.881 262.287C310.466 262.148 311.047 261.906 311.577 261.606C312.125 261.296 312.562 260.883 312.902 260.365C313.239 259.853 313.427 259.253 313.427 258.563C313.427 257.651 313.118 256.829 312.471 256.089C311.824 255.349 311.082 254.648 310.19 253.977C309.327 253.327 308.365 252.726 307.385 252.186C306.423 251.656 305.569 251.177 304.888 250.784C304.306 250.448 303.498 249.976 302.422 249.352C301.342 248.725 300.297 247.987 299.278 247.139C298.264 246.295 297.361 245.32 296.565 244.195C295.79 243.099 295.394 241.873 295.394 240.552C295.394 239.18 295.736 237.97 296.381 236.927C297.03 235.878 298.104 234.949 299.556 234.145C300.939 233.378 302.424 232.797 304.025 232.352C305.628 231.906 307.17 231.771 308.618 231.921C310.251 232.091 311.64 232.358 312.81 232.732C313.982 233.108 314.936 233.34 315.676 233.423C316.816 233.55 317.618 233.864 318.05 234.364C318.481 234.864 318.821 235.535 319.005 236.357C319.19 237.176 319.344 238.119 319.467 239.21C319.59 240.291 319.929 241.452 320.516 242.684C320.516 242.964 320.382 243.18 320.114 243.364C319.858 243.54 319.59 243.621 319.282 243.584C318.02 243.432 316.978 242.912 316.262 241.954C315.931 241.51 315.561 240.877 315.09 240.14C314.607 239.385 314.017 238.643 313.334 237.909C312.631 237.153 311.851 236.49 310.96 235.916C310.095 235.36 309.077 235.004 307.939 234.885C307.075 234.795 306.185 235.05 305.258 235.666C304.335 236.28 303.901 237.278 303.901 238.659C303.901 239.34 304.117 240.011 304.549 240.641C304.98 241.272 305.563 241.867 306.244 242.413C306.949 242.978 307.697 243.488 308.525 243.985C309.331 244.469 310.16 244.925 310.96 245.327C311.792 245.745 312.867 246.335 314.166 247.069C315.486 247.816 316.783 248.686 317.988 249.672C319.217 250.677 320.31 251.838 321.225 253.186C322.128 254.52 322.581 256 322.581 257.601C322.581 257.631 322.581 257.661 322.581 257.682ZM288.213 221.489C288.213 220.969 288.39 220.537 288.767 220.237C289.159 219.927 289.6 219.8 290.093 219.847C302.298 221.001 314.51 222.219 326.741 223.631C327.241 223.689 327.667 223.982 328.005 224.372C328.344 224.762 328.529 225.193 328.529 225.674C328.529 226.215 328.344 226.624 328.005 226.905C327.666 227.185 327.235 227.291 326.741 227.236C314.506 225.851 302.299 224.565 290.093 223.401C289.6 223.355 289.161 223.169 288.767 222.811C288.391 222.469 288.213 222.02 288.213 221.489ZM65.3949 279.929C74.098 279.137 82.8023 278.388 91.5065 277.691C90.1631 277.426 88.7962 277.125 87.4003 276.793C84.8763 276.193 82.2831 275.616 79.5719 275.072C76.8594 274.526 74.0543 274.391 71.1575 274.651C70.972 274.561 70.8803 274.24 70.8491 273.67C70.8194 273.12 70.8491 272.689 70.972 272.399C70.972 272.128 71.0739 271.874 71.3415 271.768C72.4646 271.322 73.4052 271.022 74.0849 270.757C74.7909 270.482 75.3125 270.225 75.6883 270.006C76.083 269.777 76.3356 269.545 76.4891 269.275C76.6429 269.005 76.7133 268.683 76.7363 268.304C76.7734 267.692 76.9206 266.25 77.1058 263.979C77.2896 261.717 77.3835 258.652 77.3835 254.819C77.3835 248.81 77.3835 242.804 77.3835 236.787C77.3835 234.745 77.3529 233.092 77.2909 231.861C77.2287 230.63 77.1669 229.639 77.1058 228.918C77.0443 228.198 76.9834 227.705 76.9206 227.406C76.8613 227.126 76.7974 226.926 76.7363 226.836C76.674 226.516 76.5798 226.235 76.4891 226.014C76.3957 225.785 76.1199 225.65 75.5957 225.624C75.1031 225.6 74.4533 225.377 73.6225 224.963C72.7885 224.546 71.6805 224.333 70.2327 224.272C70.0456 224.265 70.0047 224.126 70.0473 223.891C70.1573 223.285 70.2638 222.674 70.3247 222.049C70.3556 221.731 70.4785 221.548 70.7871 221.5C71.8034 221.338 72.8546 221.187 73.9006 221.028C75.3494 220.808 77.1675 220.549 79.387 220.308C81.5744 220.07 84.4057 219.861 87.7709 219.216C95.0758 217.819 102.284 215.963 109.593 214.681C113.078 214.07 115.728 213.904 117.391 213.609C119.056 213.314 120.038 213.482 120.351 214.15C120.654 214.802 120.454 216.118 119.703 218.065C118.945 220.031 117.822 223.091 116.374 227.275C114.956 227.506 114.063 227.572 113.755 227.476C113.448 227.382 113.177 227.226 113.076 226.965C112.5 225.483 111.985 224.228 111.474 223.18C110.968 222.147 110.403 221.309 109.747 220.698C109.079 220.078 108.264 219.7 107.312 219.517C106.386 219.34 105.206 219.265 103.829 219.517C101.229 219.995 99.1104 220.488 97.418 220.818C95.7211 221.149 94.3359 221.443 93.3183 221.659C92.2712 221.882 91.4697 222.049 90.9458 222.18C90.4215 222.31 90.0162 222.374 89.7747 222.43C88.9366 222.623 88.4488 223.052 88.2951 223.642C88.1413 224.232 88.0785 224.813 88.0785 225.414C88.0785 228.487 88.0785 231.571 88.0785 234.645C88.0785 237.878 88.1276 240.872 88.1708 243.605C88.1877 244.635 88.5081 245.072 89.1887 245.017C90.8503 244.882 92.525 244.868 94.2128 244.687C95.8536 244.509 97.418 244.29 98.9597 244.185C100.5 244.081 101.98 243.834 103.367 243.424C104.753 243.014 106.047 242.35 107.282 241.442C108.512 240.539 109.627 239.161 110.641 237.318C110.767 237.089 111.258 236.873 112.09 236.687C112.952 236.494 113.631 236.426 114.124 236.467C113.231 239.961 112.379 242.64 111.535 244.516C110.685 246.404 109.808 247.74 108.946 248.541C108.052 249.371 107.128 249.752 106.141 249.722C105.186 249.693 104.109 249.534 102.997 249.232C101.859 248.924 100.626 248.63 99.2983 248.33C97.9762 248.031 96.4921 247.995 94.8598 248.23C93.1648 248.475 91.9621 248.665 91.2845 248.792C90.5761 248.924 90.0817 249.031 89.7747 249.131C89.1887 249.321 88.8691 249.619 88.7263 250.013C88.6225 250.301 88.4496 251.124 88.2951 252.506C88.1424 253.877 88.0785 256.179 88.0785 259.413C88.0785 260.755 88.0626 262.078 87.9867 263.348C87.91 264.64 87.9247 265.792 88.0176 266.833C88.1091 267.863 88.3256 268.734 88.6337 269.445C88.9423 270.156 89.4986 270.58 90.2363 270.737C92.4567 271.21 94.4908 271.523 96.3698 271.677C98.2504 271.833 100.069 271.708 101.765 271.298C103.46 270.888 105.129 270.142 106.819 269.044C108.487 267.961 110.18 266.402 111.967 264.389C112.151 264.309 112.525 264.346 113.138 264.51C113.726 264.667 114.155 264.78 114.402 264.86C114.525 264.95 114.586 265.02 114.556 265.08C114.525 265.14 114.449 265.319 114.309 265.591C112.323 269.464 110.239 272.348 108.114 274.261C107.033 275.235 105.936 276.038 104.819 276.668C111.103 276.205 117.388 275.773 123.672 275.373C123.667 275.421 123.664 275.469 123.664 275.517V305.655C121.053 306.238 119.095 308.573 119.095 311.358C119.095 314.402 121.443 316.88 124.413 317.148V318.444H122.889V324.363C121.976 325.01 121.374 326.069 121.374 327.274C121.374 328.496 121.991 329.574 122.926 330.219C121.563 330.941 120.623 332.357 120.623 334.013C120.623 335.498 121.369 336.805 122.513 337.584C120.906 340.189 118.537 342.296 115.045 343.175C115.045 343.175 103.031 345.834 104.136 354.249H103.545C102.163 354.249 101.037 355.372 101.037 356.755C101.037 358.136 102.163 359.259 103.545 359.259H104.195V406.13H103.545C102.163 406.13 101.037 407.253 101.037 408.637C101.037 410.022 102.163 411.142 103.545 411.142H107.315C108.48 411.506 109.325 412.579 109.325 413.854C109.325 415.433 108.046 416.712 106.466 416.712H104.152C102.799 425.311 115.045 428.013 115.045 428.013C118.225 428.811 120.468 430.637 122.054 432.922C121.178 433.708 120.623 434.842 120.623 436.115C120.623 438.499 122.551 440.429 124.936 440.429C127.319 440.429 129.253 438.499 129.253 436.115C129.253 434.842 128.691 433.71 127.821 432.922C129.412 430.637 131.651 428.811 134.825 428.013C134.825 428.013 147.075 425.311 145.723 416.712H143.411C141.829 416.712 140.551 415.433 140.551 413.854C140.551 412.579 141.395 411.506 142.555 411.142H146.33C147.712 411.142 148.838 410.022 148.838 408.637C148.838 407.253 147.712 406.13 146.33 406.13H145.677V359.259H146.33C147.712 359.259 148.838 358.136 148.838 356.755C148.838 355.372 147.712 354.249 146.33 354.249H145.738C146.844 345.834 134.825 343.175 134.825 343.175C131.333 342.296 128.969 340.188 127.362 337.582C128.506 336.805 129.253 335.498 129.253 334.013C129.253 332.357 128.312 330.941 126.945 330.219C127.884 329.574 128.496 328.496 128.496 327.274C128.496 326.069 127.9 325.01 126.986 324.363V318.444H125.457V317.148C128.432 316.88 130.775 314.402 130.775 311.358C130.775 308.575 128.822 306.24 126.211 305.656V275.517C126.211 275.414 126.198 275.313 126.175 275.216C152.37 273.588 178.567 272.546 204.76 272.341C204.779 272.263 204.804 272.189 204.836 272.118C205.237 271.999 205.652 271.921 206.069 271.748C207.993 270.951 209.437 270.033 210.477 269.025C211.502 268.031 212.253 267.036 212.727 266.061C213.207 265.074 213.467 264.189 213.498 263.387C213.528 262.588 213.553 261.994 213.528 261.636C213.431 260.282 213.188 258.292 212.881 255.669C212.572 253.027 212.217 250.11 211.803 246.909C211.386 243.693 210.954 240.358 210.477 236.907C209.998 233.442 209.567 230.18 209.183 227.136C208.798 224.085 208.473 221.429 208.196 219.176C207.919 216.925 207.735 215.391 207.672 214.562C207.613 213.78 207.516 213.16 207.395 212.698C207.271 212.229 206.996 211.865 206.593 211.598C206.195 211.335 205.576 211.123 204.806 210.977C204.005 210.824 202.895 210.687 201.446 210.546C201.385 210.336 201.385 210.036 201.446 209.645C201.508 209.245 201.614 208.868 201.724 208.494C201.798 208.237 202.155 208.086 202.772 208.063C202.956 208.057 203.48 208.043 204.281 208.034C205.113 208.023 206.039 207.997 207.117 207.953C208.257 207.907 209.429 207.902 210.662 207.893C211.894 207.883 212.983 207.962 213.93 207.834C221.619 206.781 229.26 205.451 236.954 204.77C238.643 204.621 240.101 204.936 241.3 205.16C242.504 205.386 243.521 205.646 244.352 205.911C245.216 206.186 245.954 206.464 246.571 206.742C247.217 207.034 247.865 207.302 248.574 207.543C248.513 208.824 248.359 210.126 248.143 211.417C247.927 212.709 247.68 213.89 247.434 214.971C247.187 216.052 246.958 216.971 246.756 217.754C246.558 218.522 246.478 219.066 246.478 219.376C246.478 219.576 246.422 219.742 246.293 219.847C246.174 219.943 245.86 219.952 245.369 219.878C244.352 219.723 243.736 219.603 243.55 219.517C243.367 219.434 243.222 219.322 243.18 219.156C242.667 217.109 241.989 215.493 241.115 214.351C240.234 213.201 239.098 212.443 237.787 211.958C236.664 211.542 235.351 211.213 233.841 211.067C232.332 210.923 230.172 210.857 227.43 210.827C226.659 210.819 225.888 210.802 225.148 210.797C224.534 210.793 223.977 210.82 223.485 210.876C223.023 210.93 222.59 210.983 222.19 211.007C221.759 211.032 221.296 211.108 220.803 211.217C220.309 211.327 219.94 211.558 219.724 211.928C219.509 212.299 219.326 213.08 219.2 214.271C219.019 215.982 218.985 218.095 219.108 220.608C219.231 223.12 219.401 225.576 219.662 227.957C219.924 230.34 220.141 232.414 220.371 234.174C220.602 235.939 220.771 236.879 220.803 237.037C220.894 237.502 221.02 237.807 221.266 237.928C221.543 238.066 221.882 238.109 222.375 238.079C222.837 238.05 223.452 237.951 224.193 237.819C224.962 237.682 225.826 237.549 226.845 237.417C227.982 237.271 229.064 237.124 230.05 236.987C231.066 236.845 231.932 236.588 232.669 236.206C233.38 235.838 233.951 235.296 234.395 234.585C234.845 233.865 235.104 232.922 235.167 231.732C235.228 231.641 235.504 231.506 235.999 231.37C236.521 231.227 237.077 231.113 237.694 231.03C238.34 230.943 238.926 230.884 239.45 230.85C239.973 230.816 240.314 230.85 240.437 230.97C240.561 231.591 240.622 232.362 240.591 233.263C240.561 234.173 240.438 235.096 240.252 236.026C240.069 236.947 239.787 237.838 239.45 238.68C239.11 239.53 238.757 240.312 238.186 240.781C237.36 241.462 236.523 241.683 235.814 241.683C235.135 241.683 234.365 241.558 233.563 241.332C232.733 241.098 231.743 240.879 230.636 240.662C229.494 240.439 228.043 240.384 226.289 240.591C224.838 240.763 223.73 240.95 222.991 241.062C222.221 241.179 221.74 241.432 221.481 241.823C221.216 242.222 221.142 242.834 221.234 243.686C221.326 244.546 221.509 245.829 221.758 247.53C222.001 249.191 222.19 250.633 222.282 251.845C222.375 253.065 222.453 254.06 222.59 254.838C222.699 255.451 222.712 256.32 222.59 257.431C222.467 258.551 222.201 259.798 221.758 261.145C221.309 262.511 220.69 263.916 219.878 265.371C219.057 266.839 218.026 268.202 216.796 269.466C215.785 270.504 214.611 271.46 213.271 272.305L214.082 272.304C242.698 272.302 271.33 273.339 299.965 275.085C300.027 274.891 300.16 274.685 300.357 274.461C300.632 274.149 300.974 273.97 301.343 273.981C301.591 273.988 301.991 273.88 302.514 273.57C303.038 273.259 303.589 272.91 304.117 272.538C304.666 272.151 305.16 271.78 305.597 271.447C306.054 271.101 306.314 270.881 306.368 270.786C306.622 270.341 306.892 270.122 307.138 270.156C307.539 270.212 307.941 270.255 308.371 270.306C308.864 270.364 309.265 270.766 309.511 271.488C309.511 271.598 309.696 271.879 310.035 272.349C310.374 272.819 310.807 273.29 311.238 273.771C311.668 274.251 312.079 274.694 312.439 275.123C312.787 275.535 312.995 275.743 313.056 275.753C313.197 275.819 313.328 275.887 313.449 275.958C329.91 277.084 346.371 278.429 362.829 279.929V279.424V278.919V278.918V278.414V277.909V277.907V277.405V276.899V276.897V276.395V275.89V275.886V275.385V274.88V274.875V274.375V273.869V273.865V273.364V272.859V272.854V272.354V271.849V271.843V271.344V270.839V270.833V270.334V269.828V269.822V269.323V268.818V268.811V268.313V267.808V267.8V267.302V266.797V266.789V266.292V265.787V265.779V265.281V264.776V264.768V264.271V263.765V263.757V263.26V262.755V262.746V262.25V261.744V261.736V261.239V260.734V260.725V260.229V259.723V259.714V259.218V258.712V258.704V258.207V257.702V257.693V257.196V256.691V256.682V256.186V255.68V255.671V255.175V254.67V254.66V254.164V253.66V253.65V253.154V252.649V252.639V252.143V251.638V251.628V251.133V250.627V250.618V250.122V249.617V249.607V249.112V248.606V248.596V248.101V247.596V247.585V247.091V246.587V246.575V246.082V245.576V245.564V245.072V244.566V244.553V244.061V243.556V243.542V243.051V242.546V242.532V242.041V241.536V241.521V241.031V240.525V240.51V240.02V239.515V239.499V239.01V238.504V238.489V237.999V237.493V237.478V236.988V236.483V236.467V235.977V235.472V235.456V234.966V234.461V234.445V233.955V233.45V233.435V232.944V232.439V232.424V231.933V231.428V231.413V230.922V230.416V230.403V229.911V229.405V229.392V228.9V228.394V228.381V227.888V227.383V227.371V226.877V226.372V226.36V225.866V225.36V225.349V224.855V224.349V224.338V223.843V223.337V223.327V222.832V222.326V222.317V221.82V221.315V221.306V220.809V220.304V220.295V219.798V219.292V219.285V218.787V218.281V218.274V217.775V217.27V217.263V216.764V216.258V216.252V215.753V215.247V215.242C355.451 214.024 348.183 212.887 341.01 211.83C341.11 211.942 341.219 212.054 341.352 212.178C341.518 212.335 341.598 212.428 341.66 212.428C341.69 212.428 341.721 212.435 341.752 212.438C342.121 212.484 342.307 212.849 342.307 213.549C342.307 213.93 342.306 214.421 342.276 215.032C342.246 215.651 342.183 216.273 342.121 216.914C342.061 217.554 341.999 218.136 341.968 218.676C341.938 219.206 341.944 219.588 341.937 219.807C341.883 221.679 341.814 223.552 341.752 225.434C345.543 225.925 349.343 226.356 353.156 226.915C353.509 226.967 353.782 227.25 354.081 227.656C354.367 228.041 354.482 228.477 354.482 228.958C354.482 229.498 354.368 229.929 354.081 230.209C353.783 230.5 353.498 230.606 353.156 230.559C349.306 230.036 345.482 229.548 341.66 229.058C341.66 229.409 341.66 229.758 341.66 230.099C341.66 232.091 341.628 234.334 341.598 236.837C341.567 239.328 341.567 241.983 341.567 244.786C341.567 247.53 341.567 250.134 341.598 252.575C341.628 255.029 341.66 257.171 341.66 259.003C341.66 260.235 341.66 261.476 341.66 262.717C341.66 263.518 341.872 264.342 342.307 265.19C342.734 266.023 343.302 266.774 343.971 267.443C344.626 268.095 345.361 268.629 346.191 269.015C346.994 269.388 347.823 269.527 348.626 269.445C349.087 269.398 349.363 269.351 349.488 269.285C349.61 269.221 349.737 269.346 349.859 269.626C349.983 269.915 350.074 270.207 350.136 270.527C350.196 270.827 350.228 271.107 350.228 271.377C350.228 271.858 350.03 272.077 349.674 272.188C348.39 272.588 347.516 272.989 346.93 273.209C346.376 273.419 345.914 273.558 345.513 273.61C345.144 273.658 344.679 273.652 344.095 273.57C343.199 273.443 342.336 273.309 341.474 273.189C340.333 273.03 339.011 272.592 337.498 271.898C335.961 271.191 334.675 270.26 333.707 269.025C333.011 268.138 332.611 267.239 332.413 266.361C332.211 265.468 332.132 264.449 332.197 263.279C332.254 262.257 332.321 260.565 332.352 258.192C332.382 255.8 332.413 253.116 332.413 250.112C332.413 246.419 332.413 242.715 332.413 239.02C332.413 235.325 332.413 231.611 332.413 227.907C329.823 227.606 327.235 227.291 324.645 226.986C324.277 226.942 323.934 226.747 323.629 226.395C323.319 226.037 323.135 225.584 323.135 225.043C323.135 224.513 323.32 224.092 323.629 223.782C323.936 223.471 324.277 223.339 324.645 223.382C327.265 223.689 329.885 224.002 332.505 224.303C332.505 223.232 332.505 222.16 332.505 221.079C332.505 220.928 332.474 220.568 332.443 220.027C332.413 219.488 332.352 218.936 332.259 218.355C332.167 217.775 332.042 217.244 331.919 216.754C331.795 216.253 331.637 216.019 331.458 215.972C330.956 215.839 330.375 215.558 329.7 215.212C329.05 214.879 328.499 214.651 328.067 214.541C327.944 214.421 327.791 214.19 327.666 213.85C327.545 213.52 327.536 213.287 327.666 213.21C328.367 212.797 329.178 212.546 330.101 212.409C330.996 212.276 332.013 212.162 333.091 212.108C334.2 212.052 335.341 211.987 336.512 211.938C337.522 211.896 338.49 211.783 339.433 211.599C330.604 210.311 321.92 209.146 313.352 208.105V155.723C313.352 147.692 307.517 147.175 307.517 147.175C323.169 129.138 304.427 112.987 285.692 102.522C266.953 112.987 248.216 129.138 263.865 147.175C263.865 147.175 258.028 147.692 258.028 155.723V203.033C254.759 202.838 251.5 202.663 248.25 202.509V127.492C248.25 117.582 241.05 116.94 241.05 116.94C260.368 94.6792 237.237 74.7507 214.114 61.8324C190.985 74.7507 167.858 94.6792 187.177 116.94C187.177 116.94 179.966 117.582 179.966 127.492V195.491C182.953 195.84 185.708 196.766 188.222 198.261C188.686 198.032 189.147 198.363 189.61 199.283C190.07 200.195 190.288 201.377 190.257 202.837C190.227 204.309 190.194 205.561 190.164 206.601C190.134 207.642 190.102 209.215 190.072 211.297C190.042 213.389 190.01 215.502 189.949 217.635C193.062 217.465 196.173 217.211 199.288 217.104C199.905 217.082 200.455 217.331 200.922 217.665C201.409 218.013 201.631 218.405 201.631 218.886C201.631 219.447 201.407 219.897 200.922 220.237C200.452 220.567 199.903 220.747 199.288 220.778C196.175 220.937 193.062 221.129 189.949 221.319C189.857 224.763 189.825 228.027 189.794 231.1C189.764 234.183 189.733 236.667 189.733 238.539C189.733 241.463 189.733 244.386 189.733 247.299C189.733 247.97 189.764 248.972 189.794 250.262C189.825 251.574 189.857 252.917 189.887 254.288C189.918 255.669 189.949 257.222 189.98 258.943C190.009 260.654 190.613 262.033 191.768 263.048C192.924 264.065 194.48 264.389 196.36 264.049C196.668 264.92 196.822 265.65 196.822 266.272C196.822 266.542 196.695 266.703 196.391 266.812C196.11 266.912 195.744 267.036 195.312 267.172C194.512 267.426 193.31 267.653 191.768 267.813C190.228 267.972 188.901 268.004 187.76 267.943C186.621 267.884 185.569 267.732 184.586 267.473C183.629 267.222 182.983 267.099 182.675 267.122C182.336 267.148 182.09 266.841 181.873 266.172C181.659 265.511 181.44 264.76 181.288 263.949C181.133 263.119 181.009 262.316 180.918 261.546C180.825 260.766 180.705 260.29 180.672 260.074C180.582 259.508 180.548 258.892 180.486 258.242C180.425 257.591 180.393 256.9 180.393 256.17C176.449 261.326 173.364 264.397 171.208 265.33C169.02 266.278 167.602 266.792 166.894 266.862C161.499 262.948 158.018 260.451 156.506 259.404C154.999 258.36 153.809 256.957 152.961 255.168C152.115 253.383 151.697 251.545 151.697 249.642C151.697 249.612 151.697 249.582 151.697 249.562C151.697 247.55 152.201 245.441 153.177 243.184C154.141 240.956 155.84 238.821 158.201 236.777C159.413 235.728 161.535 233.969 164.551 231.541C167.575 229.105 169.174 227.765 169.359 227.486C169.543 227.206 170.557 227.44 172.411 228.147C174.285 228.86 175.74 229.208 176.756 229.198C177.803 229.188 178.645 229.202 179.253 229.348C179.971 229.522 180.268 229.347 180.301 228.718C180.329 228.194 180.425 227.466 180.456 226.516C180.486 225.575 180.486 224.692 180.486 223.852C180.486 223.221 180.486 222.6 180.486 221.959C169.945 222.791 159.403 223.707 148.862 224.723C148.185 224.788 147.539 224.698 146.982 224.432C146.429 224.168 146.118 223.752 146.118 223.18C146.118 222.641 146.429 222.162 146.982 221.739C147.539 221.312 148.184 221.052 148.862 220.989C159.402 219.992 169.945 219.087 180.486 218.276C180.486 213.36 179.962 208.683 178.884 204.259C178.756 203.736 178.629 203.244 178.502 202.781C176.198 202.895 173.894 203.018 171.589 203.152L170.283 203.269L170.192 200.152V155.723C170.192 147.692 164.357 147.175 164.357 147.175C180.008 129.138 161.267 112.987 142.532 102.522C123.793 112.987 105.057 129.138 120.705 147.175C120.705 147.175 114.868 147.692 114.868 155.723V207.771C98.7819 209.766 82.3538 212.254 65.3949 215.242V215.247V215.753V216.252V216.258V216.764V217.263V217.27V217.775V218.274V218.281V218.787V219.285V219.292V219.798V220.295V220.304V220.809V221.306V221.315V221.82V222.317V222.326V222.832V223.327V223.337V223.843V224.338V224.349V224.855V225.349V225.36V225.866V226.36V226.372V226.877V227.371V227.383V227.888V228.381V228.394V228.9V229.392V229.405V229.911V230.403V230.416V230.922V231.413V231.428V231.933V232.424V232.439V232.944V233.435V233.45V233.955V234.445V234.461V234.966V235.456V235.472V235.977V236.467V236.483V236.988V237.478V237.493V237.999V238.489V238.504V239.01V239.499V239.515V240.02V240.51V240.525V241.031V241.521V241.536V242.041V242.532V242.546V243.051V243.542V243.556V244.061V244.553V244.566V245.072V245.564V245.576V246.082V246.575V246.587V247.091V247.585V247.596V248.101V248.596V248.606V249.112V249.607V249.617V250.122V250.618V250.627V251.133V251.628V251.638V252.143V252.639V252.649V253.154V253.65V253.66V254.164V254.66V254.67V255.175V255.671V255.68V256.186V256.682V256.691V257.196V257.693V257.702V258.207V258.704V258.712V259.218V259.714V259.723V260.229V260.725V260.734V261.239V261.736V261.744V262.25V262.746V262.755V263.26V263.757V263.765V264.271V264.768V264.776V265.281V265.779V265.787V266.292V266.789V266.797V267.302V267.8V267.808V268.313V268.811V268.818V269.323V269.822V269.828V270.334V270.833V270.839V271.344V271.843V271.849V272.354V272.854V272.859V273.364V273.865V273.869V274.375V274.875V274.88V275.385V275.886V275.89V276.395V276.897V276.899V277.405V277.907V277.909V278.414V278.918V278.919V279.424V279.929ZM302.009 277.285V305.655C299.397 306.238 297.439 308.573 297.439 311.358C297.439 314.402 299.787 316.88 302.756 317.148V318.444H301.233V324.363C300.319 325.01 299.718 326.069 299.718 327.274C299.718 328.496 300.335 329.574 301.269 330.219C299.907 330.941 298.967 332.357 298.967 334.013C298.967 335.498 299.713 336.805 300.857 337.584C299.25 340.189 296.881 342.296 293.39 343.175C293.39 343.175 281.375 345.834 282.481 354.249H281.889C280.506 354.249 279.381 355.372 279.381 356.755C279.381 358.136 280.506 359.259 281.889 359.259H282.539V406.13H281.889C280.506 406.13 279.381 407.253 279.381 408.637C279.381 410.022 280.506 411.142 281.889 411.142H285.659C286.823 411.506 287.669 412.579 287.669 413.854C287.669 415.433 286.39 416.712 284.809 416.712H282.496C281.144 425.311 293.39 428.013 293.39 428.013C296.568 428.811 298.812 430.637 300.398 432.922C299.522 433.708 298.967 434.842 298.967 436.115C298.967 438.499 300.895 440.429 303.279 440.429C305.663 440.429 307.597 438.499 307.597 436.115C307.597 434.842 307.037 433.71 306.165 432.922C307.756 430.637 309.995 428.811 313.169 428.013C313.169 428.013 325.42 425.311 324.067 416.712H321.755C320.173 416.712 318.895 415.433 318.895 413.854C318.895 412.579 319.739 411.506 320.899 411.142H324.673C326.056 411.142 327.182 410.022 327.182 408.637C327.182 407.253 326.056 406.13 324.673 406.13H324.022V359.259H324.673C326.056 359.259 327.182 358.136 327.182 356.755C327.182 355.372 326.056 354.249 324.673 354.249H324.082C325.188 345.834 313.169 343.175 313.169 343.175C309.677 342.296 307.313 340.188 305.706 337.582C306.85 336.805 307.597 335.498 307.597 334.013C307.597 332.357 306.656 330.941 305.289 330.219C306.228 329.574 306.84 328.496 306.84 327.274C306.84 326.069 306.245 325.01 305.33 324.363V318.444H303.801V317.148C306.777 316.88 309.119 314.402 309.119 311.358C309.119 308.575 307.166 306.24 304.555 305.656V280.516C304.244 280.179 303.893 279.813 303.501 279.417C303.38 279.295 303.131 278.917 302.761 278.255C302.553 277.885 302.301 277.558 302.009 277.285ZM303.279 366.389C300.389 366.389 298.04 368.736 298.04 371.628V406.13H308.524V371.628C308.524 368.736 306.17 366.389 303.279 366.389ZM317.866 366.389C315.675 366.389 313.895 368.168 313.895 370.358V406.13H321.829V370.358C321.829 368.168 320.058 366.389 317.866 366.389ZM288.693 366.389C286.505 366.389 284.73 368.168 284.73 370.358V406.13H292.663V370.358C292.663 368.168 290.884 366.389 288.693 366.389ZM220.883 88.98L225.844 95.7495L217.495 94.8431L214.114 102.522L210.726 94.8431L202.384 95.7495L207.338 88.98L202.384 82.2074L210.726 83.1139L214.114 75.4376L217.495 83.1139L225.844 82.2074L220.883 88.98ZM202.194 187.172H189.553V159.164C189.553 155.688 192.397 152.844 195.874 152.844C199.35 152.844 202.194 155.688 202.194 159.164V187.172ZM220.43 187.172H207.79V159.164C207.79 155.688 210.633 152.844 214.109 152.844C217.586 152.844 220.43 155.688 220.43 159.164V187.172ZM238.665 187.172H226.026V159.164C226.026 155.688 228.869 152.844 232.345 152.844C235.822 152.844 238.665 155.688 238.665 159.164V187.172ZM162.426 178.599H152.188V155.907C152.188 153.091 154.491 150.789 157.307 150.789H157.308C160.123 150.789 162.426 153.091 162.426 155.907V178.599ZM147.652 178.599H137.413V155.907C137.413 153.091 139.717 150.789 142.532 150.789H142.533C145.349 150.789 147.652 153.091 147.652 155.907V178.599ZM132.877 178.599H122.639V155.907C122.639 153.091 124.942 150.789 127.757 150.789H127.758C130.574 150.789 132.877 153.091 132.877 155.907V178.599ZM305.587 178.599H295.348V155.907C295.348 153.091 297.651 150.789 300.467 150.789H300.468C303.283 150.789 305.587 153.091 305.587 155.907V178.599ZM290.812 178.599H280.574V155.907C280.574 153.091 282.877 150.789 285.692 150.789H285.693C288.509 150.789 290.812 153.091 290.812 155.907V178.599ZM276.037 178.599H265.799V155.907C265.799 153.091 268.102 150.789 270.917 150.789H270.918C273.734 150.789 276.037 153.091 276.037 155.907V178.599ZM110.578 308.453H0L21.0321 278.019L0 247.585H61.1611V279.929V284.614L65.8228 284.141C80.7286 282.629 95.6488 281.342 110.578 280.277V308.453ZM367.063 247.585H428L407.564 278.019L428 308.453H317.387V284.039C317.531 283.829 317.725 283.607 317.955 283.369C318.356 282.956 318.799 282.575 319.252 282.21C319.69 281.856 320.106 281.523 320.517 281.256C320.94 280.982 321.234 280.819 321.41 280.818C321.787 280.813 322.011 280.731 322.093 280.535C335.534 281.544 348.968 282.743 362.391 284.141L367.063 284.626V279.929V247.585ZM66.3559 73.5398L69.2817 80.1829L76.4948 79.3977L72.2108 85.2537L76.4948 91.1097L69.2817 90.3221L66.3559 96.9646L63.426 90.3221L56.2129 91.1097L60.4999 85.2537L56.2129 79.3977L63.426 80.1829L66.3559 73.5398ZM111.276 50.1204L114.208 56.758L121.42 55.9764L117.13 61.8324L121.42 67.6854L114.208 66.9035L111.276 73.5398L108.352 66.9035L101.136 67.6854L105.421 61.8324L101.136 55.9764L108.352 56.758L111.276 50.1204ZM156.201 26.6999L159.127 33.3387L166.34 32.5516L162.056 38.4076L166.34 44.2625L159.127 43.4798L156.201 50.1204L153.269 43.4798L146.056 44.2625L150.345 38.4076L146.056 32.5516L153.269 33.3387L156.201 26.6999ZM361.872 73.5398L358.943 80.1829L351.727 79.3977L356.016 85.2537L351.727 91.1097L358.943 90.3221L361.872 96.9646L364.798 90.3221L372.013 91.1097L367.727 85.2537L372.013 79.3977L364.798 80.1829L361.872 73.5398ZM316.946 50.1204L314.022 56.758L306.808 55.9764L311.091 61.8324L306.808 67.6854L314.022 66.9035L316.946 73.5398L319.878 66.9035L327.091 67.6854L322.801 61.8324L327.091 55.9764L319.878 56.758L316.946 50.1204ZM272.023 26.6999L269.096 33.3387L261.884 32.5516L266.17 38.4076L261.884 44.2625L269.096 43.4798L272.023 50.1204L274.952 43.4798L282.168 44.2625L277.881 38.4076L282.168 32.5516L274.952 33.3387L272.023 26.6999ZM220.606 41.6677C206.358 38.5821 197.311 24.526 200.398 10.279C201.233 6.42542 202.876 2.95777 205.102 0C198.139 3.43844 192.744 9.89965 190.97 18.0834C187.88 32.3301 196.929 46.3851 211.177 49.471C221.571 51.7233 231.853 47.5152 237.859 39.5443C232.696 42.0907 226.672 42.9816 220.606 41.6677ZM124.938 311.175C124.234 311.175 123.664 310.604 123.664 309.901V306.729C121.632 307.287 120.134 309.152 120.134 311.358C120.134 313.828 122.014 315.843 124.413 316.106V315.444C124.413 315.156 124.648 314.924 124.936 314.924C125.218 314.924 125.457 315.156 125.457 315.444V316.106C127.854 315.843 129.742 313.828 129.742 311.358C129.742 309.154 128.242 307.29 126.211 306.73V309.901C126.211 310.604 125.64 311.175 124.938 311.175ZM124.936 366.389C122.045 366.389 119.696 368.736 119.696 371.628V406.13H130.18V371.628C130.18 368.736 127.825 366.389 124.936 366.389ZM139.522 366.389C137.331 366.389 135.551 368.168 135.551 370.358V406.13H143.485V370.358C143.485 368.168 141.714 366.389 139.522 366.389ZM110.349 366.389C108.161 366.389 106.386 368.168 106.386 370.358V406.13H114.319V370.358C114.319 368.168 112.54 366.389 110.349 366.389ZM170.22 316.554C170.353 316.554 170.641 316.631 171.083 316.785C171.526 316.94 171.857 317.062 172.079 317.151C172.166 317.238 172.255 317.36 172.344 317.515C172.432 317.67 172.432 317.835 172.344 318.013C172.079 318.809 171.824 319.804 171.581 320.998C171.337 322.193 170.962 323.432 170.453 324.714C169.944 325.996 169.248 327.279 168.363 328.562C167.478 329.845 166.306 330.972 164.846 331.946C164.183 331.946 163.442 331.725 162.623 331.283C161.806 330.84 160.743 330.365 159.439 329.856C158.134 329.347 156.519 328.872 154.596 328.429C152.671 327.987 150.261 327.766 147.363 327.766C145.384 327.766 143.625 327.822 142.077 327.932C140.541 328.042 139.434 328.142 138.771 328.23C138.195 328.23 137.864 328.208 137.776 328.164C137.687 327.944 137.576 327.589 137.443 327.103C137.311 326.616 137.289 326.262 137.378 326.04C138.881 325.82 140.087 325.488 140.993 325.046C141.9 324.603 142.464 323.918 142.686 322.989C142.73 322.68 142.775 322.303 142.818 321.861C142.862 321.418 142.906 320.832 142.951 320.102C142.995 319.373 143.028 318.466 143.051 317.382C143.073 316.298 143.084 314.961 143.084 313.369V300.098C143.084 298.682 143.073 297.478 143.051 296.483C143.028 295.488 142.995 294.613 142.951 293.861C142.906 293.109 142.852 292.468 142.785 291.938C142.719 291.406 142.642 290.898 142.553 290.411C142.508 290.102 142.42 289.725 142.288 289.283C142.155 288.841 141.911 288.421 141.558 288.023C141.204 287.624 140.684 287.292 139.998 287.027C139.312 286.762 138.394 286.651 137.244 286.695C136.935 286.695 136.846 286.364 136.979 285.7L137.51 284.374C137.555 284.196 137.643 284.108 137.776 284.108C139.191 284.152 140.695 284.351 142.276 284.705C143.869 285.059 145.461 285.468 147.065 285.932C148.657 286.397 150.227 286.84 151.742 287.26C153.268 287.68 154.694 287.978 156.022 288.156C156.198 288.243 156.342 288.587 156.453 289.184C156.563 289.781 156.596 290.19 156.553 290.411C155.844 290.544 155.16 290.61 154.495 290.61C153.832 290.61 153.235 290.655 152.704 290.743C152.174 290.831 151.731 290.997 151.377 291.24C151.023 291.484 150.802 291.915 150.714 292.535C150.625 292.977 150.559 293.386 150.514 293.762C150.47 294.137 150.426 294.624 150.381 295.221C150.338 295.818 150.315 296.603 150.315 297.577V301.425L150.381 309.719C150.381 312.152 150.393 314.154 150.416 315.723C150.437 317.294 150.46 318.554 150.481 319.505C150.503 320.457 150.526 321.175 150.548 321.661C150.57 322.148 150.603 322.546 150.647 322.856C150.692 323.476 150.802 323.907 150.979 324.15C151.156 324.393 151.488 324.603 151.975 324.78C152.505 324.958 153.158 325.078 153.931 325.145C154.706 325.212 155.823 325.244 157.282 325.244C158.432 325.244 159.539 325.2 160.6 325.112C161.661 325.024 162.656 324.846 163.585 324.581C164.515 324.316 165.355 323.918 166.107 323.387C166.859 322.856 167.5 322.17 168.031 321.33C168.341 320.844 168.617 320.268 168.861 319.605C169.103 318.942 169.336 318.079 169.557 317.017C169.646 316.708 169.845 316.554 170.154 316.554H170.22ZM178.713 305.937C179.244 305.052 179.808 304.367 180.405 303.88C181.003 303.393 181.622 302.963 182.263 302.586C182.904 302.211 183.579 301.867 184.287 301.558C184.994 301.248 185.768 300.85 186.609 300.363C186.918 300.187 187.184 299.921 187.405 299.567C187.626 299.214 187.803 298.86 187.935 298.506C188.069 298.152 188.179 297.842 188.267 297.577C188.356 297.312 188.445 297.179 188.532 297.179C188.621 297.179 188.688 297.301 188.731 297.544C188.776 297.787 188.864 298.085 188.998 298.439C189.129 298.793 189.351 299.169 189.661 299.567C189.97 299.965 190.457 300.319 191.12 300.629C192.138 301.115 193.111 301.525 194.04 301.857C194.969 302.188 195.742 302.686 196.362 303.349C196.981 304.057 197.379 304.709 197.557 305.307C197.733 305.904 197.822 306.489 197.822 307.065C198.22 308.126 198.33 311.577 198.154 317.416C197.976 323.254 198.154 327.401 198.685 329.856C199.215 332.311 199.613 333.538 199.879 333.538C200.365 333.538 200.918 333.439 201.537 333.24C202.156 333.041 202.577 332.875 202.798 332.742C202.931 332.654 203.097 332.731 203.296 332.974C203.495 333.218 203.572 333.45 203.528 333.671L203.329 334.866C203.329 335.131 203.152 335.353 202.798 335.529C202.533 335.662 202.09 335.838 201.472 336.06C200.852 336.281 200.155 336.491 199.381 336.69C198.608 336.889 197.8 337.065 196.96 337.221C196.119 337.376 195.344 337.453 194.637 337.453C194.327 337.453 193.974 336.945 193.576 335.927C193.178 334.91 192.801 333.716 192.447 332.344C192.094 330.972 191.773 329.59 191.485 328.197C191.198 326.804 191.01 325.731 190.921 324.979C190.213 325.378 189.417 325.787 188.532 326.207C187.649 326.628 186.797 327.014 185.979 327.368C185.16 327.722 184.441 328.009 183.822 328.23C183.203 328.452 182.783 328.562 182.561 328.562C181.191 328.562 179.841 327.943 178.514 326.705C178.16 326.351 177.751 325.72 177.287 324.813C176.823 323.907 176.59 322.79 176.59 321.463C176.59 321.02 176.767 320.545 177.121 320.036C177.474 319.528 177.905 319.019 178.415 318.51C178.924 318.002 179.465 317.537 180.04 317.116C180.615 316.697 181.146 316.354 181.633 316.088C183.181 315.292 184.707 314.484 186.211 313.667C187.715 312.849 189.351 312.306 191.12 312.041C191.12 311.688 191.132 311.433 191.154 311.278C191.176 311.124 191.187 310.979 191.187 310.847V309.653C191.187 308.547 191.087 307.606 190.888 306.833C190.689 306.058 190.435 305.561 190.125 305.34C189.86 305.03 189.384 304.754 188.698 304.51C188.014 304.267 187.228 304.145 186.343 304.145C186.033 304.323 185.713 304.522 185.382 304.743C185.05 304.964 184.707 305.185 184.352 305.406C184.309 305.716 184.275 306.07 184.254 306.468C184.231 306.866 184.221 307.375 184.221 307.993C184.221 308.436 184.066 308.702 183.755 308.79L179.575 310.051C179.222 310.183 178.912 310.271 178.647 310.316C178.381 310.36 178.205 310.382 178.116 310.382C177.453 310.382 177.065 310.217 176.955 309.885C176.845 309.553 176.889 309.144 177.088 308.657C177.287 308.171 177.563 307.674 177.917 307.164C178.271 306.656 178.536 306.246 178.713 305.937ZM172.941 293.729C172.941 293.287 173.084 292.921 173.372 292.634C173.66 292.346 174.002 292.203 174.4 292.203H202.201C202.555 292.247 202.865 292.413 203.13 292.7C203.395 292.987 203.528 293.331 203.528 293.729C203.528 294.171 203.395 294.525 203.13 294.79C202.865 295.055 202.555 295.188 202.201 295.188H174.4C174.002 295.188 173.66 295.055 173.372 294.79C173.084 294.525 172.941 294.171 172.941 293.729ZM188.666 277.804C189.019 277.804 189.285 278.092 189.462 278.668C189.462 278.756 189.584 278.977 189.827 279.33C190.07 279.684 190.347 280.038 190.656 280.393C190.965 280.746 191.242 281.078 191.485 281.388C191.729 281.697 191.873 281.852 191.917 281.852C192.271 281.985 192.525 282.15 192.679 282.349C192.834 282.548 192.912 282.958 192.912 283.578C192.912 283.887 192.735 284.063 192.381 284.108C192.249 284.152 192.028 284.318 191.718 284.606C191.408 284.894 191.087 285.225 190.756 285.601C190.424 285.977 190.103 286.374 189.794 286.796C189.484 287.215 189.285 287.58 189.197 287.89C189.108 288.243 188.754 288.421 188.134 288.421C187.604 288.421 187.173 288.189 186.841 287.724C186.509 287.26 185.989 286.651 185.282 285.899C185.193 285.81 185.017 285.512 184.751 285.004C184.486 284.495 184.132 284.131 183.689 283.909C183.07 283.644 182.76 283.29 182.76 282.848C182.76 282.625 182.86 282.372 183.059 282.084C183.258 281.797 183.49 281.63 183.755 281.587C183.933 281.587 184.209 281.431 184.585 281.122C184.961 280.813 185.337 280.47 185.713 280.094C186.089 279.717 186.432 279.363 186.741 279.033C187.052 278.701 187.228 278.49 187.272 278.402C187.449 278.004 187.626 277.804 187.803 277.804H188.666ZM186.675 324.448C186.94 324.448 187.338 324.371 187.869 324.216C188.4 324.061 189.064 323.807 189.86 323.453C190.48 323.099 190.855 322.635 190.988 322.06C190.988 321.839 191 321.518 191.021 321.098C191.043 320.678 191.065 320.224 191.087 319.738C191.11 319.251 191.12 318.786 191.12 318.345V317.283C191.12 316.531 191.01 316.155 190.789 316.155C189.993 316.287 189.384 316.432 188.965 316.586C188.544 316.741 188.223 316.907 188.002 317.084C187.781 317.261 187.593 317.437 187.438 317.615C187.283 317.791 187.029 317.99 186.675 318.212C186.41 318.433 186.199 318.698 186.045 319.008C185.89 319.317 185.813 319.782 185.813 320.401C185.813 320.932 185.757 321.452 185.647 321.961C185.537 322.469 185.469 322.9 185.448 323.254C185.425 323.608 185.492 323.895 185.647 324.117C185.802 324.338 186.122 324.448 186.609 324.448H186.675ZM188.134 331.813C187.647 332.167 187.161 332.587 186.675 333.074C186.32 333.428 186.166 333.782 186.21 334.135C186.254 334.489 186.232 334.843 186.144 335.197C186.1 335.507 186.111 336.049 186.177 336.823C186.243 337.597 186.486 338.393 186.907 339.212C187.327 340.029 187.98 340.804 188.864 341.533C189.749 342.263 190.965 342.739 192.513 342.96L194.172 343.291C194.879 343.425 195.875 343.591 197.158 343.79C198.44 343.989 200.166 344.066 202.333 344.022C204.5 343.977 207.165 343.723 210.329 343.259C213.491 342.795 217.284 341.964 221.707 340.77C222.768 340.505 223.653 340.162 224.361 339.742C225.068 339.322 225.633 338.891 226.053 338.449C226.473 338.006 226.782 337.575 226.981 337.154C227.18 336.734 227.281 336.369 227.281 336.06C227.281 335.618 227.192 335.164 227.016 334.7C226.838 334.236 226.462 333.782 225.887 333.339C225.267 332.941 224.449 332.632 223.433 332.41C222.415 332.189 221.309 332.079 220.115 332.079H218.324C217.792 332.079 217.184 332.056 216.499 332.012C215.813 331.968 214.984 331.902 214.01 331.813C213.038 331.725 211.799 331.614 210.294 331.482C208.481 330.642 207.276 329.89 206.678 329.225C206.081 328.562 205.784 327.744 205.784 326.771C205.784 326.063 205.971 325.532 206.348 325.178C206.723 324.825 207.21 324.515 207.807 324.249C208.404 323.984 209.09 323.708 209.864 323.42C210.638 323.132 211.446 322.724 212.285 322.193C211.533 321.971 210.704 321.64 209.798 321.197C208.891 320.755 208.039 320.202 207.243 319.539C206.314 318.699 205.584 317.636 205.053 316.354C204.522 315.071 204.257 313.789 204.257 312.505C204.257 310.913 204.567 309.487 205.186 308.226C205.805 306.965 206.59 305.838 207.542 304.843C208.493 303.847 209.576 302.94 210.793 302.122C212.009 301.303 213.214 300.563 214.409 299.9C214.718 299.722 214.984 299.457 215.205 299.104C215.426 298.75 215.603 298.395 215.736 298.041C215.868 297.687 215.979 297.378 216.067 297.113C216.156 296.847 216.244 296.715 216.333 296.715C216.422 296.715 216.487 296.836 216.532 297.08C216.577 297.322 216.664 297.621 216.797 297.975C216.93 298.329 217.151 298.705 217.46 299.104C217.771 299.501 218.256 299.855 218.921 300.165C219.319 300.342 219.772 300.563 220.281 300.828C220.789 301.094 221.32 301.348 221.873 301.591C222.426 301.834 223.532 302.597 225.19 303.88C226.85 305.163 227.601 306.158 227.447 306.866C227.292 307.573 227.215 308.923 227.215 310.913C227.215 313.257 226.407 315.359 224.792 317.217C223.178 319.074 221.066 320.49 218.456 321.463C217.616 321.772 216.786 322.104 215.968 322.458C215.15 322.811 214.409 323.144 213.745 323.453C213.347 323.807 213.148 324.161 213.148 324.515C213.148 324.825 213.292 325.101 213.579 325.344C213.867 325.588 214.243 325.787 214.708 325.942C215.172 326.096 215.647 326.174 216.134 326.174H217.593C218.213 326.174 218.832 326.185 219.452 326.207C220.07 326.229 220.646 326.24 221.176 326.24H222.437C223.852 326.24 225.224 326.394 226.55 326.705C227.878 327.014 229.072 327.611 230.133 328.496C230.62 328.894 231.051 329.469 231.428 330.22C231.803 330.972 231.992 331.857 231.992 332.875C231.992 333.981 231.814 334.965 231.46 335.828C231.107 336.69 230.51 337.608 229.669 338.58C228.74 339.598 227.778 340.549 226.782 341.434C225.787 342.319 224.682 343.104 223.466 343.79C222.249 344.475 220.867 345.083 219.319 345.614C217.771 346.145 215.979 346.565 213.944 346.874C211.688 347.406 209.388 347.803 207.044 348.069C204.7 348.335 202.422 348.467 200.21 348.467C197.954 348.467 195.797 348.335 193.741 348.069C191.684 347.803 189.793 347.383 188.069 346.809C185.856 346.101 184.121 345.216 182.859 344.154C181.599 343.093 180.67 342.043 180.072 341.003C179.475 339.964 179.133 339.013 179.044 338.149C178.955 337.287 179 336.657 179.177 336.259C179.664 335.241 180.316 334.323 181.135 333.505C181.953 332.687 182.782 332.101 183.622 331.747C183.976 331.614 184.297 331.47 184.585 331.316C184.872 331.161 185.193 331.017 185.547 330.885C185.635 330.84 185.8 330.873 186.044 330.984C186.287 331.094 186.542 331.216 186.807 331.349C187.073 331.482 187.338 331.603 187.603 331.714C187.869 331.824 188.046 331.857 188.134 331.813ZM221.574 313.7C221.574 312.638 221.442 311.533 221.176 310.382C220.911 309.232 220.557 308.281 220.115 307.529C219.717 306.733 219.064 305.904 218.158 305.042C217.251 304.178 216.111 303.681 214.741 303.548C214.121 303.902 213.436 304.411 212.683 305.074C211.931 305.738 211.179 306.445 210.428 307.197C210.383 307.375 210.362 307.552 210.362 307.728V308.325C210.362 309.653 210.594 311.079 211.058 312.605C211.523 314.131 212.175 315.359 213.015 316.287C213.989 317.393 214.884 318.112 215.703 318.444C216.521 318.776 217.284 318.942 217.992 318.942C218.876 318.942 219.694 318.566 220.447 317.814C221.199 317.062 221.574 315.713 221.574 313.767V313.7ZM200.276 293.729C200.276 293.287 200.431 292.921 200.74 292.634C201.051 292.346 201.426 292.203 201.869 292.203H232.257C232.61 292.247 232.943 292.413 233.252 292.7C233.561 292.987 233.716 293.331 233.716 293.729C233.716 294.171 233.561 294.525 233.252 294.79C232.943 295.055 232.61 295.188 232.257 295.188H201.869C201.426 295.188 201.051 295.055 200.74 294.79C200.431 294.525 200.276 294.171 200.276 293.729ZM236.437 306.866C237.72 305.318 239.058 304.002 240.452 302.918C241.845 301.834 243.337 300.828 244.93 299.9C245.239 299.722 245.505 299.457 245.726 299.104C245.947 298.75 246.124 298.395 246.257 298.041C246.389 297.687 246.5 297.378 246.588 297.113C246.677 296.847 246.766 296.715 246.854 296.715C246.943 296.715 247.009 296.836 247.053 297.08C247.098 297.322 247.185 297.621 247.318 297.975C247.451 298.329 247.672 298.705 247.981 299.104C248.292 299.501 248.779 299.855 249.442 300.165C250.946 300.872 252.428 301.581 253.887 302.288C255.347 302.996 256.663 303.869 257.835 304.909C259.007 305.948 259.947 307.241 260.654 308.79C261.363 310.339 261.717 312.285 261.717 314.629C261.717 316.31 261.473 317.791 260.987 319.074C260.5 320.357 259.947 321.452 259.328 322.359C258.709 323.265 258.078 323.984 257.437 324.515C256.795 325.046 256.32 325.399 256.01 325.577C254.683 326.373 253.191 327.047 251.531 327.6C249.873 328.153 248.358 328.429 246.986 328.429C246.279 328.429 245.438 328.341 244.466 328.164C243.492 327.987 242.519 327.688 241.546 327.268C240.574 326.848 239.633 326.328 238.726 325.71C237.82 325.09 237.034 324.361 236.371 323.52C235.486 322.37 234.811 321.01 234.347 319.439C233.883 317.869 233.65 316.398 233.65 315.027C233.65 313.655 233.894 312.218 234.38 310.714C234.867 309.21 235.553 307.927 236.437 306.866ZM246.147 303.681C245.394 303.593 244.797 303.747 244.344 304.145C243.902 304.544 243.37 304.986 242.752 305.473C242.298 306.18 241.933 307.176 241.646 308.458C241.358 309.741 241.214 311.29 241.214 313.103C241.214 315.226 241.513 317.172 242.11 318.942C242.719 320.711 243.393 322.038 244.145 322.923C245.084 323.984 245.981 324.714 246.854 325.112C247.716 325.51 248.545 325.71 249.353 325.71C249.884 325.71 250.404 325.621 250.913 325.443C251.432 325.267 251.863 324.979 252.217 324.581C252.837 323.962 253.367 323.066 253.788 321.894C254.208 320.722 254.418 319.118 254.418 317.084C254.418 316.199 254.363 315.237 254.252 314.198C254.141 313.158 253.954 312.13 253.688 311.112C253.423 310.095 253.069 309.122 252.648 308.193C252.228 307.264 251.709 306.489 251.089 305.871C250.459 305.251 249.718 304.731 248.845 304.311C247.981 303.891 247.108 303.681 246.213 303.681H246.147ZM229.802 293.729C229.802 293.287 229.968 292.921 230.299 292.634C230.632 292.346 231.041 292.203 231.528 292.203H264.237C264.635 292.247 265 292.413 265.332 292.7C265.665 292.987 265.83 293.331 265.83 293.729C265.83 294.171 265.665 294.525 265.332 294.79C265 295.055 264.635 295.188 264.237 295.188H231.528C231.041 295.188 230.632 295.055 230.299 294.79C229.968 294.525 229.802 294.171 229.802 293.729ZM247.716 277.804C248.07 277.804 248.336 278.092 248.513 278.668C248.513 278.756 248.634 278.977 248.878 279.33C249.121 279.684 249.397 280.038 249.707 280.393C250.016 280.746 250.293 281.078 250.536 281.388C250.78 281.697 250.924 281.852 250.968 281.852C251.322 281.985 251.575 282.15 251.73 282.349C251.885 282.548 251.963 282.958 251.963 283.578C251.963 283.887 251.786 284.063 251.432 284.108C251.299 284.152 251.079 284.318 250.769 284.606C250.459 284.894 250.138 285.225 249.807 285.601C249.475 285.977 249.154 286.374 248.845 286.796C248.535 287.215 248.336 287.58 248.248 287.89C248.159 288.243 247.805 288.421 247.185 288.421C246.655 288.421 246.224 288.189 245.892 287.724C245.56 287.26 245.04 286.651 244.333 285.899C244.244 285.81 244.068 285.512 243.801 285.004C243.536 284.495 243.183 284.131 242.74 283.909C242.122 283.644 241.811 283.29 241.811 282.848C241.811 282.625 241.911 282.372 242.11 282.084C242.309 281.797 242.541 281.63 242.806 281.587C242.984 281.587 243.26 281.431 243.636 281.122C244.012 280.813 244.388 280.47 244.764 280.094C245.14 279.717 245.483 279.363 245.792 279.033C246.102 278.701 246.279 278.49 246.323 278.402C246.5 278.004 246.677 277.804 246.854 277.804H247.716ZM286.532 320.799C286.532 323.188 285.414 325.068 283.181 326.438C282.174 327.059 280.969 327.534 279.554 327.866C278.149 328.197 276.8 328.363 275.517 328.363C273.88 328.363 272.421 328.297 271.138 328.164C269.855 328.031 268.815 327.666 268.019 327.069C267.223 326.472 266.682 325.577 266.394 324.382C266.106 323.188 266.117 321.551 266.427 319.472C266.427 319.074 266.471 318.83 266.56 318.743C266.693 318.654 266.902 318.544 267.19 318.411C267.478 318.278 267.843 318.168 268.285 318.079C268.771 319.052 269.269 319.948 269.778 320.766C270.286 321.584 270.917 322.458 271.669 323.387C272.51 324.448 273.361 325.178 274.224 325.577C275.086 325.975 275.826 326.174 276.446 326.174C276.8 326.174 277.187 326.085 277.607 325.909C278.027 325.731 278.425 325.488 278.802 325.178C279.177 324.869 279.486 324.481 279.73 324.017C279.973 323.553 280.095 323.033 280.095 322.458C280.095 321.706 279.874 321.054 279.432 320.5C278.978 319.948 278.448 319.439 277.828 318.975C277.209 318.51 276.545 318.101 275.86 317.748C275.175 317.393 274.577 317.084 274.091 316.818C273.692 316.597 273.117 316.276 272.355 315.856C271.602 315.437 270.873 314.917 270.154 314.297C269.447 313.678 268.815 312.936 268.252 312.074C267.698 311.212 267.422 310.227 267.422 309.122C267.422 307.972 267.655 306.932 268.119 306.003C268.583 305.074 269.325 304.211 270.342 303.415C271.315 302.663 272.365 302.033 273.493 301.525C274.622 301.016 275.694 300.762 276.711 300.762C277.861 300.762 278.846 300.861 279.664 301.061C280.482 301.26 281.158 301.359 281.688 301.359C282.484 301.359 283.037 301.546 283.347 301.923C283.656 302.298 283.877 302.818 284.01 303.483C284.143 304.145 284.253 304.92 284.342 305.804C284.43 306.689 284.673 307.618 285.071 308.59C285.071 308.812 284.983 309.011 284.806 309.188C284.629 309.365 284.43 309.454 284.209 309.454C283.324 309.454 282.617 309.1 282.086 308.392C281.865 308.038 281.589 307.573 281.256 306.998C280.924 306.424 280.516 305.86 280.029 305.307C279.542 304.754 278.99 304.278 278.37 303.88C277.751 303.482 277.043 303.283 276.247 303.283C275.627 303.283 274.997 303.581 274.356 304.178C273.714 304.776 273.394 305.649 273.394 306.799C273.394 307.375 273.549 307.906 273.858 308.392C274.168 308.878 274.566 309.321 275.053 309.719C275.54 310.117 276.07 310.482 276.645 310.814C277.22 311.145 277.795 311.444 278.37 311.709C278.945 311.975 279.697 312.351 280.626 312.837C281.555 313.324 282.451 313.921 283.313 314.629C284.176 315.336 284.928 316.199 285.569 317.217C286.211 318.233 286.532 319.406 286.532 320.733V320.799ZM262.38 293.729C262.38 293.287 262.513 292.921 262.778 292.634C263.043 292.346 263.353 292.203 263.707 292.203H289.45C289.804 292.247 290.103 292.413 290.346 292.7C290.59 292.987 290.711 293.331 290.711 293.729C290.711 294.171 290.59 294.525 290.346 294.79C290.103 295.055 289.804 295.188 289.45 295.188H263.707C263.353 295.188 263.043 295.055 262.778 294.79C262.513 294.525 262.38 294.171 262.38 293.729ZM276.545 332.742C276.899 332.742 277.176 333.03 277.353 333.604C277.353 333.693 277.474 333.915 277.718 334.269C277.961 334.622 278.249 334.976 278.558 335.33C278.868 335.683 279.144 336.016 279.399 336.325C279.642 336.634 279.786 336.789 279.83 336.789C280.184 336.922 280.438 337.088 280.593 337.287C280.748 337.486 280.825 337.896 280.825 338.514C280.825 338.824 280.648 339.001 280.294 339.046C280.161 339.09 279.94 339.256 279.62 339.543C279.31 339.83 278.99 340.162 278.658 340.538C278.315 340.914 277.994 341.313 277.685 341.732C277.374 342.153 277.165 342.518 277.076 342.828C276.988 343.181 276.634 343.358 276.004 343.358C275.473 343.358 275.042 343.126 274.699 342.661C274.367 342.197 273.847 341.589 273.128 340.837C273.04 340.748 272.863 340.45 272.597 339.941C272.332 339.432 271.979 339.067 271.536 338.847C270.917 338.58 270.607 338.227 270.607 337.784C270.607 337.564 270.707 337.309 270.906 337.022C271.105 336.734 271.337 336.568 271.602 336.524C271.78 336.524 272.056 336.369 272.432 336.06C272.807 335.751 273.184 335.407 273.56 335.032C273.947 334.655 274.29 334.301 274.599 333.969C274.92 333.638 275.097 333.428 275.141 333.339C275.318 332.941 275.495 332.742 275.672 332.742H276.545Z" fill="url(#paint0_linear_705_136)"/>
<defs>
<linearGradient id="paint0_linear_705_136" x1="214.01" y1="331.813" x2="219.715" y2="23.3863" gradientUnits="userSpaceOnUse">
<stop stop-color="#47348C"/>
<stop offset="0.431373" stop-color="#9A3A8A"/>
<stop offset="1" stop-color="#EE4088"/>
</linearGradient>
</defs>
</svg>
