<svg width="21" height="16" viewBox="0 0 21 16" fill="none" xmlns="http://www.w3.org/2000/svg">
<path d="M20.6914 2.18558V14.5453C20.6914 15.3486 20.0814 15.9991 19.3281 15.9991H16.1456V7.75987L10.6914 12.123L5.23724 7.75987V16H2.05474C1.87563 16 1.69828 15.9624 1.53282 15.8893C1.36736 15.8161 1.21703 15.709 1.09042 15.5739C0.963815 15.4388 0.86341 15.2784 0.794945 15.1019C0.72648 14.9255 0.691297 14.7363 0.691407 14.5453V2.18558C0.691407 0.387908 2.61557 -0.638443 3.96391 0.440337L5.23724 1.45958L10.6914 5.82091L16.1456 1.4578L17.4189 0.440337C18.7664 -0.637554 20.6914 0.387908 20.6914 2.18558Z" fill="white"/>
</svg>
