<svg width="263" height="271" viewBox="0 0 263 271" fill="none" xmlns="http://www.w3.org/2000/svg">
<path fill-rule="evenodd" clip-rule="evenodd" d="M186.362 191.213C185.931 191.213 185.58 190.862 185.58 190.43V188.481C184.331 188.823 183.41 189.969 183.41 191.325C183.41 192.843 184.566 194.081 186.04 194.243V193.836C186.04 193.659 186.184 193.516 186.361 193.516C186.534 193.516 186.681 193.659 186.681 193.836V194.243C188.154 194.081 189.314 192.843 189.314 191.325C189.314 189.971 188.393 188.825 187.145 188.481V190.43C187.145 190.862 186.794 191.213 186.362 191.213ZM80.7341 147.613C80.7324 147.552 80.7155 147.44 80.6586 147.28C80.6015 147.12 80.4722 146.951 80.2795 146.757C80.0939 146.57 79.8076 146.397 79.4463 146.246C79.0692 146.09 78.5753 145.998 77.9501 145.976C77.7237 145.968 77.668 145.772 77.8363 145.398C78.028 144.972 78.1582 144.72 78.2153 144.616C78.2715 144.512 78.3871 144.434 78.5372 144.383C79.0873 144.195 79.6731 144.035 80.3365 143.909C80.9988 143.783 81.6813 143.656 82.4011 143.527C83.12 143.398 83.8229 143.249 84.5227 143.097C85.2046 142.948 85.8669 142.737 86.4921 142.512C86.5668 142.486 86.6473 142.477 86.7197 142.445C86.7989 142.409 86.8709 142.374 86.9467 142.365C87.06 142.351 87.1286 142.532 87.1174 142.888C87.0912 143.706 87.0412 144.709 87.0034 145.902C86.9659 147.095 86.9467 148.308 86.9467 149.55C86.9467 151.568 86.9467 153.592 86.9467 155.604C86.9467 157.105 86.8323 158.329 86.6057 159.265C86.3778 160.205 86.0757 160.963 85.735 161.541C85.394 162.119 85.0107 162.57 84.5982 162.901C84.1971 163.221 83.8182 163.505 83.4616 163.749C83.0038 164.064 82.478 164.356 81.9084 164.586C81.3232 164.823 80.7524 165.009 80.1852 165.146C79.6357 165.279 79.1606 165.372 78.7647 165.441C78.3846 165.507 78.1777 165.547 78.1394 165.552C77.8561 165.59 77.7036 165.521 77.6662 165.367C77.5905 165.281 77.5524 165.103 77.5524 164.844C77.5524 164.635 77.5524 164.42 77.5524 164.204C77.5524 164.038 77.6919 163.973 77.9501 163.903C78.8495 163.659 79.4974 163.233 79.9007 162.728C80.3114 162.213 80.5322 161.613 80.6205 160.919C80.6455 160.721 80.6875 160.322 80.7341 159.726C80.7816 159.129 80.8293 158.44 80.8667 157.652C80.9045 156.865 80.9238 156.028 80.9426 155.142C80.9612 154.257 80.9595 153.426 80.9238 152.645C80.8464 150.972 80.7883 149.292 80.7341 147.613ZM74.5975 138.649C74.5975 138.323 74.6942 138.047 74.8822 137.812C75.0725 137.574 75.2803 137.446 75.4692 137.425C80.9238 136.807 86.3755 136.188 91.8337 135.671C92.0223 135.654 92.1935 135.788 92.3449 135.985C92.4962 136.181 92.5718 136.428 92.5718 136.717C92.5718 137.431 92.3251 137.812 91.8337 137.862C86.3783 138.42 80.9231 139.01 75.4692 139.633C75.2798 139.655 75.0698 139.585 74.8822 139.412C74.6915 139.235 74.5975 138.981 74.5975 138.649ZM84.1624 125.828C84.4839 125.792 84.7118 125.988 84.8632 126.394C84.8632 126.461 84.9743 126.612 85.1853 126.855C85.39 127.091 85.6399 127.329 85.9049 127.563C86.17 127.797 86.4119 128.023 86.6245 128.227C86.847 128.441 86.9659 128.541 87.0034 128.535C87.3253 128.603 87.54 128.695 87.6855 128.83C87.8239 128.959 87.8751 129.261 87.8751 129.716C87.8751 129.944 87.7199 130.079 87.4205 130.153C87.3027 130.182 87.0984 130.338 86.8334 130.577C86.5683 130.817 86.2902 131.095 86 131.396C85.7035 131.703 85.4271 132.019 85.1473 132.361C84.8781 132.69 84.708 132.982 84.6361 133.223C84.5566 133.492 84.2376 133.653 83.7079 133.709C83.2345 133.758 82.8574 133.627 82.5718 133.315C82.2895 133.006 81.8365 132.596 81.2076 132.11C81.1366 132.054 80.9738 131.855 80.7341 131.5C80.501 131.154 80.2046 130.912 79.8062 130.799C79.2773 130.648 79.0106 130.417 79.0106 130.097C79.0106 129.925 79.0841 129.726 79.2568 129.507C79.4429 129.27 79.6334 129.106 79.8819 129.064C80.0316 129.039 80.2758 128.904 80.6015 128.64C80.9192 128.382 81.2646 128.098 81.5863 127.784C81.908 127.471 82.2088 127.178 82.4766 126.911C82.7579 126.631 82.9171 126.458 82.95 126.394C83.1066 126.089 83.2533 125.918 83.4047 125.902C83.6505 125.875 83.8977 125.858 84.1624 125.828ZM103.766 143.632C102.497 143.741 101.625 144.087 101.171 144.648C100.281 145.306 99.6678 146.016 99.3336 146.782C99.0054 147.535 98.8411 148.437 98.8411 149.471C98.8411 149.987 98.8792 150.553 98.9549 151.156C99.0306 151.759 99.7815 153.393 101.19 156.028C102.603 158.671 103.918 160.009 105.111 160.076C106.304 160.144 107.528 159.425 108.785 157.93C110.047 156.429 110.666 155.61 110.679 155.45C110.741 154.705 110.812 153.863 110.831 152.934C110.849 151.999 110.849 151.07 110.849 150.135C110.849 149.2 110.849 148.332 110.831 147.539C110.812 146.733 110.749 146.13 110.679 145.717C110.635 145.46 110.564 145.245 110.471 145.059C110.375 144.87 110.134 144.668 109.751 144.481C108.165 143.709 106.19 143.432 103.842 143.632C103.804 143.635 103.784 143.631 103.766 143.632ZM158.011 144.666C158.583 143.734 159.172 143.005 159.734 142.463C160.29 141.929 160.853 141.499 161.42 141.183C161.97 140.878 162.556 140.602 163.182 140.39C163.805 140.178 164.467 139.92 165.208 139.621C165.489 139.509 165.72 139.343 165.909 139.098C166.098 138.852 166.24 138.601 166.364 138.354C166.486 138.108 166.59 137.898 166.666 137.707C166.741 137.523 166.818 137.431 166.894 137.437C166.969 137.443 167.028 137.541 167.064 137.714C167.103 137.892 167.169 138.124 167.291 138.391C167.415 138.659 167.613 138.938 167.879 139.252C168.143 139.565 168.577 139.861 169.148 140.131C169.731 140.408 170.337 140.694 170.947 140.987C171.567 141.284 172.177 141.598 172.747 141.952C173.332 142.317 174.036 142.985 174.849 143.964C175.665 144.947 176.25 145.971 176.61 147.04C176.97 148.111 177.075 149.081 176.894 149.956C176.715 150.828 176.553 151.446 176.383 151.802C176.213 152.159 175.945 152.414 175.588 152.577C175.245 152.733 174.773 152.811 174.167 152.799C173.58 152.787 172.803 152.735 171.875 152.651C170.229 152.502 168.692 152.268 167.291 151.937C165.908 151.611 164.526 151.088 163.182 150.369C163.068 150.393 162.971 150.454 162.897 150.541C162.821 150.632 162.792 150.843 162.784 151.162C162.698 154.269 163.335 156.34 164.697 157.388C166.043 158.425 168.447 158.459 171.875 157.449C171.534 157.486 171.634 157.733 172.178 158.206C172.713 158.673 172.272 159.201 170.872 159.775C169.451 160.357 168.069 160.574 166.723 160.452C165.644 160.354 164.639 160.162 163.731 159.861C162.822 159.561 162.045 159.227 161.382 158.852C160.72 158.477 160.173 158.115 159.734 157.782C159.284 157.439 158.958 157.178 158.768 156.97C158.239 156.391 157.664 155.588 157.083 154.552C156.508 153.528 156.212 152.485 156.212 151.445C156.212 150.405 156.24 149.637 156.287 149.145C156.334 148.647 156.404 148.179 156.534 147.748C156.668 147.3 156.849 146.84 157.083 146.364C157.322 145.875 157.617 145.308 158.011 144.666ZM152.859 134.386C152.859 134.065 152.99 133.804 153.257 133.616C153.539 133.417 153.844 133.326 154.185 133.346C162.575 133.848 170.969 134.443 179.375 135.191C179.683 135.218 179.964 135.399 180.209 135.634C180.456 135.873 180.588 136.133 180.588 136.422C180.588 136.748 180.454 136.999 180.209 137.166C179.961 137.336 179.679 137.408 179.375 137.381C170.967 136.645 162.575 136.019 154.185 135.505C153.844 135.485 153.534 135.385 153.257 135.179C152.985 134.978 152.859 134.705 152.859 134.386ZM167.709 123.73C168.011 123.752 168.239 123.976 168.409 124.407C168.409 124.474 168.508 124.637 168.731 124.917C168.944 125.185 169.186 125.471 169.451 125.766C169.716 126.061 169.959 126.323 170.171 126.548C170.375 126.765 170.511 126.887 170.549 126.887C170.852 127.009 171.08 127.145 171.212 127.298C171.344 127.452 171.42 127.753 171.42 128.209C171.42 128.271 171.269 128.375 170.985 128.516C170.701 128.657 170.364 128.843 170 129.07C169.626 129.304 169.277 129.578 168.92 129.913C168.577 130.235 168.324 130.636 168.163 131.113C168.079 131.362 167.784 131.467 167.235 131.426C166.78 131.393 166.41 131.185 166.117 130.83C165.823 130.472 165.362 130.002 164.754 129.414C164.681 129.345 164.505 129.114 164.28 128.732C164.052 128.345 163.753 128.058 163.352 127.877C162.826 127.64 162.538 127.372 162.538 127.058C162.538 126.794 162.709 126.58 163.068 126.388C163.409 126.206 163.824 125.99 164.28 125.766C164.751 125.535 165.193 125.299 165.625 125.035C166.045 124.777 166.297 124.441 166.496 124.081C166.658 123.788 166.837 123.665 166.951 123.675C167.197 123.695 167.444 123.711 167.709 123.73ZM170.152 147.132C170.152 146.647 170.038 146.142 169.849 145.625C169.659 145.109 169.387 144.647 169.034 144.21C168.686 143.78 168.3 143.416 167.86 143.14C167.41 142.856 166.932 142.701 166.439 142.66C165.966 142.621 165.527 142.73 165.094 142.993C164.676 143.246 164.289 143.627 163.939 144.118C163.589 144.61 163.305 145.186 163.087 145.859C162.869 146.532 162.784 147.293 162.784 148.129C162.784 148.449 162.995 148.722 163.447 148.972C163.884 149.214 164.393 149.424 164.943 149.593C165.51 149.768 166.061 149.897 166.572 149.987C167.102 150.08 167.444 150.134 167.595 150.147C167.86 150.17 168.125 150.198 168.409 150.221C168.636 150.24 168.843 150.222 169.034 150.178C169.24 150.13 169.407 150.005 169.584 149.815C169.766 149.618 169.906 149.311 170 148.886C170.095 148.456 170.152 147.889 170.152 147.182C170.152 147.163 170.152 147.151 170.152 147.132ZM198.221 158.342C198.221 160.113 197.234 161.389 195.285 162.162C194.413 162.508 193.353 162.728 192.122 162.82C190.891 162.912 189.717 162.899 188.599 162.765C187.161 162.592 185.891 162.391 184.755 162.162C183.637 161.937 182.726 161.568 182.027 161.049C181.344 160.541 180.862 159.833 180.606 158.926C180.351 158.018 180.422 156.828 180.645 155.321C180.687 155.036 180.674 154.847 180.758 154.798C180.865 154.736 181.061 154.687 181.307 154.613C181.554 154.539 181.876 154.497 182.273 154.472C182.69 155.235 183.132 155.932 183.58 156.589C184.022 157.236 184.569 157.938 185.228 158.698C185.971 159.556 186.704 160.19 187.463 160.575C188.219 160.958 188.865 161.174 189.395 161.239C189.717 161.279 190.058 161.257 190.418 161.172C190.777 161.086 191.134 160.938 191.459 160.753C191.796 160.563 192.065 160.309 192.274 159.991C192.481 159.676 192.596 159.307 192.596 158.883C192.596 158.323 192.407 157.818 192.009 157.363C191.611 156.908 191.156 156.478 190.607 156.065C190.077 155.666 189.486 155.296 188.884 154.964C188.293 154.639 187.768 154.345 187.349 154.103C186.992 153.896 186.495 153.606 185.834 153.223C185.17 152.838 184.528 152.384 183.902 151.863C183.279 151.345 182.724 150.746 182.235 150.055C181.759 149.381 181.516 148.627 181.516 147.816C181.516 146.972 181.725 146.229 182.122 145.588C182.521 144.944 183.181 144.373 184.073 143.879C184.923 143.407 185.835 143.051 186.819 142.777C187.804 142.503 188.751 142.42 189.641 142.512C190.645 142.616 191.498 142.781 192.217 143.011C192.937 143.242 193.524 143.384 193.979 143.435C194.679 143.513 195.172 143.706 195.437 144.014C195.702 144.32 195.911 144.733 196.024 145.238C196.138 145.742 196.233 146.321 196.308 146.991C196.383 147.656 196.592 148.369 196.952 149.126C196.952 149.298 196.87 149.431 196.706 149.544C196.548 149.652 196.384 149.702 196.194 149.679C195.419 149.585 194.778 149.266 194.339 148.677C194.135 148.404 193.908 148.015 193.618 147.563C193.321 147.099 192.959 146.643 192.539 146.192C192.107 145.727 191.628 145.32 191.081 144.967C190.549 144.625 189.924 144.407 189.224 144.333C188.693 144.278 188.146 144.435 187.577 144.814C187.01 145.191 186.743 145.804 186.743 146.653C186.743 147.071 186.876 147.483 187.141 147.871C187.406 148.258 187.764 148.624 188.182 148.96C188.616 149.307 189.076 149.62 189.584 149.926C190.079 150.222 190.589 150.503 191.081 150.75C191.592 151.007 192.252 151.369 193.05 151.821C193.862 152.28 194.659 152.814 195.399 153.42C196.154 154.038 196.826 154.751 197.388 155.579C197.943 156.399 198.221 157.308 198.221 158.292C198.221 158.311 198.221 158.329 198.221 158.342ZM177.103 136.102C177.103 135.782 177.211 135.517 177.444 135.333C177.684 135.142 177.955 135.064 178.258 135.093C185.758 135.802 193.262 136.55 200.778 137.418C201.085 137.454 201.347 137.634 201.555 137.874C201.763 138.113 201.877 138.378 201.877 138.674C201.877 139.006 201.763 139.258 201.555 139.43C201.346 139.602 201.081 139.667 200.778 139.633C193.259 138.782 185.758 137.992 178.258 137.277C177.955 137.248 177.685 137.134 177.444 136.914C177.212 136.704 177.103 136.428 177.103 136.102ZM40.1842 172.012C45.5322 171.526 50.8808 171.065 56.2295 170.637C55.404 170.474 54.564 170.289 53.7063 170.086C52.1553 169.717 50.5618 169.362 48.8958 169.028C47.229 168.692 45.5053 168.61 43.7253 168.769C43.6113 168.714 43.5549 168.517 43.5358 168.166C43.5175 167.828 43.5358 167.564 43.6113 167.385C43.6113 167.219 43.6739 167.063 43.8384 166.998C44.5285 166.723 45.1064 166.539 45.5241 166.376C45.958 166.207 46.2785 166.05 46.5094 165.915C46.7519 165.774 46.9072 165.631 47.0015 165.466C47.096 165.3 47.1393 165.102 47.1534 164.869C47.1762 164.493 47.2666 163.607 47.3804 162.212C47.4934 160.821 47.5511 158.938 47.5511 156.582C47.5511 152.891 47.5511 149.2 47.5511 145.502C47.5511 144.248 47.5323 143.232 47.4942 142.475C47.4559 141.719 47.418 141.11 47.3804 140.667C47.3427 140.224 47.3052 139.922 47.2666 139.738C47.2302 139.566 47.1909 139.443 47.1534 139.387C47.1151 139.191 47.0572 139.018 47.0015 138.883C46.9441 138.742 46.7746 138.659 46.4525 138.643C46.1498 138.628 45.7505 138.491 45.24 138.237C44.7275 137.98 44.0466 137.85 43.157 137.812C43.0421 137.808 43.0169 137.722 43.0431 137.578C43.1107 137.206 43.1761 136.83 43.2136 136.446C43.2325 136.251 43.3081 136.138 43.4977 136.108C44.1222 136.009 44.7681 135.916 45.4109 135.819C46.3012 135.683 47.4183 135.525 48.7822 135.376C50.1263 135.23 51.8661 135.101 53.934 134.705C58.4227 133.846 62.8522 132.706 67.3435 131.918C69.485 131.543 71.1132 131.441 72.1353 131.26C73.1581 131.079 73.7616 131.182 73.9538 131.592C74.1403 131.993 74.0174 132.801 73.5557 133.998C73.0898 135.206 72.4003 137.086 71.5101 139.657C70.6391 139.799 70.0904 139.84 69.9007 139.781C69.7124 139.723 69.5458 139.627 69.4837 139.467C69.1294 138.556 68.8129 137.785 68.4989 137.141C68.1885 136.506 67.8414 135.991 67.438 135.616C67.0273 135.235 66.527 135.002 65.9417 134.89C65.3729 134.782 64.6476 134.735 63.8014 134.89C62.2036 135.184 60.902 135.487 59.862 135.69C58.8193 135.893 57.9681 136.073 57.3428 136.207C56.6994 136.344 56.2068 136.446 55.8849 136.526C55.5627 136.607 55.3137 136.646 55.1653 136.68C54.6503 136.799 54.3506 137.062 54.2561 137.425C54.1616 137.788 54.123 138.144 54.123 138.514C54.123 140.402 54.123 142.297 54.123 144.186C54.123 146.173 54.1532 148.012 54.1797 149.692C54.1901 150.325 54.387 150.593 54.8052 150.559C55.8262 150.477 56.8553 150.468 57.8924 150.356C58.9007 150.248 59.862 150.113 60.8093 150.048C61.7558 149.984 62.6654 149.833 63.5176 149.581C64.3693 149.329 65.1641 148.92 65.923 148.363C66.6791 147.808 67.3644 146.961 67.9876 145.828C68.0649 145.688 68.3663 145.555 68.8779 145.441C69.4075 145.322 69.8244 145.281 70.1278 145.306C69.5787 147.453 69.0553 149.099 68.5365 150.252C68.0144 151.412 67.4754 152.233 66.9459 152.725C66.3963 153.235 65.8287 153.469 65.222 153.451C64.6355 153.433 63.9734 153.335 63.2902 153.149C62.5909 152.96 61.8332 152.78 61.0174 152.596C60.205 152.412 59.2931 152.39 58.29 152.534C57.2485 152.684 56.5094 152.801 56.093 152.879C55.6577 152.96 55.354 153.026 55.1653 153.088C54.8052 153.204 54.6088 153.387 54.521 153.629C54.4573 153.806 54.3511 154.312 54.2561 155.161C54.1623 156.004 54.123 157.419 54.123 159.406C54.123 160.23 54.1133 161.043 54.0666 161.824C54.0194 162.618 54.0285 163.325 54.0856 163.965C54.1418 164.598 54.2749 165.133 54.4642 165.57C54.6538 166.007 54.9957 166.268 55.4489 166.364C56.8133 166.655 58.0633 166.847 59.2179 166.942C60.3735 167.038 61.4912 166.961 62.533 166.709C63.5745 166.457 64.6003 165.999 65.6391 165.324C66.6636 164.658 67.7038 163.7 68.8022 162.464C68.9155 162.414 69.145 162.437 69.5218 162.538C69.8829 162.634 70.1466 162.704 70.2985 162.753C70.374 162.808 70.4116 162.851 70.3928 162.888C70.374 162.925 70.3275 163.035 70.2414 163.202C69.0209 165.582 67.7402 167.354 66.4344 168.53C65.7705 169.128 65.0962 169.622 64.4096 170.009C68.2712 169.724 72.1331 169.458 75.9948 169.213C75.9915 169.242 75.9898 169.272 75.9898 169.302V187.821C74.3856 188.179 73.1822 189.614 73.1822 191.325C73.1822 193.196 74.6252 194.718 76.4498 194.883V195.679H75.5139V199.316C74.9523 199.714 74.5828 200.365 74.5828 201.105C74.5828 201.856 74.9617 202.518 75.536 202.915C74.6988 203.359 74.1214 204.229 74.1214 205.246C74.1214 206.159 74.5798 206.962 75.2824 207.441C74.295 209.042 72.8395 210.336 70.6935 210.876C70.6935 210.876 63.311 212.51 63.9904 217.681H63.6272C62.7775 217.681 62.0861 218.371 62.0861 219.221C62.0861 220.069 62.7775 220.759 63.6272 220.759H64.0266V249.561H63.6272C62.7775 249.561 62.0861 250.251 62.0861 251.101C62.0861 251.953 62.7775 252.641 63.6272 252.641H65.9437C66.6593 252.865 67.1788 253.524 67.1788 254.308C67.1788 255.278 66.3929 256.064 65.4216 256.064H64.0001C63.1686 261.348 70.6935 263.008 70.6935 263.008C72.6473 263.498 74.0256 264.62 75.0003 266.024C74.4623 266.508 74.1214 267.204 74.1214 267.987C74.1214 269.451 75.3059 270.638 76.7712 270.638C78.2358 270.638 79.4239 269.451 79.4239 267.987C79.4239 267.204 79.0791 266.509 78.5444 266.024C79.5221 264.62 80.8979 263.498 82.848 263.008C82.848 263.008 90.3755 261.348 89.5446 256.064H88.124C87.1518 256.064 86.3666 255.278 86.3666 254.308C86.3666 253.524 86.8855 252.865 87.5979 252.641H89.9175C90.7672 252.641 91.4586 251.953 91.4586 251.101C91.4586 250.251 90.7672 249.561 89.9175 249.561H89.5167V220.759H89.9175C90.7672 220.759 91.4586 220.069 91.4586 219.221C91.4586 218.371 90.7672 217.681 89.9175 217.681H89.5542C90.2337 212.51 82.848 210.876 82.848 210.876C80.7022 210.336 79.2497 209.04 78.2623 207.44C78.9649 206.962 79.4239 206.159 79.4239 205.246C79.4239 204.229 78.846 203.359 78.0057 202.915C78.583 202.518 78.9587 201.856 78.9587 201.105C78.9587 200.365 78.593 199.714 78.031 199.316V195.679H77.0917V194.883C78.9195 194.718 80.3592 193.196 80.3592 191.325C80.3592 189.615 79.1591 188.18 77.5549 187.821V169.302C77.5549 169.238 77.547 169.176 77.5328 169.116C93.6294 168.116 109.727 167.476 125.822 167.35C125.834 167.302 125.849 167.256 125.869 167.213C126.115 167.139 126.37 167.091 126.626 166.985C127.809 166.496 128.696 165.932 129.335 165.312C129.965 164.701 130.426 164.09 130.717 163.491C131.013 162.884 131.173 162.341 131.192 161.848C131.21 161.356 131.226 160.992 131.21 160.772C131.15 159.94 131.001 158.717 130.813 157.105C130.623 155.482 130.405 153.689 130.15 151.722C129.894 149.746 129.628 147.697 129.335 145.576C129.041 143.447 128.776 141.443 128.54 139.572C128.303 137.697 128.104 136.065 127.933 134.681C127.763 133.297 127.65 132.355 127.612 131.845C127.575 131.365 127.516 130.984 127.441 130.7C127.365 130.412 127.196 130.188 126.949 130.024C126.704 129.862 126.323 129.732 125.85 129.642C125.358 129.548 124.676 129.464 123.786 129.378C123.748 129.248 123.748 129.064 123.786 128.824C123.824 128.578 123.889 128.346 123.956 128.116C124.002 127.959 124.221 127.866 124.6 127.852C124.713 127.848 125.036 127.839 125.528 127.834C126.039 127.827 126.608 127.811 127.271 127.784C127.971 127.756 128.691 127.753 129.449 127.747C130.206 127.741 130.875 127.79 131.457 127.711C136.182 127.064 140.877 126.247 145.605 125.828C146.643 125.737 147.539 125.93 148.275 126.068C149.016 126.207 149.64 126.366 150.151 126.529C150.682 126.698 151.135 126.869 151.514 127.04C151.911 127.219 152.31 127.384 152.745 127.532C152.708 128.319 152.613 129.119 152.48 129.913C152.348 130.707 152.196 131.432 152.045 132.097C151.893 132.761 151.752 133.326 151.628 133.807C151.506 134.279 151.458 134.613 151.458 134.804C151.458 134.927 151.423 135.028 151.344 135.093C151.271 135.152 151.078 135.158 150.776 135.112C150.151 135.017 149.772 134.943 149.658 134.89C149.546 134.839 149.456 134.77 149.431 134.668C149.116 133.41 148.699 132.417 148.162 131.716C147.62 131.009 146.922 130.543 146.117 130.245C145.427 129.99 144.62 129.787 143.692 129.698C142.765 129.609 141.437 129.569 139.752 129.55C139.279 129.545 138.805 129.535 138.35 129.532C137.973 129.529 137.631 129.546 137.328 129.581C137.044 129.613 136.779 129.646 136.532 129.661C136.268 129.676 135.983 129.723 135.68 129.79C135.377 129.858 135.15 129.999 135.017 130.227C134.885 130.454 134.773 130.935 134.695 131.666C134.584 132.718 134.563 134.016 134.639 135.56C134.714 137.104 134.819 138.613 134.979 140.076C135.14 141.541 135.273 142.815 135.415 143.897C135.557 144.981 135.661 145.559 135.68 145.656C135.736 145.942 135.814 146.129 135.965 146.203C136.135 146.288 136.343 146.315 136.646 146.296C136.93 146.279 137.308 146.217 137.763 146.136C138.236 146.052 138.767 145.971 139.393 145.89C140.092 145.8 140.756 145.709 141.362 145.625C141.987 145.538 142.519 145.38 142.972 145.145C143.409 144.919 143.76 144.586 144.033 144.149C144.309 143.707 144.468 143.127 144.507 142.396C144.544 142.34 144.714 142.257 145.018 142.174C145.339 142.086 145.681 142.016 146.06 141.965C146.457 141.911 146.817 141.875 147.139 141.854C147.46 141.833 147.67 141.854 147.745 141.928C147.821 142.309 147.859 142.783 147.84 143.337C147.821 143.896 147.746 144.463 147.632 145.035C147.519 145.601 147.346 146.148 147.139 146.665C146.93 147.188 146.713 147.668 146.362 147.957C145.854 148.375 145.34 148.511 144.904 148.511C144.487 148.511 144.014 148.434 143.521 148.295C143.011 148.152 142.403 148.016 141.723 147.883C141.021 147.746 140.129 147.713 139.051 147.84C138.16 147.946 137.479 148.06 137.025 148.129C136.552 148.201 136.256 148.356 136.097 148.597C135.934 148.842 135.889 149.218 135.945 149.742C136.002 150.27 136.114 151.058 136.267 152.103C136.417 153.124 136.533 154.01 136.589 154.755C136.646 155.505 136.694 156.116 136.779 156.594C136.845 156.971 136.854 157.505 136.779 158.188C136.703 158.876 136.54 159.642 136.267 160.47C135.991 161.309 135.611 162.172 135.112 163.067C134.608 163.969 133.974 164.806 133.218 165.583C132.597 166.221 131.875 166.808 131.052 167.328L131.55 167.327C149.134 167.326 166.728 167.963 184.324 169.036C184.362 168.917 184.444 168.79 184.565 168.653C184.734 168.461 184.944 168.351 185.171 168.357C185.323 168.362 185.569 168.295 185.891 168.105C186.212 167.914 186.551 167.7 186.876 167.471C187.213 167.233 187.517 167.005 187.785 166.801C188.066 166.588 188.226 166.453 188.259 166.394C188.415 166.121 188.581 165.986 188.732 166.007C188.978 166.041 189.225 166.068 189.49 166.099C189.793 166.135 190.039 166.382 190.19 166.825C190.19 166.893 190.304 167.066 190.512 167.354C190.72 167.643 190.987 167.933 191.251 168.228C191.516 168.524 191.768 168.796 191.989 169.059C192.203 169.313 192.331 169.44 192.369 169.446C192.455 169.487 192.536 169.529 192.61 169.572C202.725 170.264 212.84 171.091 222.954 172.012V171.702V171.392V171.391V171.082V170.771V170.77V170.461V170.151V170.149V169.841V169.53V169.528V169.22V168.91V168.907V168.599V168.289V168.286V167.979V167.668V167.665V167.358V167.047V167.044V166.737V166.427V166.423V166.116V165.806V165.802V165.495V165.185V165.18V164.875V164.564V164.559V164.254V163.943V163.938V163.633V163.322V163.317V163.012V162.701V162.696V162.391V162.08V162.075V161.77V161.459V161.454V161.149V160.838V160.833V160.528V160.217V160.212V159.907V159.596V159.591V159.286V158.975V158.97V158.665V158.354V158.348V158.043V157.733V157.727V157.423V157.112V157.106V156.802V156.491V156.485V156.181V155.87V155.864V155.56V155.249V155.243V154.939V154.628V154.622V154.318V154.007V154.001V153.697V153.386V153.38V153.076V152.765V152.759V152.455V152.144V152.138V151.834V151.524V151.517V151.214V150.903V150.895V150.593V150.283V150.274V149.972V149.662V149.653V149.352V149.041V149.032V148.731V148.42V148.411V148.11V147.799V147.79V147.489V147.178V147.169V146.868V146.557V146.548V146.247V145.936V145.927V145.626V145.315V145.306V145.005V144.694V144.685V144.383V144.073V144.063V143.762V143.452V143.443V143.141V142.83V142.821V142.52V142.209V142.2V141.898V141.588V141.579V141.277V140.966V140.958V140.656V140.345V140.337V140.034V139.724V139.716V139.413V139.102V139.095V138.792V138.481V138.474V138.17V137.859V137.853V137.548V137.238V137.232V136.927V136.616V136.611V136.306V135.995V135.989V135.684V135.373V135.368V135.063V134.752V134.747V134.441V134.131V134.126V133.82V133.509V133.505V133.199V132.888V132.884V132.577V132.266V132.263C218.42 131.515 213.953 130.816 209.546 130.167C209.607 130.235 209.674 130.304 209.756 130.381C209.858 130.477 209.907 130.534 209.945 130.534C209.964 130.534 209.983 130.538 210.002 130.54C210.229 130.568 210.343 130.792 210.343 131.223C210.343 131.457 210.342 131.758 210.324 132.134C210.305 132.514 210.267 132.897 210.229 133.29C210.191 133.684 210.153 134.041 210.135 134.373C210.116 134.699 210.12 134.933 210.116 135.068C210.082 136.219 210.04 137.37 210.002 138.526C212.331 138.828 214.666 139.093 217.01 139.436C217.227 139.468 217.394 139.642 217.578 139.892C217.753 140.128 217.824 140.396 217.824 140.691C217.824 141.023 217.754 141.288 217.578 141.46C217.395 141.639 217.22 141.704 217.01 141.676C214.644 141.354 212.294 141.054 209.945 140.753C209.945 140.968 209.945 141.183 209.945 141.393C209.945 142.617 209.926 143.995 209.907 145.533C209.888 147.064 209.888 148.695 209.888 150.418C209.888 152.103 209.888 153.704 209.907 155.204C209.926 156.712 209.945 158.028 209.945 159.154C209.945 159.911 209.945 160.673 209.945 161.436C209.945 161.928 210.075 162.435 210.343 162.956C210.605 163.468 210.954 163.929 211.366 164.34C211.768 164.741 212.22 165.068 212.73 165.306C213.223 165.535 213.732 165.62 214.226 165.57C214.509 165.541 214.679 165.512 214.756 165.472C214.83 165.433 214.909 165.509 214.983 165.681C215.06 165.859 215.115 166.038 215.154 166.235C215.19 166.419 215.21 166.591 215.21 166.757C215.21 167.053 215.089 167.188 214.87 167.256C214.081 167.502 213.543 167.748 213.184 167.883C212.843 168.012 212.559 168.098 212.313 168.13C212.086 168.159 211.8 168.155 211.441 168.105C210.891 168.027 210.36 167.944 209.831 167.871C209.13 167.773 208.317 167.504 207.388 167.077C206.443 166.643 205.653 166.071 205.058 165.312C204.631 164.767 204.385 164.215 204.263 163.675C204.139 163.126 204.09 162.5 204.13 161.781C204.166 161.153 204.207 160.113 204.225 158.655C204.244 157.185 204.263 155.536 204.263 153.691C204.263 151.421 204.263 149.145 204.263 146.874C204.263 144.604 204.263 142.322 204.263 140.046C202.672 139.861 201.081 139.667 199.49 139.479C199.264 139.453 199.053 139.333 198.865 139.116C198.675 138.896 198.562 138.618 198.562 138.286C198.562 137.96 198.676 137.701 198.865 137.511C199.054 137.32 199.264 137.239 199.49 137.265C201.1 137.454 202.71 137.646 204.32 137.831C204.32 137.173 204.32 136.514 204.32 135.85C204.32 135.757 204.301 135.536 204.282 135.204C204.263 134.872 204.225 134.533 204.168 134.176C204.112 133.82 204.035 133.494 203.96 133.192C203.883 132.885 203.786 132.741 203.676 132.712C203.368 132.63 203.011 132.457 202.596 132.245C202.197 132.04 201.858 131.9 201.593 131.832C201.517 131.758 201.423 131.617 201.346 131.408C201.272 131.205 201.266 131.062 201.346 131.014C201.777 130.761 202.275 130.607 202.842 130.522C203.392 130.441 204.017 130.37 204.68 130.337C205.361 130.303 206.062 130.263 206.782 130.233C207.403 130.207 207.998 130.138 208.577 130.025C203.152 129.233 197.815 128.517 192.551 127.878V95.6894C192.551 90.7544 188.965 90.4369 188.965 90.4369C198.583 79.3534 187.066 69.429 175.554 62.9986C164.039 69.429 152.526 79.3534 162.141 90.4369C162.141 90.4369 158.554 90.7544 158.554 95.6894V124.761C156.546 124.641 154.543 124.533 152.546 124.439V78.342C152.546 72.2524 148.122 71.8577 148.122 71.8577C159.992 58.179 145.779 45.9333 131.57 37.9952C117.358 45.9333 103.147 58.179 115.018 71.8577C115.018 71.8577 110.587 72.2524 110.587 78.342V120.127C112.422 120.341 114.115 120.91 115.66 121.829C115.945 121.688 116.228 121.891 116.513 122.456C116.795 123.017 116.929 123.743 116.91 124.64C116.892 125.545 116.872 126.314 116.853 126.954C116.835 127.593 116.815 128.56 116.797 129.839C116.778 131.124 116.759 132.423 116.721 133.734C118.634 133.629 120.546 133.473 122.46 133.407C122.839 133.394 123.177 133.547 123.464 133.752C123.763 133.966 123.899 134.207 123.899 134.502C123.899 134.847 123.762 135.123 123.464 135.333C123.175 135.535 122.838 135.646 122.46 135.665C120.547 135.762 118.634 135.881 116.721 135.997C116.664 138.114 116.645 140.119 116.626 142.008C116.607 143.902 116.588 145.428 116.588 146.579C116.588 148.375 116.588 150.172 116.588 151.962C116.588 152.374 116.607 152.99 116.626 153.782C116.645 154.589 116.664 155.414 116.683 156.256C116.702 157.105 116.721 158.059 116.74 159.117C116.758 160.168 117.129 161.016 117.838 161.639C118.549 162.264 119.505 162.464 120.661 162.254C120.85 162.79 120.944 163.238 120.944 163.62C120.944 163.786 120.867 163.885 120.679 163.952C120.507 164.014 120.282 164.09 120.017 164.174C119.525 164.33 118.786 164.469 117.838 164.567C116.892 164.665 116.077 164.685 115.376 164.647C114.676 164.611 114.03 164.517 113.425 164.358C112.837 164.204 112.441 164.129 112.251 164.143C112.043 164.159 111.892 163.97 111.758 163.559C111.627 163.153 111.492 162.691 111.399 162.193C111.304 161.683 111.228 161.19 111.171 160.717C111.115 160.237 111.041 159.944 111.02 159.812C110.965 159.464 110.944 159.085 110.906 158.686C110.869 158.286 110.849 157.862 110.849 157.413C108.425 160.581 106.53 162.468 105.205 163.042C103.86 163.624 102.989 163.94 102.554 163.983C99.239 161.578 97.0999 160.044 96.1709 159.4C95.2445 158.758 94.5133 157.896 93.9925 156.797C93.4725 155.701 93.2159 154.571 93.2159 153.402C93.2159 153.383 93.2159 153.365 93.2159 153.352C93.2159 152.116 93.5252 150.82 94.1249 149.433C94.7177 148.064 95.7612 146.752 97.2124 145.496C97.9572 144.852 99.2608 143.771 101.114 142.278C102.972 140.782 103.955 139.958 104.069 139.787C104.182 139.615 104.805 139.759 105.944 140.193C107.096 140.631 107.99 140.845 108.614 140.839C109.258 140.833 109.775 140.841 110.148 140.931C110.59 141.038 110.772 140.931 110.793 140.544C110.81 140.222 110.869 139.775 110.887 139.191C110.906 138.613 110.906 138.07 110.906 137.554C110.906 137.166 110.906 136.785 110.906 136.391C104.429 136.902 97.9508 137.465 91.4735 138.089C91.0575 138.129 90.6604 138.074 90.3181 137.91C89.9787 137.748 89.7876 137.493 89.7876 137.141C89.7876 136.81 89.9787 136.516 90.3181 136.256C90.6604 135.993 91.0568 135.833 91.4735 135.794C97.9503 135.182 104.429 134.626 110.906 134.127C110.906 131.107 110.584 128.233 109.922 125.514C109.843 125.193 109.765 124.89 109.687 124.606C108.271 124.676 106.855 124.752 105.439 124.834L104.636 124.906L104.581 122.991V95.6894C104.581 90.7544 100.995 90.4369 100.995 90.4369C110.613 79.3534 99.0965 69.429 87.5839 62.9986C76.0688 69.429 64.5558 79.3534 74.1715 90.4369C74.1715 90.4369 70.5846 90.7544 70.5846 95.6894V127.672C60.7001 128.898 50.6053 130.427 40.1842 132.263V132.266V132.577V132.884V132.888V133.199V133.505V133.509V133.82V134.126V134.131V134.441V134.747V134.752V135.063V135.368V135.373V135.684V135.989V135.995V136.306V136.611V136.616V136.927V137.232V137.238V137.548V137.853V137.859V138.17V138.474V138.481V138.792V139.095V139.102V139.413V139.716V139.724V140.034V140.337V140.345V140.656V140.958V140.966V141.277V141.579V141.588V141.898V142.2V142.209V142.52V142.821V142.83V143.141V143.443V143.452V143.762V144.063V144.073V144.383V144.685V144.694V145.005V145.306V145.315V145.626V145.927V145.936V146.247V146.548V146.557V146.868V147.169V147.178V147.489V147.79V147.799V148.11V148.411V148.42V148.731V149.032V149.041V149.352V149.653V149.662V149.972V150.274V150.283V150.593V150.895V150.903V151.214V151.517V151.524V151.834V152.138V152.144V152.455V152.759V152.765V153.076V153.38V153.386V153.697V154.001V154.007V154.318V154.622V154.628V154.939V155.243V155.249V155.56V155.864V155.87V156.181V156.485V156.491V156.802V157.106V157.112V157.423V157.727V157.733V158.043V158.348V158.354V158.665V158.97V158.975V159.286V159.591V159.596V159.907V160.212V160.217V160.528V160.833V160.838V161.149V161.454V161.459V161.77V162.075V162.08V162.391V162.696V162.701V163.012V163.317V163.322V163.633V163.938V163.943V164.254V164.559V164.564V164.875V165.18V165.185V165.495V165.802V165.806V166.116V166.423V166.427V166.737V167.044V167.047V167.358V167.665V167.668V167.979V168.286V168.289V168.599V168.907V168.91V169.22V169.528V169.53V169.841V170.149V170.151V170.461V170.77V170.771V171.082V171.391V171.392V171.702V172.012ZM185.58 170.388V187.821C183.975 188.179 182.772 189.614 182.772 191.325C182.772 193.196 184.215 194.718 186.04 194.883V195.679H185.104V199.316C184.542 199.714 184.173 200.365 184.173 201.105C184.173 201.856 184.552 202.518 185.126 202.915C184.289 203.359 183.711 204.229 183.711 205.246C183.711 206.159 184.169 206.962 184.872 207.441C183.885 209.042 182.429 210.336 180.284 210.876C180.284 210.876 172.901 212.51 173.58 217.681H173.217C172.367 217.681 171.676 218.371 171.676 219.221C171.676 220.069 172.367 220.759 173.217 220.759H173.616V249.561H173.217C172.367 249.561 171.676 250.251 171.676 251.101C171.676 251.953 172.367 252.641 173.217 252.641H175.534C176.249 252.865 176.769 253.524 176.769 254.308C176.769 255.278 175.983 256.064 175.011 256.064H173.59C172.759 261.348 180.284 263.008 180.284 263.008C182.237 263.498 183.616 264.62 184.59 266.024C184.052 266.508 183.711 267.204 183.711 267.987C183.711 269.451 184.896 270.638 186.361 270.638C187.825 270.638 189.014 269.451 189.014 267.987C189.014 267.204 188.67 266.509 188.134 266.024C189.112 264.62 190.488 263.498 192.438 263.008C192.438 263.008 199.966 261.348 199.134 256.064H197.714C196.742 256.064 195.956 255.278 195.956 254.308C195.956 253.524 196.475 252.865 197.188 252.641H199.507C200.357 252.641 201.048 251.953 201.048 251.101C201.048 250.251 200.357 249.561 199.507 249.561H199.107V220.759H199.507C200.357 220.759 201.048 220.069 201.048 219.221C201.048 218.371 200.357 217.681 199.507 217.681H199.144C199.823 212.51 192.438 210.876 192.438 210.876C190.292 210.336 188.839 209.04 187.852 207.44C188.555 206.962 189.014 206.159 189.014 205.246C189.014 204.229 188.436 203.359 187.596 202.915C188.173 202.518 188.549 201.856 188.549 201.105C188.549 200.365 188.183 199.714 187.621 199.316V195.679H186.681V194.883C188.51 194.718 189.949 193.196 189.949 191.325C189.949 189.615 188.749 188.18 187.145 187.821V172.373C186.954 172.166 186.738 171.941 186.497 171.698C186.423 171.623 186.269 171.39 186.042 170.984C185.915 170.756 185.76 170.555 185.58 170.388ZM186.361 225.141C184.585 225.141 183.142 226.583 183.142 228.36V249.561H189.583V228.36C189.583 226.583 188.137 225.141 186.361 225.141ZM195.324 225.141C193.978 225.141 192.884 226.234 192.884 227.58V249.561H197.759V227.58C197.759 226.234 196.671 225.141 195.324 225.141ZM177.398 225.141C176.053 225.141 174.962 226.234 174.962 227.58V249.561H179.837V227.58C179.837 226.234 178.744 225.141 177.398 225.141ZM135.73 54.6769L138.778 58.8367L133.648 58.2798L131.57 62.9986L129.488 58.2798L124.362 58.8367L127.406 54.6769L124.362 50.5153L129.488 51.0723L131.57 46.3553L133.648 51.0723L138.778 50.5153L135.73 54.6769ZM124.245 115.015H116.478V97.8041C116.478 95.6679 118.225 93.9207 120.362 93.9207C122.498 93.9207 124.245 95.6679 124.245 97.8041V115.015ZM135.451 115.015H127.684V97.8041C127.684 95.6679 129.431 93.9207 131.567 93.9207C133.704 93.9207 135.451 95.6679 135.451 97.8041V115.015ZM146.656 115.015H138.89V97.8041C138.89 95.6679 140.637 93.9207 142.773 93.9207C144.909 93.9207 146.656 95.6679 146.656 97.8041V115.015ZM99.8087 109.746H93.5176V95.8028C93.5176 94.0726 94.9328 92.6575 96.6629 92.6575H96.6634C98.3935 92.6575 99.8087 94.0726 99.8087 95.8028V109.746ZM90.7299 109.746H84.4386V95.8028C84.4386 94.0726 85.8539 92.6575 87.5839 92.6575H87.5844C89.3148 92.6575 90.7299 94.0726 90.7299 95.8028V109.746ZM81.6509 109.746H75.3598V95.8028C75.3598 94.0726 76.7749 92.6575 78.5051 92.6575H78.5056C80.2357 92.6575 81.6509 94.0726 81.6509 95.8028V109.746ZM187.779 109.746H181.487V95.8028C181.487 94.0726 182.902 92.6575 184.632 92.6575H184.633C186.363 92.6575 187.779 94.0726 187.779 95.8028V109.746ZM178.7 109.746H172.409V95.8028C172.409 94.0726 173.824 92.6575 175.554 92.6575H175.554C177.284 92.6575 178.7 94.0726 178.7 95.8028V109.746ZM169.621 109.746H163.33V95.8028C163.33 94.0726 164.745 92.6575 166.475 92.6575H166.475C168.205 92.6575 169.621 94.0726 169.621 95.8028V109.746ZM67.9488 189.54H0L12.9239 170.839L0 152.138H37.5826V172.012V174.891L40.4472 174.6C49.6066 173.672 58.7748 172.88 67.9488 172.226V189.54ZM225.555 152.138H263L250.442 170.839L263 189.54H195.03V174.538C195.118 174.409 195.237 174.272 195.379 174.126C195.625 173.872 195.897 173.638 196.176 173.414C196.445 173.196 196.7 172.992 196.953 172.828C197.213 172.659 197.394 172.559 197.502 172.559C197.734 172.555 197.871 172.505 197.921 172.385C206.181 173.005 214.436 173.742 222.684 174.6L225.555 174.899V172.012V152.138ZM40.7748 45.1892L42.5727 49.2712L47.005 48.7888L44.3725 52.3872L47.005 55.9856L42.5727 55.5016L40.7748 59.5834L38.9744 55.5016L34.5421 55.9856L37.1764 52.3872L34.5421 48.7888L38.9744 49.2712L40.7748 45.1892ZM68.3773 30.7983L70.179 34.877L74.6108 34.3967L71.975 37.9952L74.6108 41.5917L70.179 41.1113L68.3773 45.1892L66.5807 41.1113L62.1469 41.5917L64.7795 37.9952L62.1469 34.3967L66.5807 34.877L68.3773 30.7983ZM95.9836 16.4067L97.7814 20.4862L102.214 20.0025L99.5813 23.6009L102.214 27.1987L97.7814 26.7177L95.9836 30.7983L94.1818 26.7177L89.7493 27.1987L92.3851 23.6009L89.7493 20.0025L94.1818 20.4862L95.9836 16.4067ZM222.365 45.1892L220.565 49.2712L216.131 48.7888L218.767 52.3872L216.131 55.9856L220.565 55.5016L222.365 59.5834L224.163 55.5016L228.597 55.9856L225.963 52.3872L228.597 48.7888L224.163 49.2712L222.365 45.1892ZM194.759 30.7983L192.962 34.877L188.529 34.3967L191.161 37.9952L188.529 41.5917L192.962 41.1113L194.759 45.1892L196.56 41.1113L200.993 41.5917L198.357 37.9952L200.993 34.3967L196.56 34.877L194.759 30.7983ZM167.154 16.4067L165.355 20.4862L160.924 20.0025L163.558 23.6009L160.924 27.1987L165.355 26.7177L167.154 30.7983L168.954 26.7177L173.388 27.1987L170.754 23.6009L173.388 20.0025L168.954 20.4862L167.154 16.4067ZM135.559 25.6042C126.804 23.7082 121.245 15.0709 123.142 6.3163C123.655 3.94833 124.664 1.81751 126.032 0C121.754 2.11287 118.439 6.0832 117.348 11.112C115.449 19.8664 121.01 28.503 129.766 30.3992C136.152 31.7832 142.47 29.1974 146.161 24.2994C142.989 25.8642 139.287 26.4116 135.559 25.6042ZM76.7724 191.213C76.3402 191.213 75.9898 190.862 75.9898 190.43V188.481C74.7412 188.823 73.8204 189.969 73.8204 191.325C73.8204 192.843 74.9758 194.081 76.4498 194.243V193.836C76.4498 193.659 76.5943 193.516 76.7712 193.516C76.9447 193.516 77.0917 193.659 77.0917 193.836V194.243C78.5645 194.081 79.7243 192.843 79.7243 191.325C79.7243 189.971 78.8028 188.825 77.5549 188.481V190.43C77.5549 190.862 77.2038 191.213 76.7724 191.213ZM76.7712 225.141C74.9948 225.141 73.5517 226.583 73.5517 228.36V249.561H79.9937V228.36C79.9937 226.583 78.5467 225.141 76.7712 225.141ZM85.734 225.141C84.3879 225.141 83.2941 226.234 83.2941 227.58V249.561H88.1696V227.58C88.1696 226.234 87.0815 225.141 85.734 225.141ZM67.808 225.141C66.4632 225.141 65.3727 226.234 65.3727 227.58V249.561H70.2473V227.58C70.2473 226.234 69.1543 225.141 67.808 225.141ZM104.598 194.518C104.68 194.518 104.856 194.565 105.128 194.66C105.4 194.755 105.604 194.83 105.74 194.885C105.794 194.938 105.848 195.013 105.903 195.108C105.957 195.204 105.957 195.305 105.903 195.414C105.74 195.904 105.583 196.515 105.434 197.249C105.284 197.983 105.053 198.744 104.741 199.532C104.428 200.32 104 201.109 103.457 201.897C102.913 202.685 102.193 203.378 101.295 203.976C100.888 203.976 100.433 203.841 99.9297 203.569C99.4273 203.297 98.7746 203.005 97.9729 202.692C97.1711 202.379 96.1786 202.087 94.9968 201.815C93.8141 201.543 92.3331 201.408 90.5524 201.408C89.3362 201.408 88.2557 201.442 87.3045 201.51C86.3602 201.577 85.6802 201.639 85.2727 201.693C84.9191 201.693 84.7155 201.679 84.6611 201.652C84.6066 201.517 84.5388 201.299 84.4571 201C84.3758 200.701 84.3619 200.484 84.4166 200.347C85.3405 200.212 86.0814 200.008 86.6384 199.736C87.1956 199.464 87.5421 199.043 87.6784 198.472C87.7056 198.282 87.733 198.051 87.7595 197.779C87.7867 197.507 87.814 197.147 87.8412 196.698C87.8686 196.25 87.8889 195.693 87.9026 195.027C87.9161 194.361 87.9229 193.539 87.9229 192.561V184.406C87.9229 183.536 87.9161 182.796 87.9026 182.184C87.8889 181.573 87.8686 181.036 87.8412 180.574C87.814 180.111 87.7804 179.717 87.7393 179.392C87.6986 179.065 87.6512 178.753 87.5965 178.454C87.5693 178.263 87.515 178.032 87.4337 177.76C87.352 177.488 87.2025 177.231 86.9852 176.986C86.7677 176.741 86.4483 176.537 86.0269 176.374C85.6053 176.211 85.0413 176.143 84.3347 176.17C84.1446 176.17 84.0902 175.967 84.1719 175.559L84.4982 174.744C84.5256 174.635 84.5794 174.58 84.6611 174.58C85.5306 174.607 86.4552 174.73 87.4268 174.947C88.4054 175.164 89.3837 175.416 90.3691 175.701C91.3477 175.987 92.3123 176.259 93.2432 176.517C94.181 176.775 95.0575 176.959 95.8733 177.068C95.9817 177.121 96.0702 177.332 96.1381 177.699C96.2059 178.066 96.2262 178.318 96.1997 178.454C95.7642 178.535 95.3435 178.576 94.9352 178.576C94.5279 178.576 94.1609 178.603 93.8344 178.658C93.5087 178.712 93.2368 178.814 93.0188 178.963C92.8015 179.113 92.6659 179.378 92.6114 179.758C92.557 180.03 92.5162 180.281 92.489 180.513C92.4618 180.743 92.4347 181.042 92.4073 181.409C92.3806 181.776 92.3667 182.259 92.3667 182.857V185.221L92.4073 190.318C92.4073 191.813 92.4143 193.043 92.4283 194.007C92.4415 194.973 92.4555 195.747 92.4687 196.331C92.4822 196.916 92.4959 197.357 92.5093 197.656C92.5234 197.956 92.5436 198.2 92.5708 198.391C92.5979 198.771 92.6659 199.036 92.7743 199.186C92.8832 199.335 93.0873 199.464 93.3864 199.573C93.7121 199.682 94.1134 199.756 94.5886 199.797C95.0644 199.838 95.751 199.858 96.6478 199.858C97.3543 199.858 98.0342 199.831 98.6863 199.777C99.3385 199.723 99.95 199.614 100.521 199.451C101.092 199.288 101.608 199.043 102.07 198.717C102.533 198.391 102.927 197.969 103.252 197.453C103.443 197.154 103.613 196.8 103.763 196.393C103.912 195.985 104.055 195.455 104.19 194.803C104.245 194.613 104.367 194.518 104.557 194.518H104.598ZM109.817 187.994C110.143 187.45 110.49 187.029 110.857 186.73C111.224 186.431 111.604 186.166 111.998 185.935C112.392 185.704 112.807 185.493 113.242 185.303C113.676 185.113 114.152 184.868 114.669 184.569C114.859 184.461 115.022 184.297 115.158 184.08C115.293 183.863 115.402 183.645 115.484 183.428C115.566 183.21 115.633 183.02 115.688 182.857C115.742 182.694 115.797 182.612 115.85 182.612C115.905 182.612 115.946 182.687 115.973 182.837C116 182.986 116.055 183.169 116.136 183.387C116.217 183.604 116.354 183.835 116.544 184.08C116.734 184.325 117.033 184.542 117.441 184.732C118.066 185.031 118.664 185.283 119.235 185.487C119.806 185.69 120.281 185.996 120.662 186.404C121.042 186.839 121.287 187.24 121.396 187.607C121.504 187.974 121.559 188.333 121.559 188.687C121.803 189.339 121.871 191.46 121.763 195.048C121.654 198.635 121.763 201.183 122.089 202.692C122.415 204.2 122.659 204.955 122.823 204.955C123.121 204.955 123.461 204.894 123.842 204.771C124.222 204.649 124.481 204.547 124.616 204.465C124.698 204.411 124.8 204.458 124.923 204.608C125.045 204.757 125.092 204.9 125.065 205.036L124.943 205.77C124.943 205.933 124.834 206.07 124.616 206.178C124.454 206.26 124.182 206.368 123.802 206.504C123.421 206.64 122.993 206.769 122.517 206.891C122.042 207.014 121.545 207.122 121.029 207.218C120.512 207.313 120.036 207.36 119.602 207.36C119.411 207.36 119.194 207.048 118.949 206.422C118.705 205.797 118.474 205.064 118.256 204.221C118.039 203.378 117.842 202.529 117.665 201.672C117.489 200.816 117.373 200.157 117.318 199.695C116.883 199.94 116.394 200.192 115.85 200.449C115.307 200.708 114.784 200.946 114.281 201.163C113.778 201.38 113.337 201.557 112.956 201.693C112.575 201.829 112.317 201.897 112.181 201.897C111.339 201.897 110.51 201.517 109.694 200.755C109.477 200.538 109.226 200.15 108.94 199.593C108.655 199.036 108.512 198.35 108.512 197.534C108.512 197.262 108.621 196.97 108.838 196.658C109.056 196.345 109.32 196.033 109.634 195.72C109.946 195.407 110.279 195.122 110.632 194.864C110.985 194.606 111.312 194.395 111.611 194.232C112.562 193.743 113.5 193.246 114.424 192.744C115.348 192.241 116.354 191.908 117.441 191.745C117.441 191.528 117.448 191.371 117.462 191.276C117.475 191.181 117.482 191.092 117.482 191.011V190.277C117.482 189.598 117.42 189.02 117.298 188.545C117.176 188.069 117.02 187.763 116.829 187.627C116.666 187.437 116.374 187.267 115.953 187.117C115.532 186.968 115.049 186.893 114.505 186.893C114.315 187.002 114.118 187.124 113.914 187.26C113.71 187.396 113.5 187.532 113.282 187.668C113.255 187.858 113.235 188.076 113.221 188.32C113.207 188.565 113.201 188.877 113.201 189.258C113.201 189.53 113.106 189.693 112.915 189.747L110.347 190.522C110.129 190.603 109.939 190.657 109.776 190.685C109.613 190.712 109.504 190.725 109.45 190.725C109.042 190.725 108.804 190.624 108.736 190.42C108.669 190.216 108.696 189.965 108.818 189.666C108.94 189.367 109.11 189.061 109.328 188.748C109.545 188.436 109.708 188.184 109.817 187.994ZM106.27 180.492C106.27 180.22 106.358 179.996 106.535 179.819C106.711 179.642 106.922 179.554 107.166 179.554H124.25C124.467 179.582 124.658 179.684 124.821 179.86C124.983 180.037 125.065 180.248 125.065 180.492C125.065 180.764 124.983 180.982 124.821 181.144C124.658 181.307 124.467 181.389 124.25 181.389H107.166C106.922 181.389 106.711 181.307 106.535 181.144C106.358 180.982 106.27 180.764 106.27 180.492ZM115.932 170.707C116.15 170.707 116.313 170.884 116.422 171.237C116.422 171.292 116.496 171.427 116.646 171.645C116.795 171.862 116.965 172.079 117.155 172.297C117.346 172.515 117.515 172.718 117.665 172.909C117.814 173.099 117.903 173.194 117.93 173.194C118.148 173.276 118.304 173.377 118.399 173.5C118.494 173.622 118.542 173.873 118.542 174.255C118.542 174.445 118.433 174.553 118.216 174.58C118.134 174.607 117.998 174.71 117.808 174.886C117.617 175.063 117.42 175.267 117.217 175.498C117.013 175.729 116.816 175.973 116.626 176.232C116.435 176.49 116.313 176.714 116.259 176.904C116.204 177.121 115.987 177.231 115.606 177.231C115.28 177.231 115.015 177.088 114.811 176.802C114.607 176.517 114.288 176.143 113.853 175.681C113.799 175.627 113.69 175.443 113.527 175.131C113.364 174.818 113.146 174.594 112.874 174.458C112.494 174.295 112.303 174.078 112.303 173.806C112.303 173.669 112.365 173.514 112.487 173.337C112.61 173.16 112.752 173.058 112.915 173.031C113.024 173.031 113.194 172.936 113.425 172.746C113.656 172.555 113.887 172.345 114.118 172.114C114.349 171.882 114.56 171.665 114.75 171.462C114.941 171.258 115.049 171.128 115.076 171.074C115.185 170.83 115.293 170.707 115.402 170.707H115.932ZM114.709 199.369C114.872 199.369 115.117 199.321 115.443 199.226C115.769 199.131 116.177 198.975 116.666 198.757C117.047 198.54 117.278 198.255 117.36 197.901C117.36 197.766 117.367 197.568 117.38 197.31C117.393 197.052 117.407 196.773 117.42 196.474C117.434 196.175 117.441 195.89 117.441 195.618V194.966C117.441 194.504 117.373 194.273 117.237 194.273C116.748 194.354 116.374 194.443 116.116 194.538C115.858 194.633 115.66 194.735 115.525 194.843C115.389 194.952 115.273 195.061 115.178 195.17C115.083 195.278 114.927 195.4 114.709 195.537C114.546 195.672 114.417 195.836 114.322 196.026C114.227 196.216 114.179 196.501 114.179 196.882C114.179 197.208 114.145 197.528 114.077 197.84C114.01 198.153 113.968 198.418 113.955 198.635C113.941 198.852 113.982 199.029 114.077 199.165C114.172 199.301 114.37 199.369 114.669 199.369H114.709ZM115.606 203.894C115.307 204.112 115.008 204.37 114.709 204.669C114.491 204.887 114.396 205.104 114.423 205.322C114.451 205.539 114.437 205.756 114.383 205.974C114.356 206.165 114.363 206.497 114.403 206.973C114.444 207.448 114.593 207.938 114.852 208.441C115.11 208.943 115.511 209.419 116.055 209.867C116.598 210.316 117.346 210.608 118.297 210.744L119.316 210.948C119.75 211.03 120.362 211.132 121.151 211.254C121.939 211.376 122.999 211.424 124.331 211.397C125.663 211.369 127.3 211.213 129.244 210.928C131.187 210.643 133.518 210.132 136.236 209.398C136.888 209.235 137.432 209.025 137.867 208.767C138.301 208.509 138.648 208.244 138.906 207.972C139.165 207.7 139.355 207.435 139.477 207.177C139.599 206.919 139.661 206.694 139.661 206.504C139.661 206.232 139.606 205.954 139.498 205.668C139.389 205.383 139.158 205.104 138.804 204.832C138.424 204.588 137.921 204.398 137.296 204.261C136.671 204.126 135.991 204.058 135.258 204.058H134.157C133.83 204.058 133.456 204.044 133.036 204.017C132.614 203.99 132.105 203.949 131.506 203.894C130.909 203.841 130.148 203.772 129.223 203.691C128.109 203.175 127.368 202.713 127.001 202.304C126.634 201.897 126.451 201.394 126.451 200.796C126.451 200.361 126.566 200.035 126.798 199.818C127.029 199.6 127.327 199.41 127.695 199.247C128.062 199.084 128.483 198.914 128.958 198.737C129.434 198.56 129.93 198.309 130.446 197.983C129.984 197.847 129.475 197.643 128.918 197.371C128.361 197.099 127.837 196.76 127.348 196.352C126.777 195.836 126.329 195.183 126.002 194.395C125.676 193.607 125.513 192.819 125.513 192.03C125.513 191.052 125.703 190.175 126.084 189.401C126.464 188.626 126.947 187.933 127.532 187.321C128.116 186.71 128.781 186.152 129.529 185.65C130.276 185.147 131.017 184.692 131.751 184.284C131.941 184.175 132.105 184.012 132.24 183.795C132.377 183.577 132.485 183.359 132.567 183.142C132.648 182.925 132.716 182.735 132.77 182.572C132.825 182.408 132.879 182.327 132.934 182.327C132.988 182.327 133.029 182.402 133.056 182.551C133.083 182.7 133.137 182.884 133.219 183.101C133.301 183.319 133.436 183.55 133.626 183.795C133.817 184.039 134.116 184.257 134.524 184.447C134.768 184.556 135.047 184.692 135.359 184.854C135.672 185.018 135.998 185.174 136.338 185.323C136.678 185.473 137.357 185.942 138.376 186.73C139.396 187.519 139.858 188.13 139.763 188.565C139.668 189 139.62 189.829 139.62 191.052C139.62 192.492 139.124 193.784 138.131 194.925C137.14 196.066 135.842 196.937 134.238 197.534C133.722 197.724 133.212 197.928 132.709 198.146C132.207 198.363 131.751 198.567 131.343 198.757C131.099 198.975 130.977 199.193 130.977 199.41C130.977 199.6 131.065 199.77 131.241 199.92C131.418 200.069 131.649 200.192 131.935 200.287C132.22 200.382 132.512 200.429 132.811 200.429H133.708C134.089 200.429 134.469 200.436 134.85 200.449C135.23 200.463 135.584 200.47 135.91 200.47H136.685C137.554 200.47 138.397 200.565 139.212 200.755C140.028 200.946 140.762 201.313 141.414 201.856C141.713 202.101 141.978 202.454 142.209 202.916C142.44 203.378 142.556 203.922 142.556 204.547C142.556 205.227 142.447 205.831 142.229 206.362C142.012 206.891 141.645 207.455 141.128 208.053C140.558 208.678 139.966 209.263 139.355 209.806C138.743 210.35 138.064 210.832 137.317 211.254C136.569 211.675 135.72 212.049 134.768 212.375C133.817 212.701 132.716 212.959 131.466 213.149C130.079 213.476 128.666 213.72 127.225 213.883C125.785 214.047 124.385 214.128 123.027 214.128C121.64 214.128 120.315 214.047 119.051 213.883C117.787 213.72 116.625 213.462 115.566 213.109C114.206 212.674 113.139 212.13 112.364 211.478C111.59 210.826 111.019 210.18 110.652 209.542C110.285 208.903 110.075 208.318 110.02 207.788C109.966 207.258 109.993 206.871 110.102 206.627C110.401 206.001 110.802 205.437 111.305 204.934C111.807 204.431 112.317 204.071 112.833 203.854C113.051 203.772 113.248 203.684 113.425 203.589C113.601 203.494 113.799 203.405 114.016 203.324C114.07 203.297 114.172 203.317 114.321 203.385C114.471 203.453 114.627 203.528 114.79 203.609C114.954 203.691 115.117 203.766 115.28 203.834C115.443 203.901 115.551 203.922 115.606 203.894ZM136.154 192.764C136.154 192.112 136.073 191.432 135.91 190.725C135.747 190.019 135.529 189.434 135.258 188.972C135.013 188.483 134.612 187.974 134.055 187.444C133.498 186.913 132.797 186.608 131.955 186.526C131.574 186.744 131.153 187.056 130.691 187.464C130.229 187.872 129.767 188.306 129.305 188.768C129.278 188.877 129.264 188.986 129.264 189.095V189.462C129.264 190.277 129.407 191.154 129.692 192.092C129.978 193.029 130.378 193.784 130.895 194.354C131.493 195.033 132.043 195.475 132.546 195.679C133.049 195.883 133.518 195.985 133.953 195.985C134.496 195.985 134.999 195.754 135.461 195.292C135.924 194.83 136.154 194.001 136.154 192.805V192.764ZM123.067 180.492C123.067 180.22 123.162 179.996 123.352 179.819C123.543 179.642 123.773 179.554 124.046 179.554H142.719C142.936 179.582 143.14 179.684 143.33 179.86C143.52 180.037 143.615 180.248 143.615 180.492C143.615 180.764 143.52 180.982 143.33 181.144C143.14 181.307 142.936 181.389 142.719 181.389H124.046C123.773 181.389 123.543 181.307 123.352 181.144C123.162 180.982 123.067 180.764 123.067 180.492ZM145.287 188.565C146.075 187.614 146.898 186.805 147.754 186.139C148.61 185.473 149.527 184.854 150.506 184.284C150.696 184.175 150.86 184.012 150.995 183.795C151.131 183.577 151.24 183.359 151.322 183.142C151.403 182.925 151.471 182.735 151.525 182.572C151.579 182.408 151.634 182.327 151.688 182.327C151.743 182.327 151.783 182.402 151.811 182.551C151.838 182.7 151.892 182.884 151.974 183.101C152.055 183.319 152.191 183.55 152.381 183.795C152.572 184.039 152.871 184.257 153.278 184.447C154.203 184.882 155.113 185.317 156.01 185.752C156.907 186.187 157.716 186.723 158.436 187.362C159.156 188.001 159.734 188.795 160.168 189.747C160.604 190.699 160.821 191.894 160.821 193.335C160.821 194.368 160.672 195.278 160.373 196.067C160.073 196.855 159.734 197.528 159.354 198.085C158.973 198.642 158.585 199.084 158.191 199.41C157.797 199.736 157.505 199.953 157.315 200.062C156.499 200.551 155.582 200.966 154.562 201.306C153.543 201.645 152.612 201.815 151.77 201.815C151.335 201.815 150.818 201.761 150.221 201.652C149.623 201.543 149.025 201.36 148.427 201.102C147.829 200.844 147.251 200.524 146.694 200.144C146.137 199.763 145.654 199.315 145.246 198.798C144.703 198.092 144.288 197.256 144.003 196.291C143.718 195.326 143.575 194.422 143.575 193.58C143.575 192.737 143.724 191.853 144.023 190.929C144.322 190.005 144.744 189.217 145.287 188.565ZM151.254 186.608C150.791 186.553 150.424 186.649 150.146 186.893C149.874 187.138 149.548 187.41 149.168 187.709C148.889 188.143 148.664 188.755 148.488 189.543C148.311 190.332 148.223 191.283 148.223 192.397C148.223 193.702 148.406 194.898 148.773 195.985C149.147 197.072 149.562 197.888 150.023 198.432C150.601 199.084 151.152 199.532 151.688 199.777C152.218 200.022 152.728 200.144 153.224 200.144C153.55 200.144 153.87 200.089 154.182 199.98C154.501 199.872 154.766 199.695 154.984 199.451C155.365 199.07 155.69 198.52 155.949 197.799C156.207 197.079 156.336 196.094 156.336 194.843C156.336 194.3 156.302 193.709 156.234 193.07C156.166 192.431 156.051 191.799 155.888 191.174C155.725 190.549 155.507 189.951 155.249 189.38C154.991 188.81 154.671 188.333 154.291 187.953C153.903 187.572 153.448 187.253 152.912 186.995C152.381 186.737 151.844 186.608 151.294 186.608H151.254ZM141.21 180.492C141.21 180.22 141.312 179.996 141.516 179.819C141.72 179.642 141.971 179.554 142.27 179.554H162.37C162.615 179.582 162.839 179.684 163.043 179.86C163.247 180.037 163.349 180.248 163.349 180.492C163.349 180.764 163.247 180.982 163.043 181.144C162.839 181.307 162.615 181.389 162.37 181.389H142.27C141.971 181.389 141.72 181.307 141.516 181.144C141.312 180.982 141.21 180.764 141.21 180.492ZM152.218 170.707C152.436 170.707 152.599 170.884 152.707 171.237C152.707 171.292 152.782 171.427 152.932 171.645C153.082 171.862 153.251 172.079 153.441 172.297C153.631 172.515 153.801 172.718 153.951 172.909C154.101 173.099 154.189 173.194 154.217 173.194C154.434 173.276 154.59 173.377 154.685 173.5C154.78 173.622 154.828 173.873 154.828 174.255C154.828 174.445 154.719 174.553 154.501 174.58C154.42 174.607 154.284 174.71 154.094 174.886C153.903 175.063 153.706 175.267 153.503 175.498C153.299 175.729 153.102 175.973 152.912 176.232C152.722 176.49 152.599 176.714 152.545 176.904C152.49 177.121 152.273 177.231 151.892 177.231C151.566 177.231 151.301 177.088 151.097 176.802C150.893 176.517 150.574 176.143 150.139 175.681C150.085 175.627 149.976 175.443 149.813 175.131C149.65 174.818 149.432 174.594 149.16 174.458C148.78 174.295 148.589 174.078 148.589 173.806C148.589 173.669 148.651 173.514 148.773 173.337C148.896 173.16 149.038 173.058 149.201 173.031C149.31 173.031 149.48 172.936 149.711 172.746C149.942 172.555 150.173 172.345 150.404 172.114C150.635 171.882 150.846 171.665 151.036 171.462C151.226 171.258 151.335 171.128 151.362 171.074C151.471 170.83 151.579 170.707 151.688 170.707H152.218ZM176.07 197.127C176.07 198.594 175.383 199.75 174.011 200.592C173.392 200.973 172.651 201.265 171.782 201.469C170.919 201.672 170.09 201.774 169.301 201.774C168.295 201.774 167.399 201.734 166.61 201.652C165.822 201.57 165.183 201.346 164.694 200.979C164.205 200.612 163.872 200.062 163.695 199.328C163.518 198.594 163.525 197.589 163.716 196.311C163.716 196.066 163.743 195.917 163.797 195.863C163.879 195.808 164.008 195.741 164.184 195.659C164.361 195.577 164.586 195.51 164.858 195.455C165.156 196.053 165.462 196.603 165.775 197.106C166.087 197.609 166.475 198.146 166.937 198.717C167.453 199.369 167.976 199.818 168.507 200.062C169.036 200.307 169.491 200.429 169.872 200.429C170.09 200.429 170.327 200.375 170.586 200.266C170.844 200.157 171.088 200.008 171.32 199.818C171.55 199.628 171.74 199.389 171.89 199.104C172.04 198.819 172.115 198.499 172.115 198.146C172.115 197.684 171.979 197.283 171.707 196.943C171.428 196.603 171.102 196.291 170.721 196.006C170.341 195.72 169.933 195.469 169.512 195.251C169.091 195.033 168.724 194.843 168.425 194.68C168.18 194.544 167.827 194.347 167.358 194.089C166.896 193.831 166.448 193.512 166.006 193.131C165.571 192.751 165.183 192.295 164.837 191.765C164.497 191.235 164.327 190.63 164.327 189.951C164.327 189.244 164.47 188.605 164.756 188.035C165.041 187.464 165.496 186.934 166.121 186.444C166.719 185.982 167.365 185.595 168.058 185.283C168.751 184.97 169.41 184.814 170.035 184.814C170.742 184.814 171.347 184.875 171.85 184.997C172.352 185.12 172.767 185.181 173.093 185.181C173.582 185.181 173.922 185.296 174.113 185.527C174.303 185.758 174.439 186.077 174.52 186.486C174.602 186.893 174.67 187.369 174.724 187.912C174.778 188.456 174.928 189.027 175.172 189.624C175.172 189.761 175.118 189.883 175.009 189.991C174.9 190.1 174.778 190.155 174.642 190.155C174.099 190.155 173.664 189.938 173.338 189.502C173.202 189.285 173.032 189 172.828 188.646C172.624 188.293 172.373 187.946 172.074 187.607C171.775 187.267 171.435 186.975 171.054 186.73C170.674 186.486 170.239 186.363 169.75 186.363C169.369 186.363 168.982 186.546 168.588 186.913C168.193 187.28 167.997 187.817 167.997 188.524C167.997 188.877 168.092 189.204 168.282 189.502C168.472 189.801 168.717 190.073 169.016 190.318C169.315 190.562 169.641 190.787 169.995 190.991C170.348 191.194 170.701 191.378 171.054 191.541C171.408 191.704 171.87 191.935 172.441 192.234C173.012 192.533 173.562 192.9 174.092 193.335C174.622 193.77 175.084 194.3 175.478 194.925C175.873 195.55 176.07 196.271 176.07 197.086V197.127ZM161.229 180.492C161.229 180.22 161.311 179.996 161.473 179.819C161.636 179.642 161.827 179.554 162.044 179.554H177.863C178.08 179.582 178.264 179.684 178.414 179.86C178.563 180.037 178.638 180.248 178.638 180.492C178.638 180.764 178.563 180.982 178.414 181.144C178.264 181.307 178.08 181.389 177.863 181.389H162.044C161.827 181.389 161.636 181.307 161.473 181.144C161.311 180.982 161.229 180.764 161.229 180.492ZM169.933 204.465C170.15 204.465 170.321 204.642 170.429 204.995C170.429 205.05 170.504 205.186 170.654 205.403C170.803 205.621 170.98 205.838 171.17 206.056C171.36 206.273 171.53 206.477 171.687 206.667C171.836 206.857 171.924 206.952 171.952 206.952C172.169 207.034 172.325 207.136 172.421 207.258C172.516 207.381 172.563 207.632 172.563 208.012C172.563 208.203 172.454 208.312 172.237 208.339C172.155 208.366 172.019 208.468 171.822 208.644C171.632 208.821 171.435 209.025 171.231 209.256C171.021 209.487 170.823 209.732 170.633 209.99C170.443 210.248 170.314 210.473 170.259 210.663C170.205 210.88 169.988 210.989 169.6 210.989C169.274 210.989 169.009 210.846 168.799 210.561C168.595 210.275 168.275 209.902 167.834 209.44C167.779 209.385 167.671 209.202 167.507 208.889C167.344 208.576 167.127 208.352 166.855 208.216C166.475 208.053 166.284 207.836 166.284 207.564C166.284 207.428 166.345 207.271 166.468 207.095C166.59 206.919 166.733 206.816 166.896 206.789C167.005 206.789 167.174 206.694 167.406 206.504C167.636 206.314 167.868 206.103 168.099 205.872C168.337 205.641 168.547 205.424 168.737 205.219C168.934 205.016 169.043 204.887 169.071 204.832C169.179 204.588 169.288 204.465 169.396 204.465H169.933Z" fill="#F6F4F3"/>
</svg>
