<svg width="17" height="16" viewBox="0 0 17 16" fill="none" xmlns="http://www.w3.org/2000/svg">
<path d="M0.694617 16L1.77622 12.0256C1.06353 10.8039 0.689094 9.41439 0.691417 7.99999C0.691417 3.5816 4.27301 0 8.69141 0C13.1098 0 16.6914 3.5816 16.6914 7.99999C16.6914 12.4184 13.1098 16 8.69141 16C7.27764 16.0023 5.88874 15.6281 4.66741 14.916L0.694617 16ZM5.80421 4.2464C5.7009 4.25281 5.59995 4.28002 5.50741 4.3264C5.42063 4.37554 5.34141 4.43698 5.27221 4.5088C5.17621 4.5992 5.12181 4.6776 5.06341 4.7536C4.76774 5.13839 4.6087 5.61073 4.61141 6.096C4.61301 6.488 4.71541 6.8696 4.87541 7.2264C5.20261 7.94799 5.74101 8.71199 6.45221 9.41999C6.62341 9.59039 6.79061 9.76159 6.97061 9.92079C7.85332 10.698 8.90521 11.2584 10.0426 11.5576L10.4978 11.6272C10.6458 11.6352 10.7938 11.624 10.9426 11.6168C11.1756 11.6048 11.4031 11.5417 11.609 11.432C11.7138 11.378 11.816 11.3193 11.9154 11.256C11.9154 11.256 11.9498 11.2336 12.0154 11.184C12.1234 11.104 12.1898 11.0472 12.2794 10.9536C12.3458 10.8848 12.4034 10.804 12.4474 10.712C12.5098 10.5816 12.5722 10.3328 12.5978 10.1256C12.617 9.96719 12.6114 9.88079 12.609 9.82719C12.6058 9.74159 12.5346 9.65279 12.457 9.61519L11.9914 9.40639C11.9914 9.40639 11.2954 9.10319 10.8706 8.90959C10.8258 8.89007 10.7778 8.87895 10.729 8.87679C10.6743 8.87117 10.619 8.87733 10.5668 8.89486C10.5147 8.91238 10.4668 8.94086 10.4266 8.97839V8.97679C10.4226 8.97679 10.369 9.02239 9.79061 9.72319C9.75741 9.7678 9.71168 9.80152 9.65925 9.82004C9.60682 9.83856 9.55006 9.84105 9.49621 9.82719C9.44409 9.81326 9.39302 9.79561 9.34341 9.77439C9.24421 9.73279 9.20981 9.71679 9.14181 9.68719L9.13781 9.68559C8.68014 9.48577 8.25639 9.21587 7.88181 8.88559C7.78101 8.79759 7.68741 8.70159 7.59141 8.60879C7.27668 8.30738 7.00238 7.9664 6.77541 7.5944L6.72821 7.51839C6.69431 7.46733 6.6669 7.41224 6.64661 7.3544C6.61621 7.2368 6.69541 7.1424 6.69541 7.1424C6.69541 7.1424 6.88981 6.9296 6.98021 6.8144C7.05548 6.71865 7.12571 6.61905 7.19061 6.516C7.28501 6.364 7.31461 6.208 7.26501 6.0872C7.04101 5.54 6.80901 4.9952 6.57061 4.4544C6.52341 4.3472 6.38341 4.2704 6.25621 4.2552C6.21301 4.2504 6.16981 4.2456 6.12661 4.2424C6.01918 4.23706 5.91152 4.23813 5.80421 4.2456V4.2464Z" fill="white"/>
</svg>
