<svg width="17" height="16" viewBox="0 0 17 16" fill="none" xmlns="http://www.w3.org/2000/svg">
<path d="M8.68926 5.3322C7.22029 5.3322 6.0215 6.53101 6.0215 8C6.0215 9.46899 7.22029 10.6678 8.68926 10.6678C10.1582 10.6678 11.357 9.46899 11.357 8C11.357 6.53101 10.1582 5.3322 8.68926 5.3322ZM16.6905 8C16.6905 6.89525 16.7005 5.80051 16.6385 4.69777C16.5764 3.4169 16.2842 2.28014 15.3476 1.3435C14.409 0.404868 13.2743 0.114672 11.9934 0.0526304C10.8887 -0.0094115 9.79398 0.000595291 8.69126 0.000595291C7.58653 0.000595291 6.49181 -0.0094115 5.38909 0.0526304C4.10825 0.114672 2.9715 0.40687 2.03488 1.3435C1.09627 2.28214 0.806076 3.4169 0.744036 4.69777C0.681995 5.80252 0.692002 6.89725 0.692002 8C0.692002 9.10275 0.681995 10.1995 0.744036 11.3022C0.806076 12.5831 1.09827 13.7199 2.03488 14.6565C2.9735 15.5951 4.10825 15.8853 5.38909 15.9474C6.49381 16.0094 7.58853 15.9994 8.69126 15.9994C9.79598 15.9994 10.8907 16.0094 11.9934 15.9474C13.2743 15.8853 14.411 15.5931 15.3476 14.6565C16.2862 13.7179 16.5764 12.5831 16.6385 11.3022C16.7025 10.1995 16.6905 9.10475 16.6905 8ZM8.68926 12.1048C6.41776 12.1048 4.58456 10.2715 4.58456 8C4.58456 5.72847 6.41776 3.89523 8.68926 3.89523C10.9607 3.89523 12.794 5.72847 12.794 8C12.794 10.2715 10.9607 12.1048 8.68926 12.1048ZM12.9621 4.68576C12.4317 4.68576 12.0034 4.25747 12.0034 3.72711C12.0034 3.19675 12.4317 2.76847 12.9621 2.76847C13.4924 2.76847 13.9207 3.19675 13.9207 3.72711C13.9209 3.85305 13.8962 3.97778 13.848 4.09416C13.7999 4.21054 13.7293 4.31628 13.6403 4.40533C13.5512 4.49438 13.4455 4.56499 13.3291 4.61311C13.2127 4.66123 13.088 4.68592 12.9621 4.68576Z" fill="white"/>
</svg>
