<svg width="21" height="16" viewBox="0 0 21 16" fill="none" xmlns="http://www.w3.org/2000/svg">
<path d="M20.6914 1.89401C20.1433 2.69787 19.4498 3.41363 18.6444 3.98624C18.6556 4.15141 18.6556 4.3276 18.6556 4.50379C18.6556 9.84446 14.5281 16 6.98895 16C4.67351 16 2.51467 15.3283 0.691406 14.1831C1.01579 14.2161 1.34018 14.2381 1.67575 14.2381C3.59968 14.2381 5.36702 13.5884 6.76523 12.5093C5.90991 12.4919 5.08147 12.2119 4.39563 11.7085C3.70979 11.2051 3.20079 10.5033 2.93973 9.70131C3.18581 9.74535 3.44308 9.77839 3.71154 9.77839C4.08067 9.77839 4.4498 9.72333 4.78537 9.63524C3.85763 9.44775 3.02394 8.95107 2.42487 8.22893C1.82581 7.50679 1.49802 6.60338 1.49678 5.67103V5.62698C2.05606 5.92429 2.68246 6.11149 3.3536 6.13352C2.79186 5.76257 2.33163 5.26106 2.01362 4.67335C1.69561 4.08564 1.52962 3.42983 1.53033 2.76394C1.53033 2.02615 1.73167 1.33242 2.08962 0.737784C4.11422 3.18238 7.13436 4.79009 10.546 4.95526C10.4789 4.65795 10.4341 4.34962 10.4341 4.03028C10.4371 2.96037 10.8709 1.93528 11.6405 1.17977C12.41 0.424262 13.4525 -3.97177e-06 14.5393 0C15.725 0 16.7876 0.484515 17.537 1.27736C18.4655 1.09016 19.3491 0.759807 20.1433 0.297316C19.8301 1.23331 19.1813 2.02615 18.3312 2.52168C19.1462 2.43398 19.9424 2.22224 20.6914 1.89401Z" fill="white"/>
</svg>
