
    <svg
      width="59"
      height="59"
      viewBox="0 0 59 59"
      fill="none"
      xmlns="http://www.w3.org/2000/svg"
    >
      <path
        d="M49.8873 9.27052C44.576 3.80313 37.2339 0.834961 29.7356 0.834961C13.8019 0.834961 0.992251 13.8007 1.14834 29.5783C1.14834 34.5772 2.55427 39.42 4.89763 43.7939L0.835938 58.6343L15.9887 54.7289C20.2065 57.0722 24.8928 58.1658 29.5795 58.1658C45.3571 58.1658 58.1667 45.1998 58.1667 29.4224C58.1667 21.7678 55.1986 14.5818 49.8875 9.27052H49.8873ZM29.7356 53.3232C25.5178 53.3232 21.3 52.2299 17.7071 50.0428L16.7698 49.5741L7.70948 51.9172L10.0526 43.0132L9.42781 42.0758C2.55427 30.9847 5.83484 16.3001 17.0822 9.42661C28.3297 2.55329 42.8576 5.83386 49.7312 17.0813C56.6045 28.3287 53.3239 42.8567 42.0767 49.7302C38.4835 52.0733 34.1097 53.3229 29.7356 53.3229V53.3232ZM43.4824 35.9836L41.7641 35.2024C41.7641 35.2024 39.2649 34.1089 37.7026 33.3278C37.5463 33.3278 37.3902 33.1715 37.2339 33.1715C36.7652 33.1715 36.4528 33.3278 36.1404 33.4841C36.1404 33.4841 35.9843 33.6402 33.7973 36.1397C33.641 36.4521 33.3286 36.6084 33.0162 36.6084H32.8598C32.7037 36.6084 32.3913 36.4521 32.235 36.296L31.4539 35.9836C29.7356 35.2024 28.1736 34.265 26.9237 33.0154C26.6113 32.703 26.1426 32.3906 25.8302 32.0782C24.7367 30.9847 23.6432 29.7348 22.8623 28.3289L22.7059 28.0165C22.5499 27.8602 22.5499 27.7041 22.3935 27.3917C22.3935 27.0793 22.3935 26.7669 22.5499 26.6106C22.5499 26.6106 23.1747 25.8295 23.6432 25.361C23.9558 25.0483 24.1119 24.5798 24.4243 24.2674C24.7367 23.7987 24.893 23.1739 24.7367 22.7052C24.5806 21.9241 22.7059 17.7063 22.2375 16.7691C21.9248 16.3004 21.6126 16.1443 21.1439 15.988H19.4256C19.113 15.988 18.8008 16.1443 18.4882 16.1443L18.3319 16.3004C18.0195 16.4567 17.7071 16.7691 17.3946 16.9252C17.0822 17.2378 16.9259 17.55 16.6135 17.8626C15.52 19.2685 14.8952 20.9869 14.8952 22.7052C14.8952 23.9548 15.2076 25.2046 15.6763 26.2982L15.8326 26.7669C17.2386 29.7348 19.113 32.3906 21.6126 34.7337L22.2375 35.3585C22.7059 35.8272 23.1747 36.1397 23.4871 36.6081C26.7676 39.4202 30.5167 41.451 34.7345 42.5445C35.2032 42.7006 35.828 42.7006 36.2967 42.8569H37.8587C38.6399 42.8569 39.5771 42.5445 40.2021 42.2321C40.6706 41.9197 40.983 41.9197 41.2954 41.6073L41.608 41.2946C41.9204 40.9822 42.2328 40.8261 42.5452 40.5137C42.8576 40.2013 43.17 39.8889 43.3263 39.5763C43.6387 38.9515 43.7948 38.1704 43.9512 37.3895V36.296C43.9512 36.296 43.7948 36.1397 43.4824 35.9836Z"
        fill="white"
      />
    </svg>

